<svg width="46" height="58" viewBox="0 0 46 58" xmlns="http://www.w3.org/2000/svg"><title>bateaux-03</title><g fill="none" fill-rule="evenodd"><path d="M37.267 43.023s-11.826.9-17.043 1.08c-5.217.18-18.526-1.08-18.526-1.08.54.18 3.417 5.575 3.417 5.575s5.64.7 11.84 1.08v6.464l3.796.03.064-6.297c8.53-.006 16.453-1.277 16.453-1.277v-5.575" fill="#4D4D4C"/><path d="M17.978 55.128l1.762.014.052-5.277c.006-.56.46-1.01 1.02-1.01 6.745-.006 13.167-.82 15.434-1.14v-3.592c-3.063.227-11.744.854-15.987 1-3.96.132-12.383-.532-16.42-.882.485.796 1.11 1.892 1.924 3.407 1.536.18 6.236.704 11.255 1.012.538.032.958.478.958 1.018v5.45zm2.773 2.065h-.006l-3.795-.03c-.562-.004-1.015-.46-1.015-1.02v-5.507c-5.78-.388-10.892-1.017-10.946-1.024-.33-.04-.62-.24-.777-.533-1.15-2.156-2.62-4.703-3.066-5.196-.35-.224-.538-.648-.45-1.072.11-.508.58-.853 1.097-.806.123.012 13.28 1.248 18.395 1.075 5.135-.176 16.882-1.067 17-1.076.282-.025.562.077.77.27.21.193.33.465.33.75v5.574c0 .502-.366.93-.86 1.01-.078.01-7.477 1.183-15.605 1.282l-.052 5.292c-.006.56-.462 1.01-1.022 1.01zM40.01 43.023v5.938l2.89 2.73 2.086-1.283-4.976-7.384" fill="#4D4D4C"/><path d="M40.924 48.567l2.094 1.978.678-.418-2.772-4.114v2.554zm1.976 4.037c-.227 0-.453-.085-.627-.25l-2.89-2.73c-.183-.17-.286-.41-.286-.663v-5.937c0-.402.262-.756.646-.874s.8.03 1.025.362l4.976 7.384c.138.206.187.46.135.704-.054.243-.204.454-.416.585l-2.086 1.283c-.147.09-.313.136-.478.136z" fill="#4D4D4C"/><path d="M7.273 39.246V12.264L21.456.752l9.2 12.232 6.61 26.98-29.993-.718" fill="#E4E5E3"/><path d="M21.456 44.555c-.846 0-1.532-.686-1.532-1.532v-1.526H6.554c-.846 0-1.532-.687-1.532-1.533v-27.7c0-.846.686-1.532 1.532-1.532s1.532.686 1.532 1.532v26.168h13.37c.847 0 1.533.686 1.533 1.532v3.06c0 .845-.687 1.53-1.534 1.53" fill="#4D4D4C"/></g></svg>