<svg width="57" height="46" viewBox="0 0 57 46" xmlns="http://www.w3.org/2000/svg"><title>bateaux-02</title><g fill="none" fill-rule="evenodd"><path d="M55.527 32.898c-1.89 1.03-11.514 6.006-26.122 4.808l-8.42-1.027.17-3.954s-5.843 1.375-8.937-.687c-3.094-2.064-4.125-2.58-4.125-2.58l-3.78 1.547c.718.72 2.47 3.317 5.426 5.926.192.17.402.34.605.51l-3.183 4.02 3.927 1.625 2.73-3.184c2.04 1.21 4.412 2.23 7.164 2.79 10.14 2.062 26.123 2.062 28.014 1.03 1.89-1.03 7.045-5.842 6.53-10.826" fill="#4D4D4C"/><path d="M13.82 38.882c.178 0 .357.047.52.143 2.21 1.308 4.45 2.18 6.847 2.67 6.118 1.243 14.147 1.686 19.622 1.686 4.86 0 7.268-.33 7.7-.552 1.605-.875 5.357-4.473 5.95-8.244-3.63 1.72-10.75 4.328-20.568 4.328-1.51 0-3.046-.063-4.57-.188l-8.462-1.03c-.53-.066-.92-.526-.897-1.06l.116-2.674c-.794.12-1.877.236-3.046.236-2.27 0-4.08-.44-5.383-1.307-1.968-1.314-3.09-1.99-3.623-2.3l-2.03.83c.952 1.18 2.384 2.952 4.418 4.747.13.114.268.23.407.344l.178.15c.425.355.49.983.146 1.417l-2.344 2.96 1.994.824 2.247-2.62c.2-.234.486-.358.776-.358zm26.99 6.542c-5.575 0-13.764-.454-20.03-1.728-2.32-.472-4.58-1.307-6.734-2.488l-2.18 2.545c-.29.335-.76.448-1.167.28l-3.93-1.626c-.295-.122-.517-.377-.597-.687-.08-.31-.01-.64.188-.89l2.572-3.248c-2.104-1.878-3.622-3.76-4.536-4.893-.342-.426-.638-.793-.806-.96-.242-.243-.346-.59-.28-.924.068-.335.3-.615.616-.744l3.78-1.547c.273-.11.58-.1.844.032.045.022 1.124.568 4.235 2.64.946.633 2.416.967 4.25.967 2.057 0 3.868-.418 3.886-.423.312-.072.64.006.886.21s.383.51.37.83l-.13 3.01 7.482.91c1.43.118 2.91.18 4.364.18 11.03 0 18.462-3.405 21.146-4.87.3-.163.662-.165.964-.006.303.16.506.46.54.8.558 5.382-4.75 10.57-7.056 11.828-1.215.663-5.388.802-8.676.802z" fill="#4D4D4C"/><path d="M51.048 9.09v23.84l-16.39-1.626 1.084-4.063 1.354-.676.542-3.387h.947l.813-3.793 1.49-.27.814-3.522 1.15-.27 2.1-4.596h2.167l2.167-1.636h1.76M34.658 2.724L28.8 5.174l-3.082.123-2.23 3.47-1.697.323-.406 2.57-1.956 1.19-.78 5.614-1.057.176c0 .813-.676 5.544-.676 5.544H15.83c0 .754-.102 6.187-.102 6.187l-.575.705 20.182 3.48-.677-31.83M10.75 13.696c-.406.27-3.046.566-3.046.566l-.542 1.87-2.85.734v1.774h-1.35v3.047H1.88v2.497h-.814v1.973L.39 27.375l9.752.814.608-14.494" fill="#E4E5E3"/><path d="M10.75 32.607c-.846 0-1.532-.686-1.532-1.532v-17.38c0-.845.686-1.53 1.532-1.53.847 0 1.533.685 1.533 1.53v17.38c0 .846-.686 1.532-1.533 1.532M35.335 39.36c-.846 0-1.532-.687-1.532-1.533V2.037c0-.848.686-1.534 1.532-1.534.847 0 1.533.686 1.533 1.533v35.79c0 .847-.686 1.533-1.533 1.533M51.048 39.88c-.846 0-1.532-.687-1.532-1.533V10.022c0-.846.686-1.532 1.532-1.532.847 0 1.533.686 1.533 1.532v28.325c0 .846-.685 1.532-1.532 1.532" fill="#4D4D4C"/></g></svg>