<svg width="46" height="60" viewBox="0 0 46 60" xmlns="http://www.w3.org/2000/svg"><title>bateaux-04</title><g fill="none" fill-rule="evenodd"><path d="M1.1 51.432h34.728v2.906s-12.713 1.05-15.12 1.034c-2.408-.014-18.646-.2-18.967-.75-.32-.55-.64-3.19-.64-3.19" fill="#4D4D4C"/><path d="M2.53 53.785c2.264.32 12.55.533 18.183.565l.05 1.022V54.35c2.068 0 11.092-.715 14.044-.954v-.942H2.275c.083.52.174 1.007.254 1.33zm18.232 2.608H20.7c-19.173-.11-19.528-.72-19.842-1.257-.37-.638-.643-2.517-.773-3.58-.035-.29.056-.582.25-.8.193-.22.472-.345.764-.345h34.728c.564 0 1.022.458 1.022 1.022v2.906c0 .532-.408.974-.938 1.018-.513.043-12.596 1.037-15.15 1.037z" fill="#4D4D4C"/><path d="M20.193 59.998c-.587 0-1.064-.476-1.064-1.064v-4.057c0-.587.476-1.064 1.063-1.064.588 0 1.064.477 1.064 1.064v4.057c0 .588-.476 1.064-1.064 1.064M1.613 57.613c-.588 0-1.064-.476-1.064-1.064v-4.057c0-.588.475-1.064 1.063-1.064s1.064.475 1.064 1.063v4.056c0 .587-.476 1.063-1.064 1.063" fill="#4D4D4C"/><path d="M9.326 46.523c-.07-3.785-.002-27.834 6.098-37.932 3.564-5.897 6.1-5.257 6.1-5.257l2.105 45.785s-3.66-3.857-7.158-3.857c-3.5 0-7.146 1.263-7.146 1.263M45.434 50.31L22.717 12.516l.912 36.6s8.833.842 11.778 1.192c2.946.35 10.026 0 10.026 0" fill="#E4E5E3"/><path d="M24.188 52.964c-.81 0-1.486-.634-1.53-1.453L20.11 2.15c-.043-.844.606-1.565 1.452-1.61.84-.047 1.566.607 1.61 1.453l2.55 49.36c.043.845-.606 1.565-1.45 1.61h-.082" fill="#4D4D4C"/></g></svg>