<svg width="66" height="45" viewBox="0 0 66 45" xmlns="http://www.w3.org/2000/svg"><title>bateaux-05</title><g fill="none" fill-rule="evenodd"><path d="M4.552 27.865s-2.558 9.96 5.115 10.364c7.672.403 43.038 0 48.69 0 5.654 0 2.732-9.154 2.732-9.154s8.615 14.403-1.48 14.538c-10.097.135-45.232 0-50.212 0-4.98 0-12.79-3.904-4.846-15.75" fill="#4D4D4C"/><path d="M3.164 32.466c-1.17 2.76-1.308 5.078-.38 6.818 1.22 2.285 4.2 3.308 6.614 3.308 1.094 0 3.642.007 7.06.015 6.956.02 17.518.045 26.753.045 7.9 0 13.413-.02 16.385-.06 1.777-.023 2.91-.515 3.462-1.503.784-1.405.43-3.673-.293-5.88-.137.89-.42 1.73-.92 2.417-.54.74-1.585 1.624-3.487 1.624-1.312 0-4.226.023-8.023.05-7.303.056-17.305.13-25.89.13-7.667 0-12.518-.06-14.83-.18-2.21-.117-3.898-.95-5.018-2.474-.928-1.263-1.314-2.83-1.432-4.31zm40.047 12.23c-9.235 0-19.8-.028-26.758-.046-3.415-.008-5.96-.015-7.054-.015-2.802 0-6.687-1.15-8.416-4.39-1.753-3.285-.836-7.642 2.722-12.95.276-.412.808-.566 1.265-.362.452.202.695.703.572 1.185-.012.048-1.207 4.858.704 7.453.75 1.02 1.886 1.556 3.475 1.64 2.246.117 7.2.177 14.724.177 8.577 0 18.575-.075 25.874-.13 3.805-.027 6.725-.05 8.04-.05 1.13 0 1.59-.447 1.835-.784 1.235-1.687.363-5.652-.077-7.037-.157-.494.08-1.028.554-1.24.47-.213 1.03-.04 1.296.405.552.925 5.324 9.147 2.875 13.534-.925 1.66-2.68 2.517-5.217 2.55-2.982.04-8.504.06-16.412.06z" fill="#4D4D4C"/><path d="M6.503 27.865c0-1.078-.873-1.952-1.95-1.952-1.08 0-1.954.874-1.954 1.952 0 1.078.873 1.95 1.952 1.95 1.078 0 1.95-.872 1.95-1.95M62.847 28.865c0-1.078-.873-1.952-1.95-1.952-1.08 0-1.954.874-1.954 1.952 0 1.078.874 1.95 1.953 1.95 1.078 0 1.95-.872 1.95-1.95" fill="#4D4D4C"/><path d="M18.013 8.48h29.75v25.442h-29.75V8.48z" fill="#E4E5E3"/><path d="M32.834 39.92c-.847 0-1.533-.685-1.533-1.53V2.153c0-.846.687-1.532 1.534-1.532.846 0 1.532.686 1.532 1.532V38.39c0 .845-.686 1.53-1.532 1.53" fill="#4D4D4C"/></g></svg>