<?xml version="1.0" encoding="UTF-8" standalone="no"?>
<svg width="46px" height="60px" viewBox="0 0 46 60" version="1.1" xmlns="http://www.w3.org/2000/svg" xmlns:xlink="http://www.w3.org/1999/xlink" xmlns:sketch="http://www.bohemiancoding.com/sketch/ns">
    <!-- Generator: Sketch 3.0 (7574) - http://www.bohemiancoding.com/sketch -->
    <title>bateaux-04</title>
    <description>Created with Sketch.</description>
    <defs></defs>
    <g id="Page-1" stroke="none" stroke-width="1" fill="none" fill-rule="evenodd" sketch:type="MSPage">
        <g id="bateaux-04" sketch:type="MSLayerGroup" transform="translate(0.000000, 1.000000)">
            <path d="M1.099,50.432 L35.828,50.432 L35.828,53.338 C35.828,53.338 23.115,54.387 20.707,54.372 C18.3,54.358 2.062,54.172 1.741,53.622 C1.421,53.071 1.099,50.432 1.099,50.432" id="Fill-2" fill="#4D4D4C" sketch:type="MSShapeGroup"></path>
            <path d="M2.529,52.785 C4.794,53.105 15.081,53.318 20.713,53.35 L20.762,54.372 L20.762,53.35 C22.831,53.35 31.855,52.635 34.807,52.396 L34.807,51.454 L2.275,51.454 C2.358,51.975 2.449,52.461 2.529,52.785 L2.529,52.785 Z M20.762,55.393 L20.7,55.393 C1.527,55.284 1.172,54.674 0.858,54.136 C0.488,53.498 0.215,51.619 0.085,50.556 C0.05,50.266 0.141,49.974 0.334,49.755 C0.528,49.536 0.807,49.411 1.099,49.411 L35.828,49.411 C36.392,49.411 36.85,49.868 36.85,50.432 L36.85,53.338 C36.85,53.87 36.442,54.312 35.912,54.356 C35.399,54.399 23.316,55.393 20.762,55.393 L20.762,55.393 Z" id="Fill-3" fill="#4D4D4C" sketch:type="MSShapeGroup"></path>
            <path d="M20.193,58.998 C19.606,58.998 19.129,58.522 19.129,57.934 L19.129,53.877 C19.129,53.29 19.606,52.813 20.193,52.813 C20.781,52.813 21.257,53.29 21.257,53.877 L21.257,57.934 C21.257,58.522 20.781,58.998 20.193,58.998" id="Fill-4" fill="#4D4D4C" sketch:type="MSShapeGroup"></path>
            <path d="M1.613,56.613 C1.025,56.613 0.549,56.137 0.549,55.549 L0.549,51.493 C0.549,50.905 1.025,50.429 1.613,50.429 C2.201,50.429 2.677,50.905 2.677,51.493 L2.677,55.549 C2.677,56.137 2.201,56.613 1.613,56.613" id="Fill-5" fill="#4D4D4C" sketch:type="MSShapeGroup"></path>
            <path d="M9.326,45.523 C9.256,41.738 9.324,17.689 15.424,7.591 C18.988,1.693 21.525,2.333 21.525,2.333 L23.629,48.118 C23.629,48.118 19.971,44.261 16.472,44.261 C12.972,44.261 9.326,45.523 9.326,45.523" id="Fill-6" fill="#E4E5E3" sketch:type="MSShapeGroup"></path>
            <path d="M45.434,49.309 L22.717,11.517 L23.629,48.118 C23.629,48.118 32.463,48.959 35.408,49.309 C38.354,49.661 45.434,49.309 45.434,49.309" id="Fill-7" fill="#E4E5E3" sketch:type="MSShapeGroup"></path>
            <path d="M24.188,51.964 C23.378,51.964 22.702,51.33 22.659,50.511 L20.108,1.151 C20.065,0.306 20.714,-0.415 21.56,-0.459 C22.401,-0.507 23.126,0.147 23.169,0.993 L25.72,50.353 C25.763,51.198 25.114,51.918 24.269,51.962 L24.188,51.964" id="Fill-8" fill="#4D4D4C" sketch:type="MSShapeGroup"></path>
        </g>
    </g>
</svg>