<svg width="70" height="14" viewBox="0 0 70 14" xmlns="http://www.w3.org/2000/svg"><title>bateaux-08</title><g fill="none" fill-rule="evenodd"><path d="M5.15 8.887l-3.7 2.687 61.495.553L69 6.78H25.314L22.04 9.038l-16.89-.15" fill="#4D4D4C"/><path d="M4.555 10.58l58.008.522 3.738-3.3H25.63l-3.01 2.076c-.174.12-.352.193-.59.18L5.478 9.91l-.923.67zm58.39 2.568h-.01l-61.494-.553c-.44-.004-.828-.29-.962-.71-.135-.42.016-.878.372-1.137l3.7-2.687c.177-.128.38-.164.61-.194l16.566.147 3.007-2.073c.17-.117.373-.18.58-.18H69c.426 0 .806.263.956.66.15.397.04.846-.28 1.127l-6.055 5.346c-.185.164-.426.255-.675.255z" fill="#4D4D4C"/><path d="M10.25 7.332l2.1-1.51h11.652l-2.866 1.51H10.25M15.04 5.322l1.398-1.21h3l2.336-2.01 5.04.045L28.646.254h8.597L38.5 1.51l6.773.224 14.174 3.588H15.04" fill="#E4E5E3"/></g></svg>