<?xml version="1.0" encoding="UTF-8" standalone="no"?>
<svg width="67px" height="43px" viewBox="0 0 67 43" version="1.1" xmlns="http://www.w3.org/2000/svg" xmlns:xlink="http://www.w3.org/1999/xlink" xmlns:sketch="http://www.bohemiancoding.com/sketch/ns">
    <!-- Generator: Sketch 3.0 (7574) - http://www.bohemiancoding.com/sketch -->
    <title>bateaux-07</title>
    <description>Created with Sketch.</description>
    <defs></defs>
    <g id="Page-1" stroke="none" stroke-width="1" fill="none" fill-rule="evenodd" sketch:type="MSPage">
        <g id="bateaux-07" sketch:type="MSLayerGroup" transform="translate(1.000000, 0.000000)">
            <path d="M50.385,8.1 C49.066,5.822 44.509,4.861 44.509,4.861 L39.472,8.34 L39.744,11.639 L35.404,2.251 L27.011,14.014 L25.953,3.422 L17.078,13.316 L16.417,7.5 L4.83,35.805 L47.387,36.164 L47.987,37.004 L65.976,36.164 C65.976,36.164 51.705,10.379 50.385,8.1" id="Fill-2" fill="#E4E5E3" sketch:type="MSShapeGroup"></path>
            <path d="M20.194,36.943 C19.441,36.943 18.793,36.379 18.706,35.613 L15.587,8.27 C15.494,7.446 16.084,6.703 16.908,6.609 C17.728,6.506 18.474,7.106 18.568,7.93 L21.686,35.273 C21.78,36.097 21.189,36.84 20.366,36.934 L20.194,36.943" id="Fill-3" fill="#4D4D4C" sketch:type="MSShapeGroup"></path>
            <path d="M29.189,37.305 C28.428,37.305 27.776,36.727 27.698,35.954 L24.46,3.571 C24.377,2.747 24.979,2.012 25.803,1.929 C26.624,1.849 27.362,2.448 27.445,3.272 L30.684,35.655 C30.766,36.48 30.165,37.215 29.34,37.297 L29.189,37.305" id="Fill-4" fill="#4D4D4C" sketch:type="MSShapeGroup"></path>
            <path d="M39.142,37.664 C38.387,37.664 37.738,37.096 37.653,36.329 L33.843,1.788 C33.751,0.964 34.346,0.223 35.169,0.132 C35.998,0.042 36.734,0.635 36.824,1.458 L40.635,36 C40.726,36.823 40.132,37.564 39.309,37.655 L39.142,37.664" id="Fill-5" fill="#4D4D4C" sketch:type="MSShapeGroup"></path>
            <path d="M49.457,37.664 C48.708,37.664 48.061,37.105 47.969,36.343 L44.131,4.321 C44.033,3.499 44.62,2.752 45.442,2.653 C46.265,2.551 47.011,3.142 47.11,3.964 L50.948,35.985 C51.046,36.808 50.459,37.555 49.637,37.653 L49.457,37.664" id="Fill-6" fill="#4D4D4C" sketch:type="MSShapeGroup"></path>
            <path d="M0.647,35.443 L13.12,41.92 L53.537,41.92 L60.612,36.764 L0.647,35.443" id="Fill-7" fill="#4D4D4C" sketch:type="MSShapeGroup"></path>
            <path d="M13.364,40.92 L53.211,40.92 L57.631,37.698 L4.925,36.538 L13.364,40.92 L13.364,40.92 Z M53.537,42.92 L13.12,42.92 C12.959,42.92 12.801,42.881 12.659,42.808 L0.186,36.331 C-0.227,36.117 -0.437,35.646 -0.322,35.195 C-0.207,34.745 0.219,34.463 0.669,34.443 L60.634,35.764 C61.063,35.773 61.437,36.055 61.566,36.464 C61.694,36.873 61.547,37.319 61.201,37.572 L54.126,42.728 C53.955,42.852 53.748,42.92 53.537,42.92 L53.537,42.92 Z" id="Fill-8" fill="#4D4D4C" sketch:type="MSShapeGroup"></path>
        </g>
    </g>
</svg>