<svg width="67" height="43" viewBox="0 0 67 43" xmlns="http://www.w3.org/2000/svg"><title>bateaux-07</title><g fill="none" fill-rule="evenodd"><path d="M51.385 8.1c-1.32-2.278-5.876-3.24-5.876-3.24L40.47 8.34l.272 3.3-4.34-9.39-8.393 11.764-1.057-10.592-8.875 9.894-.66-5.816L5.83 35.805l42.557.36.6.84 17.99-.84S52.704 10.378 51.384 8.1" fill="#E4E5E3"/><path d="M21.194 36.943c-.753 0-1.4-.564-1.488-1.33L16.586 8.27c-.092-.824.498-1.567 1.322-1.66.82-.104 1.566.496 1.66 1.32l3.118 27.343c.094.824-.497 1.567-1.32 1.66l-.172.01M30.19 37.305c-.762 0-1.414-.578-1.492-1.35L25.46 3.57c-.083-.823.52-1.558 1.343-1.64.82-.08 1.56.518 1.642 1.342l3.24 32.383c.08.825-.52 1.56-1.345 1.642l-.15.008M40.142 37.664c-.755 0-1.404-.568-1.49-1.335l-3.81-34.542c-.09-.824.504-1.565 1.327-1.656.828-.09 1.564.503 1.654 1.326L41.634 36c.092.823-.502 1.564-1.325 1.655l-.168.01M50.457 37.664c-.75 0-1.396-.56-1.488-1.32L45.13 4.32c-.097-.82.49-1.568 1.312-1.667.823-.102 1.57.49 1.668 1.31l3.838 32.022c.098.823-.49 1.57-1.31 1.668l-.18.01M1.647 35.443L14.12 41.92h40.417l7.075-5.156-59.965-1.32" fill="#4D4D4C"/><path d="M14.364 40.92H54.21l4.42-3.222-52.705-1.16 8.44 4.382zm40.173 2H14.12c-.16 0-.32-.04-.46-.112L1.185 36.33c-.413-.213-.623-.684-.508-1.135.115-.45.54-.732.99-.752l59.966 1.32c.43.01.803.292.932.7.128.41-.02.856-.365 1.11l-7.074 5.155c-.17.124-.378.192-.59.192z" fill="#4D4D4C"/></g></svg>