<?xml version="1.0" encoding="UTF-8" standalone="no"?>
<svg width="66px" height="45px" viewBox="0 0 66 45" version="1.1" xmlns="http://www.w3.org/2000/svg" xmlns:xlink="http://www.w3.org/1999/xlink" xmlns:sketch="http://www.bohemiancoding.com/sketch/ns">
    <!-- Generator: Sketch 3.0 (7574) - http://www.bohemiancoding.com/sketch -->
    <title>bateaux-05</title>
    <description>Created with Sketch.</description>
    <defs></defs>
    <g id="Page-1" stroke="none" stroke-width="1" fill="none" fill-rule="evenodd" sketch:type="MSPage">
        <g id="bateaux-05" sketch:type="MSLayerGroup" transform="translate(0.000000, 1.000000)">
            <path d="M4.552,26.865 C4.552,26.865 1.994,36.826 9.667,37.229 C17.339,37.633 52.705,37.229 58.357,37.229 C64.011,37.229 61.089,28.076 61.089,28.076 C61.089,28.076 69.705,42.479 59.609,42.614 C49.513,42.749 14.378,42.614 9.398,42.614 C4.417,42.614 -3.391,38.71 4.552,26.865" id="Fill-2" fill="#4D4D4C" sketch:type="MSShapeGroup"></path>
            <path d="M3.164,31.466 C1.994,34.227 1.856,36.544 2.785,38.284 C4.004,40.569 6.985,41.592 9.398,41.592 C10.492,41.592 13.04,41.599 16.458,41.607 C23.414,41.626 33.976,41.652 43.211,41.652 C51.11,41.652 56.623,41.632 59.595,41.592 C61.372,41.569 62.504,41.077 63.057,40.089 C63.841,38.685 63.486,36.417 62.764,34.21 C62.627,35.099 62.345,35.94 61.843,36.627 C61.303,37.368 60.259,38.251 58.357,38.251 C57.045,38.251 54.131,38.273 50.334,38.301 C43.031,38.356 33.029,38.43 24.444,38.43 C16.777,38.43 11.926,38.371 9.614,38.249 C7.404,38.133 5.716,37.301 4.596,35.776 C3.668,34.513 3.282,32.946 3.164,31.466 L3.164,31.466 Z M43.211,43.695 C33.975,43.695 23.41,43.668 16.452,43.65 C13.037,43.642 10.491,43.635 9.398,43.635 C6.596,43.635 2.711,42.485 0.982,39.245 C-0.771,35.96 0.146,31.603 3.704,26.296 C3.98,25.883 4.512,25.729 4.969,25.933 C5.422,26.135 5.665,26.636 5.542,27.118 C5.53,27.166 4.335,31.976 6.246,34.571 C6.996,35.589 8.132,36.126 9.721,36.209 C11.966,36.327 16.919,36.387 24.444,36.387 C33.021,36.387 43.019,36.312 50.318,36.258 C54.123,36.23 57.043,36.208 58.357,36.208 C59.488,36.208 59.947,35.76 60.193,35.423 C61.428,33.736 60.556,29.771 60.116,28.386 C59.959,27.892 60.197,27.358 60.67,27.145 C61.141,26.933 61.7,27.107 61.966,27.551 C62.518,28.475 67.29,36.697 64.841,41.084 C63.915,42.743 62.159,43.601 59.623,43.635 C56.641,43.675 51.119,43.695 43.211,43.695 L43.211,43.695 Z" id="Fill-3" fill="#4D4D4C" sketch:type="MSShapeGroup"></path>
            <path d="M6.503,26.865 C6.503,25.787 5.63,24.913 4.552,24.913 C3.473,24.913 2.599,25.787 2.599,26.865 C2.599,27.943 3.473,28.816 4.552,28.816 C5.63,28.816 6.503,27.943 6.503,26.865" id="Fill-4" fill="#4D4D4C" sketch:type="MSShapeGroup"></path>
            <path d="M62.847,27.865 C62.847,26.787 61.974,25.913 60.896,25.913 C59.817,25.913 58.943,26.787 58.943,27.865 C58.943,28.943 59.817,29.816 60.896,29.816 C61.974,29.816 62.847,28.943 62.847,27.865" id="Fill-5" fill="#4D4D4C" sketch:type="MSShapeGroup"></path>
            <path d="M18.013,7.48 L47.763,7.48 L47.763,32.922 L18.013,32.922 L18.013,7.48 Z" id="Fill-6" fill="#E4E5E3" sketch:type="MSShapeGroup"></path>
            <path d="M32.834,38.921 C31.987,38.921 31.301,38.235 31.301,37.389 L31.301,1.154 C31.301,0.308 31.987,-0.378 32.834,-0.378 C33.68,-0.378 34.366,0.308 34.366,1.154 L34.366,37.389 C34.366,38.235 33.68,38.921 32.834,38.921" id="Fill-7" fill="#4D4D4C" sketch:type="MSShapeGroup"></path>
        </g>
    </g>
</svg>