<svg width="70" height="55" viewBox="0 0 70 55" xmlns="http://www.w3.org/2000/svg"><title>bateaux-06</title><g fill="none" fill-rule="evenodd"><path d="M9.4 49.73l11.77 3.98h36.753l10.32-3.98H9.4" fill="#4D4D4C"/><path d="M21.337 52.69h36.396l5.026-1.94H15.605l5.73 1.94zm36.586 2.042H21.17c-.112 0-.223-.018-.328-.053l-11.77-3.984c-.473-.16-.76-.64-.68-1.134.082-.493.508-.855 1.008-.855h58.844c.492 0 .914.35 1.004.835.09.483-.178.962-.637 1.14l-10.32 3.982c-.116.045-.24.068-.367.068z" fill="#4D4D4C"/><path d="M25.152 9.353S12.478 7.54 18.454 37.416C19.72 37.96.167 43.572.167 43.572S.53 29.27 8.133 19.674c7.605-9.598 17.02-10.32 17.02-10.32" fill="#E4E5E3"/><path d="M26.058 24.38c-.906 4.165-3.983 20.64-3.26 22.27 0 0-8.328 1.993-8.328 1.448 0-.543 5.432-16.657 11.588-23.717M38.822 2.963c-1.9 5.665-4.254 10.734 0 21.418 0 0-9.55-1.63-10.977 1.087 0 0-2.6-8.33 1.97-14.123 4.57-5.794 9.007-8.38 9.007-8.38M41.628 1.023c1.268.906 6.518 5.432 6.518 5.432s17.02 37.842 20.098 39.47c-1.268.907-24.805 2.266-24.805 2.266L41.627 1.024M33.496 21.846s3.968 20.64 5.326 25.347l-10.23.998-1.4-26.344h6.304" fill="#E4E5E3"/><path d="M28.592 49.724c-.82 0-1.5-.65-1.53-1.477L25.577 7.235c-.03-.845.63-1.556 1.475-1.587.867-.028 1.556.63 1.587 1.476l1.484 41.012c.03.845-.63 1.556-1.475 1.587h-.058M43.257 51.26c-.81 0-1.486-.633-1.53-1.45L39.194 1.83c-.045-.846.604-1.567 1.45-1.612.855-.05 1.565.604 1.61 1.45l2.536 47.98c.043.845-.606 1.566-1.45 1.61l-.083.003" fill="#4D4D4C"/></g></svg>