<?xml version="1.0" encoding="UTF-8" standalone="no"?>
<svg width="70px" height="55px" viewBox="0 0 70 55" version="1.1" xmlns="http://www.w3.org/2000/svg" xmlns:xlink="http://www.w3.org/1999/xlink" xmlns:sketch="http://www.bohemiancoding.com/sketch/ns">
    <!-- Generator: Sketch 3.0 (7574) - http://www.bohemiancoding.com/sketch -->
    <title>bateaux-06</title>
    <description>Created with Sketch.</description>
    <defs></defs>
    <g id="Page-1" stroke="none" stroke-width="1" fill="none" fill-rule="evenodd" sketch:type="MSPage">
        <g id="bateaux-06" sketch:type="MSLayerGroup">
            <path d="M9.4,49.729 L21.169,53.711 L57.923,53.711 L68.244,49.729 L9.4,49.729" id="Fill-2" fill="#4D4D4C" sketch:type="MSShapeGroup"></path>
            <path d="M21.337,52.69 L57.733,52.69 L62.759,50.75 L15.606,50.75 L21.337,52.69 L21.337,52.69 Z M57.923,54.732 L21.169,54.732 C21.058,54.732 20.947,54.714 20.842,54.679 L9.073,50.696 C8.599,50.536 8.311,50.056 8.393,49.562 C8.474,49.069 8.9,48.707 9.4,48.707 L68.244,48.707 C68.736,48.707 69.158,49.058 69.248,49.542 C69.338,50.025 69.07,50.504 68.611,50.682 L58.291,54.664 C58.174,54.709 58.049,54.732 57.923,54.732 L57.923,54.732 Z" id="Fill-3" fill="#4D4D4C" sketch:type="MSShapeGroup"></path>
            <path d="M25.152,9.353 C25.152,9.353 12.478,7.541 18.454,37.416 C19.72,37.959 0.167,43.572 0.167,43.572 C0.167,43.572 0.529,29.27 8.133,19.674 C15.738,10.076 25.152,9.353 25.152,9.353" id="Fill-4" fill="#E4E5E3" sketch:type="MSShapeGroup"></path>
            <path d="M26.058,24.381 C25.152,28.545 22.075,45.02 22.798,46.65 C22.798,46.65 14.47,48.643 14.47,48.098 C14.47,47.555 19.902,31.441 26.058,24.381" id="Fill-5" fill="#E4E5E3" sketch:type="MSShapeGroup"></path>
            <path d="M38.822,2.963 C36.921,8.628 34.568,13.697 38.822,24.381 C38.822,24.381 29.271,22.75 27.845,25.467 C27.845,25.467 25.244,17.137 29.815,11.344 C34.386,5.55 38.822,2.963 38.822,2.963" id="Fill-6" fill="#E4E5E3" sketch:type="MSShapeGroup"></path>
            <path d="M41.628,1.023 C42.896,1.929 48.146,6.455 48.146,6.455 C48.146,6.455 65.165,44.297 68.244,45.926 C66.976,46.832 43.439,48.191 43.439,48.191 L41.628,1.023" id="Fill-7" fill="#E4E5E3" sketch:type="MSShapeGroup"></path>
            <path d="M33.496,21.846 C33.496,21.846 37.464,42.486 38.822,47.193 L28.593,48.191 L27.193,21.846 L33.496,21.846" id="Fill-8" fill="#E4E5E3" sketch:type="MSShapeGroup"></path>
            <path d="M28.592,49.724 C27.771,49.724 27.092,49.074 27.062,48.247 L25.577,7.235 C25.546,6.39 26.207,5.679 27.052,5.648 C27.919,5.62 28.608,6.279 28.639,7.124 L30.124,48.136 C30.155,48.981 29.494,49.692 28.649,49.723 L28.592,49.724" id="Fill-9" fill="#4D4D4C" sketch:type="MSShapeGroup"></path>
            <path d="M43.257,51.261 C42.448,51.261 41.771,50.627 41.728,49.81 L39.193,1.829 C39.148,0.984 39.797,0.263 40.642,0.218 C41.498,0.169 42.208,0.822 42.253,1.667 L44.789,49.648 C44.833,50.493 44.184,51.214 43.339,51.259 L43.257,51.261" id="Fill-10" fill="#4D4D4C" sketch:type="MSShapeGroup"></path>
        </g>
    </g>
</svg>