<?xml version="1.0" encoding="UTF-8" standalone="no"?>
<svg width="46px" height="58px" viewBox="0 0 46 58" version="1.1" xmlns="http://www.w3.org/2000/svg" xmlns:xlink="http://www.w3.org/1999/xlink" xmlns:sketch="http://www.bohemiancoding.com/sketch/ns">
    <!-- Generator: Sketch 3.0 (7574) - http://www.bohemiancoding.com/sketch -->
    <title>bateaux-03</title>
    <description>Created with Sketch.</description>
    <defs></defs>
    <g id="Page-1" stroke="none" stroke-width="1" fill="none" fill-rule="evenodd" sketch:type="MSPage">
        <g id="bateaux-03" sketch:type="MSLayerGroup" transform="translate(1.000000, 1.000000)">
            <path d="M36.267,42.023 C36.267,42.023 24.441,42.922 19.224,43.102 C14.007,43.282 0.698,42.023 0.698,42.023 C1.237,42.203 4.115,47.598 4.115,47.598 C4.115,47.598 9.754,48.297 15.956,48.678 L15.956,55.142 L19.751,55.171 L19.814,48.875 C28.345,48.869 36.267,47.598 36.267,47.598 L36.267,42.023" id="Fill-2" fill="#4D4D4C" sketch:type="MSShapeGroup"></path>
            <path d="M16.978,54.128 L18.74,54.142 L18.792,48.865 C18.798,48.306 19.253,47.854 19.813,47.854 C26.557,47.849 32.979,47.036 35.246,46.716 L35.246,43.123 C32.183,43.35 23.502,43.977 19.259,44.123 C15.301,44.255 6.877,43.591 2.841,43.241 C3.325,44.036 3.949,45.132 4.764,46.647 C6.3,46.826 11,47.351 16.019,47.659 C16.558,47.692 16.978,48.138 16.978,48.678 L16.978,54.128 L16.978,54.128 Z M19.751,56.193 L19.744,56.193 L15.949,56.164 C15.388,56.159 14.935,55.703 14.935,55.142 L14.935,49.636 C9.154,49.248 4.043,48.619 3.989,48.612 C3.659,48.571 3.37,48.372 3.213,48.079 C2.064,45.924 0.593,43.377 0.147,42.884 C-0.203,42.66 -0.391,42.236 -0.302,41.812 C-0.194,41.304 0.277,40.959 0.794,41.006 C0.917,41.018 14.073,42.254 19.189,42.081 C24.325,41.904 36.072,41.013 36.189,41.004 C36.472,40.979 36.752,41.081 36.961,41.274 C37.17,41.467 37.289,41.739 37.289,42.023 L37.289,47.598 C37.289,48.1 36.924,48.527 36.429,48.607 C36.352,48.619 28.953,49.791 20.825,49.89 L20.773,55.182 C20.767,55.742 20.311,56.193 19.751,56.193 L19.751,56.193 Z" id="Fill-3" fill="#4D4D4C" sketch:type="MSShapeGroup"></path>
            <path d="M39.01,42.023 L39.01,47.961 L41.9,50.69 L43.986,49.407 L39.01,42.023" id="Fill-4" fill="#4D4D4C" sketch:type="MSShapeGroup"></path>
            <path d="M39.924,47.567 L42.018,49.545 L42.696,49.127 L39.924,45.013 L39.924,47.567 L39.924,47.567 Z M41.9,51.604 C41.673,51.604 41.447,51.519 41.273,51.354 L38.383,48.625 C38.2,48.453 38.097,48.213 38.097,47.961 L38.097,42.023 C38.097,41.621 38.359,41.267 38.743,41.149 C39.127,41.032 39.542,41.179 39.768,41.512 L44.744,48.896 C44.882,49.102 44.931,49.357 44.879,49.6 C44.826,49.843 44.676,50.054 44.464,50.185 L42.378,51.468 C42.231,51.559 42.065,51.604 41.9,51.604 L41.9,51.604 Z" id="Fill-5" fill="#4D4D4C" sketch:type="MSShapeGroup"></path>
            <path d="M6.273,38.246 L6.273,11.264 L20.456,-0.248 L29.657,11.984 L36.267,38.964 L6.273,38.246" id="Fill-6" fill="#E4E5E3" sketch:type="MSShapeGroup"></path>
            <path d="M20.456,43.555 C19.61,43.555 18.924,42.869 18.924,42.023 L18.924,40.497 L5.554,40.497 C4.708,40.497 4.022,39.81 4.022,38.964 L4.022,11.264 C4.022,10.418 4.708,9.732 5.554,9.732 C6.4,9.732 7.086,10.418 7.086,11.264 L7.086,37.432 L20.456,37.432 C21.303,37.432 21.989,38.118 21.989,38.964 L21.989,42.023 C21.989,42.869 21.303,43.555 20.456,43.555" id="Fill-7" fill="#4D4D4C" sketch:type="MSShapeGroup"></path>
        </g>
    </g>
</svg>