<?xml version="1.0" encoding="UTF-8" standalone="no"?>
<svg width="57px" height="46px" viewBox="0 0 57 46" version="1.1" xmlns="http://www.w3.org/2000/svg" xmlns:xlink="http://www.w3.org/1999/xlink" xmlns:sketch="http://www.bohemiancoding.com/sketch/ns">
    <!-- Generator: Sketch 3.0 (7574) - http://www.bohemiancoding.com/sketch -->
    <title>bateaux-02</title>
    <description>Created with Sketch.</description>
    <defs></defs>
    <g id="Page-1" stroke="none" stroke-width="1" fill="none" fill-rule="evenodd" sketch:type="MSPage">
        <g id="bateaux-02" sketch:type="MSLayerGroup" transform="translate(0.000000, 1.000000)">
            <path d="M55.527,31.898 C53.636,32.929 44.013,37.904 29.405,36.706 L20.984,35.679 L21.155,31.726 C21.155,31.726 15.312,33.101 12.218,31.039 C9.124,28.976 8.093,28.46 8.093,28.46 L4.312,30.007 C5.031,30.726 6.782,33.324 9.739,35.933 C9.932,36.103 10.142,36.273 10.345,36.443 L7.162,40.463 L11.089,42.088 L13.819,38.904 C15.861,40.113 18.232,41.135 20.984,41.695 C31.123,43.756 47.107,43.756 48.998,42.725 C50.888,41.695 56.043,36.882 55.527,31.898" id="Fill-2" fill="#4D4D4C" sketch:type="MSShapeGroup"></path>
            <path d="M13.819,37.882 C13.998,37.882 14.177,37.929 14.339,38.025 C16.549,39.333 18.789,40.206 21.187,40.694 C27.305,41.938 35.334,42.381 40.809,42.381 L40.81,42.381 C45.671,42.381 48.078,42.05 48.51,41.828 C50.115,40.953 53.867,37.355 54.461,33.584 C50.831,35.304 43.709,37.912 33.892,37.912 C32.383,37.912 30.846,37.849 29.321,37.724 L20.86,36.693 C20.331,36.628 19.94,36.168 19.963,35.635 L20.079,32.96 C19.286,33.079 18.203,33.196 17.034,33.196 C14.764,33.197 12.954,32.756 11.651,31.889 C9.682,30.576 8.56,29.899 8.027,29.591 L5.998,30.421 C6.949,31.599 8.381,33.372 10.415,35.167 C10.545,35.281 10.683,35.396 10.822,35.511 L11,35.659 C11.425,36.015 11.49,36.643 11.146,37.077 L8.802,40.037 L10.796,40.861 L13.043,38.239 C13.243,38.006 13.529,37.882 13.819,37.882 L13.819,37.882 Z M40.81,44.424 L40.809,44.424 C35.235,44.424 27.046,43.97 20.78,42.696 C18.461,42.224 16.2,41.389 14.046,40.208 L11.865,42.753 C11.577,43.088 11.107,43.201 10.699,43.032 L6.771,41.407 C6.475,41.285 6.253,41.03 6.173,40.72 C6.092,40.41 6.162,40.081 6.361,39.829 L8.932,36.582 C6.828,34.704 5.31,32.822 4.396,31.689 C4.054,31.264 3.758,30.897 3.59,30.729 C3.348,30.487 3.244,30.141 3.311,29.806 C3.378,29.471 3.609,29.191 3.926,29.062 L7.706,27.515 C7.979,27.404 8.287,27.415 8.55,27.547 C8.595,27.569 9.674,28.115 12.785,30.188 C13.731,30.82 15.201,31.154 17.034,31.154 C19.092,31.153 20.903,30.736 20.921,30.731 C21.232,30.658 21.56,30.736 21.806,30.94 C22.052,31.144 22.189,31.451 22.175,31.77 L22.045,34.779 L29.528,35.691 C30.958,35.808 32.439,35.869 33.892,35.869 C44.922,35.869 52.354,32.465 55.038,31.001 C55.337,30.837 55.7,30.835 56.002,30.994 C56.305,31.153 56.508,31.453 56.543,31.793 C57.1,37.176 51.793,42.365 49.486,43.622 C48.271,44.285 44.098,44.424 40.81,44.424 L40.81,44.424 Z" id="Fill-3" fill="#4D4D4C" sketch:type="MSShapeGroup"></path>
            <path d="M51.048,8.09 L51.048,31.93 L34.658,30.304 L35.742,26.241 L37.096,25.564 L37.638,22.177 L38.585,22.177 L39.398,18.384 L40.889,18.114 L41.702,14.592 L42.853,14.321 L44.953,9.726 L47.119,9.726 L49.287,8.09 L51.048,8.09" id="Fill-4" fill="#E4E5E3" sketch:type="MSShapeGroup"></path>
            <path d="M34.658,1.724 L28.8,4.175 L25.718,4.297 L23.488,7.768 L21.791,8.09 L21.384,10.659 L19.428,11.849 L18.649,17.464 L17.591,17.64 C17.591,18.453 16.914,23.184 16.914,23.184 L15.831,23.184 C15.831,23.938 15.728,29.371 15.728,29.371 L15.153,30.075 L35.335,33.555 L34.658,1.724" id="Fill-5" fill="#E4E5E3" sketch:type="MSShapeGroup"></path>
            <path d="M10.75,12.696 C10.344,12.966 7.704,13.262 7.704,13.262 L7.162,15.133 L4.312,15.866 L4.312,17.64 L2.962,17.64 L2.962,20.687 L1.879,20.687 L1.879,23.184 L1.066,23.184 L1.066,25.157 L0.389,26.375 L10.142,27.189 L10.75,12.696" id="Fill-6" fill="#E4E5E3" sketch:type="MSShapeGroup"></path>
            <path d="M10.75,31.607 C9.904,31.607 9.218,30.921 9.218,30.075 L9.218,12.696 C9.218,11.85 9.904,11.164 10.75,11.164 C11.597,11.164 12.283,11.85 12.283,12.696 L12.283,30.075 C12.283,30.921 11.597,31.607 10.75,31.607" id="Fill-7" fill="#4D4D4C" sketch:type="MSShapeGroup"></path>
            <path d="M35.335,38.359 C34.489,38.359 33.803,37.673 33.803,36.827 L33.803,1.036 C33.803,0.189 34.489,-0.497 35.335,-0.497 C36.182,-0.497 36.868,0.189 36.868,1.036 L36.868,36.827 C36.868,37.673 36.182,38.359 35.335,38.359" id="Fill-8" fill="#4D4D4C" sketch:type="MSShapeGroup"></path>
            <path d="M51.048,38.879 C50.202,38.879 49.516,38.193 49.516,37.347 L49.516,9.022 C49.516,8.176 50.202,7.49 51.048,7.49 C51.895,7.49 52.581,8.176 52.581,9.022 L52.581,37.347 C52.581,38.193 51.895,38.879 51.048,38.879" id="Fill-9" fill="#4D4D4C" sketch:type="MSShapeGroup"></path>
        </g>
    </g>
</svg>