<svg xmlns="http://www.w3.org/2000/svg" viewBox='0 0 174.713 46.125' preserveAspectRatio='xMinYMin meet'>
    <path d="M32.905 3.87V15.5h3.548c.76 0 1.478-.15 2.15-.456.675-.305 1.266-.72 1.775-1.243.51-.522.914-1.14 1.213-1.844.3-.707.45-1.463.45-2.268 0-.816-.15-1.578-.447-2.286-.298-.706-.702-1.32-1.212-1.845-.51-.525-1.102-.936-1.78-1.235-.68-.3-1.395-.45-2.144-.45h-3.548zM29.182 28.8V1.933c0-.268.047-.52.14-.76.093-.236.226-.444.395-.62.17-.177.366-.315.59-.412.22-.094.467-.143.737-.143h5.41c.842 0 1.66.115 2.45.347.79.232 1.53.56 2.22.988.692.427 1.324.936 1.9 1.528.572.59 1.06 1.246 1.464 1.965.405.72.72 1.49.95 2.313.227.823.34 1.674.34 2.552 0 2.657-.918 4.943-2.755 6.857-1.816 1.89-4.005 2.834-6.57 2.834h-3.548v9.42c0 .538-.182.994-.544 1.37-.36.38-.8.57-1.314.57-.516 0-.955-.19-1.318-.568-.363-.377-.544-.834-.544-1.37m28.908-9.32c-.867 0-1.675.17-2.424.512-.75.342-1.4.802-1.95 1.38-.55.58-.986 1.26-1.308 2.04-.323.78-.483 1.61-.483 2.486 0 .88.16 1.707.483 2.488.322.78.758 1.46 1.308 2.04.55.577 1.2 1.04 1.95 1.38.75.34 1.557.51 2.424.51.854 0 1.657-.17 2.406-.51.75-.34 1.402-.805 1.958-1.39.557-.586.996-1.266 1.318-2.04.322-.773.483-1.6.483-2.478 0-.877-.16-1.703-.483-2.477-.322-.774-.76-1.454-1.318-2.04-.556-.585-1.21-1.047-1.958-1.39-.75-.34-1.552-.51-2.406-.51zm9.836 6.418c0 2.854-.96 5.267-2.88 7.242-1.945 2-4.263 3-6.956 3-2.718 0-5.035-1-6.955-3s-2.88-4.412-2.88-7.242c0-2.827.96-5.24 2.88-7.24s4.237-3 6.955-3c2.693 0 5.01 1 6.955 3 .96 1 1.677 2.103 2.152 3.31.47 1.206.714 2.517.726 3.93m6.412-8.964v.824c.88-.732 1.832-1.292 2.863-1.682 1.034-.39 2.134-.585 3.305-.585.516 0 1.07.036 1.66.11.59.072 1.136.203 1.633.392.498.19.91.45 1.24.778.326.33.49.756.49 1.28 0 .268-.05.518-.148.75-.1.23-.233.435-.397.61-.164.18-.357.316-.58.414-.222.097-.462.146-.72.146-.222 0-.48-.068-.772-.2-.74-.306-1.54-.46-2.405-.46-.854 0-1.657.17-2.406.504-.75.336-1.403.793-1.96 1.37-.557.58-.995 1.26-1.32 2.04-.32.78-.48 1.616-.48 2.506v8.507c0 .524-.18.972-.536 1.343-.358.374-.788.56-1.29.56-.516 0-.952-.186-1.31-.56-.357-.37-.535-.82-.535-1.343V16.936c0-.524.177-.972.535-1.344.357-.372.793-.558 1.308-.558.503 0 .933.186 1.29.558.358.372.536.82.536 1.344m14.98-1.276h.825V1.897c0-.524.18-.972.538-1.344.356-.372.793-.557 1.308-.557.506 0 .936.185 1.29.557.36.372.54.82.54 1.344v13.765h2.194c.504 0 .93.186 1.283.558.35.372.527.82.527 1.345 0 .535-.177.99-.527 1.362-.352.37-.78.557-1.283.557H93.82v9.2c0 2.425 1.17 3.637 3.513 3.637.504 0 .93.186 1.282.56.352.37.527.82.527 1.343 0 .538-.175.992-.527 1.363-.35.374-.778.56-1.28.56-4.792 0-7.187-2.49-7.187-7.462v-9.198h-.825c-.49 0-.915-.186-1.272-.557-.356-.374-.534-.828-.534-1.364 0-.524.178-.972.535-1.344.358-.37.784-.556 1.274-.556M112.56 3.834c-3.234 0-4.85 1.677-4.85 5.03v6.587h3.532c.502 0 .932.188 1.29.56.356.37.536.82.536 1.344 0 .536-.18.99-.536 1.363-.358.37-.788.557-1.29.557h-3.53V34.24c0 .256-.048.5-.142.73-.094.232-.223.437-.386.613-.164.177-.358.315-.582.413-.22.097-.46.146-.718.146-.258 0-.498-.05-.72-.146-.224-.098-.417-.236-.58-.413-.164-.176-.293-.38-.386-.613-.094-.23-.142-.474-.142-.73V19.272h-.842c-.527 0-.963-.183-1.31-.55-.344-.365-.516-.822-.516-1.37 0-.55.172-1.003.517-1.363.346-.36.78-.54 1.31-.54h.84V8.863c0-5.9 2.836-8.85 8.504-8.85.5 0 .93.185 1.29.556.354.373.533.82.533 1.346 0 .536-.18.99-.536 1.362-.36.372-.79.558-1.29.558m12.983 15.646c-.87 0-1.677.17-2.426.512-.75.342-1.4.802-1.95 1.38-.55.58-.986 1.26-1.31 2.04-.32.78-.482 1.61-.482 2.486 0 .88.16 1.707.483 2.488.323.78.76 1.46 1.31 2.04.55.577 1.2 1.04 1.95 1.38.748.34 1.556.51 2.424.51.85 0 1.653-.17 2.4-.51.75-.34 1.404-.805 1.96-1.39.556-.586.996-1.266 1.32-2.04.32-.773.48-1.6.48-2.478 0-.877-.16-1.703-.482-2.477-.324-.774-.763-1.454-1.32-2.04-.555-.585-1.21-1.047-1.96-1.39-.746-.34-1.55-.51-2.402-.51zm9.834 6.418c0 2.854-.96 5.267-2.88 7.242-1.945 2-4.263 3-6.955 3-2.72 0-5.04-1-6.96-3s-2.88-4.412-2.88-7.242c0-2.827.96-5.24 2.88-7.24s4.24-3 6.957-3c2.69 0 5.01 1 6.954 3 .96 1 1.678 2.103 2.15 3.31.476 1.206.718 2.517.73 3.93m2.637 8.34V1.915c0-.537.173-.99.52-1.363.344-.372.78-.557 1.308-.557.526 0 .963.185 1.31.557.343.372.516.826.516 1.363V32.32h.846c.505 0 .935.183 1.29.557.357.37.537.825.537 1.362 0 .522-.18.97-.535 1.34-.356.375-.786.56-1.29.56h-2.687c-.504 0-.93-.185-1.283-.56-.35-.37-.526-.82-.526-1.342m9.587-.018V16.956c0-.537.18-.99.537-1.363.356-.372.787-.558 1.29-.558s.933.186 1.29.558c.358.372.543.826.555 1.363V34.22c-.015.538-.2.992-.557 1.363-.358.374-.788.56-1.29.56-.504 0-.935-.186-1.29-.56-.357-.37-.537-.825-.537-1.362zm3.99-27.834c0 .62-.213 1.15-.633 1.59-.423.44-.93.66-1.53.66-.596 0-1.106-.22-1.528-.66-.422-.44-.63-.97-.63-1.59 0-.622.208-1.153.63-1.592.422-.438.932-.658 1.53-.658.597 0 1.105.22 1.528.658.42.44.632.97.632 1.592m13.294 13.096c-.865 0-1.674.17-2.423.512-.75.342-1.398.802-1.95 1.38-.55.58-.986 1.26-1.308 2.04-.324.78-.486 1.61-.486 2.486 0 .88.16 1.707.483 2.488.32.78.758 1.46 1.308 2.04.55.577 1.2 1.04 1.95 1.38.748.34 1.557.51 2.423.51.855 0 1.656-.17 2.405-.51.75-.34 1.404-.805 1.96-1.39.555-.586.994-1.266 1.316-2.04.323-.773.484-1.6.484-2.478 0-.877-.16-1.703-.484-2.477-.32-.774-.76-1.454-1.316-2.04-.555-.585-1.208-1.047-1.96-1.39-.748-.34-1.55-.51-2.404-.51zm9.837 6.418c0 2.854-.96 5.267-2.88 7.242-1.943 2-4.262 3-6.956 3-2.714 0-5.032-1-6.952-3s-2.88-4.412-2.88-7.242c0-2.827.96-5.24 2.88-7.24s4.238-3 6.955-3c2.695 0 5.014 1 6.957 3 .96 1 1.677 2.103 2.15 3.31.473 1.206.72 2.517.73 3.93" fill="#393536"/>
    <path d="M5.918 21.893c.347-.498.76-.93 1.232-1.284.473-.36 1-.64 1.568-.835 1.126-.39 2.365-.39 3.478 0 .56.196 1.082.475 1.55.83.467.355.883.79 1.237 1.29.188.266.353.55.493.85H5.434c.135-.3.297-.586.484-.854zm22.59-.115c-1.098-1.104-2.883-1.11-3.986-.01-1.104 1.095-1.11 2.88-.01 3.983l5.266 5.3H10.255c-.53-.02-1.05-.1-1.544-.275-.56-.197-1.08-.477-1.546-.83-.468-.356-.88-.788-1.227-1.288-.187-.267-.35-.553-.488-.85h13.006c.684 0 1.273-.245 1.753-.726.476-.482.717-1.09.717-1.804 0-1.486-.258-2.89-.765-4.172-.51-1.284-1.28-2.465-2.293-3.506-2.057-2.116-4.55-3.19-7.405-3.19-2.88 0-5.372 1.074-7.406 3.192C1.026 19.71 0 22.29 0 25.273c0 2.983 1.028 5.564 3.056 7.675 1.99 2.073 4.368 3.124 7.066 3.124.125 0 .224-.025.335-.038l19.33.022-5.208 5.266c-1.098 1.108-1.087 2.89.02 3.986.55.542 1.265.813 1.98.813.727 0 1.453-.277 2.004-.835L40.2 33.54 28.507 21.778" fill="#92ca1e"/>
</svg>
