<?xml version="1.0" encoding="UTF-8" standalone="no"?>
<!-- Created with Inkscape (http://www.inkscape.org/) -->

<svg
   xmlns:dc="http://purl.org/dc/elements/1.1/"
   xmlns:cc="http://creativecommons.org/ns#"
   xmlns:rdf="http://www.w3.org/1999/02/22-rdf-syntax-ns#"
   xmlns:svg="http://www.w3.org/2000/svg"
   xmlns="http://www.w3.org/2000/svg"
   xmlns:sodipodi="http://sodipodi.sourceforge.net/DTD/sodipodi-0.dtd"
   xmlns:inkscape="http://www.inkscape.org/namespaces/inkscape"
   id="svg2"
   version="1.1"
   inkscape:version="0.48.5 r10040"
   width="260"
   height="260"
   xml:space="preserve"
   sodipodi:docname="favicon.svg"><metadata
     id="metadata8"><rdf:RDF><cc:Work
         rdf:about=""><dc:format>image/svg+xml</dc:format><dc:type
           rdf:resource="http://purl.org/dc/dcmitype/StillImage" /><dc:title></dc:title></cc:Work></rdf:RDF></metadata><defs
     id="defs6" /><sodipodi:namedview
     pagecolor="#ffffff"
     bordercolor="#666666"
     borderopacity="1"
     objecttolerance="10"
     gridtolerance="10"
     guidetolerance="10"
     inkscape:pageopacity="0"
     inkscape:pageshadow="2"
     inkscape:window-width="1362"
     inkscape:window-height="723"
     id="namedview4"
     showgrid="false"
     inkscape:zoom="0.83980632"
     inkscape:cx="59.738766"
     inkscape:cy="31.273752"
     inkscape:window-x="4"
     inkscape:window-y="0"
     inkscape:window-maximized="1"
     inkscape:current-layer="g10"
     fit-margin-top="0"
     fit-margin-left="0"
     fit-margin-right="0"
     fit-margin-bottom="0" /><g
     id="g10"
     inkscape:groupmode="layer"
     inkscape:label="ink_ext_XXXXXX"
     transform="matrix(1.25,0,0,-1.25,0,260)"><g
       id="g3038"
       transform="scale(5.6361996,5.6361996)"><path
         d="m 26.3238,33.8031 0,-9.3043 2.8387,0 c 0.6086,0 1.182,0.1219 1.7207,0.366 0.5391,0.2438 1.0117,0.575 1.4195,0.9946 0.4078,0.4195 0.7309,0.9117 0.97,1.4777 0.2386,0.5652 0.3578,1.1703 0.3578,1.8137 0,0.6535 -0.1192,1.2629 -0.3578,1.8289 -0.2391,0.5656 -0.5622,1.0578 -0.97,1.4773 -0.4078,0.4196 -0.8828,0.7485 -1.4261,0.9879 -0.5438,0.2383 -1.1149,0.3582 -1.7141,0.3582 l -2.8387,0 z m -2.9785,-19.9418 0,21.4926 c 0,0.2141 0.0375,0.4168 0.1121,0.6066 0.0746,0.1903 0.1809,0.3563 0.316,0.4981 0.1364,0.1406 0.293,0.2508 0.4711,0.3285 0.1778,0.0781 0.3746,0.1172 0.5907,0.1172 l 4.3273,0 c 0.6742,0 1.3277,-0.0922 1.9602,-0.2777 0.6324,-0.1856 1.2246,-0.4489 1.7773,-0.7903 0.5527,-0.341 1.0586,-0.7484 1.518,-1.2215 0.4586,-0.4734 0.8496,-0.9972 1.1726,-1.5722 0.3235,-0.5758 0.5766,-1.1926 0.759,-1.8508 0.1824,-0.6582 0.2738,-1.3387 0.2738,-2.041 0,-2.1258 -0.7351,-3.9551 -2.2054,-5.486 -1.4524,-1.5121 -3.2039,-2.2671 -5.2555,-2.2671 l -2.8387,0 0,-7.5364 c 0,-0.4297 -0.1453,-0.7949 -0.4351,-1.0976 -0.2907,-0.3028 -0.6422,-0.4532 -1.0535,-0.4532 -0.4129,0 -0.7637,0.1504 -1.0543,0.4532 -0.2907,0.3027 -0.4356,0.6679 -0.4356,1.0976"
         style="fill:#393536;fill-opacity:1;fill-rule:nonzero;stroke:none"
         id="path14"
         inkscape:connector-curvature="0" /><path
         d="m 4.73438,19.3855 c 0.27734,0.3981 0.60898,0.7438 0.98593,1.027 0.37813,0.2848 0.80039,0.509 1.2543,0.666 0.90039,0.3125 1.89141,0.3129 2.78242,4e-4 0.44807,-0.157 0.86527,-0.3809 1.23907,-0.6648 0.3746,-0.284 0.7074,-0.6313 0.9902,-1.0317 0.1508,-0.2129 0.2828,-0.4406 0.3946,-0.6797 l -8.03363,0 c 0.1082,0.2403 0.2375,0.4688 0.38711,0.6828 z m 18.07152,0.0918 c -0.8782,0.8836 -2.3055,0.8883 -3.1883,0.0094 -0.8828,-0.8773 -0.8871,-2.3047 -0.009,-3.1879 l 4.2137,-4.239 -15.61839,0 c -0.425,0.0164 -0.84102,0.0828 -1.23477,0.2215 -0.45,0.1582 -0.86719,0.382 -1.23984,0.664 C 5.35508,13.2305 5.025,13.5762 4.74805,13.9758 4.59844,14.1895 4.46836,14.418 4.35742,14.657 l 10.40588,0 c 0.5472,0 1.0187,0.1946 1.4027,0.5801 0.3809,0.3852 0.5738,0.8703 0.5738,1.4426 0,1.1894 -0.2062,2.3121 -0.6121,3.3375 -0.4066,1.0277 -1.0238,1.9723 -1.8347,2.8055 -1.6453,1.6925 -3.6387,2.5507 -5.92347,2.5507 -2.30469,0 -4.29765,-0.8586 -5.925,-2.5527 C 0.822266,21.1324 0,19.066 0,16.6797 0,14.2938 0.822266,12.2285 2.44453,10.5398 4.03711,8.88086 5.93945,8.03984 8.09766,8.03984 c 0.09961,0 0.17929,0.01993 0.26757,0.03047 L 23.8285,8.05273 19.6633,3.83906 C 18.7875,2.95313 18.7961,1.52656 19.6813,0.650391 20.1207,0.216797 20.6934,0 21.266,0 c 0.5813,0 1.1621,0.222656 1.6031,0.66875 l 9.2911,9.39765 -9.3543,9.4109"
         style="fill:#92ca1e;fill-opacity:1;fill-rule:nonzero;stroke:none"
         id="path32"
         inkscape:connector-curvature="0" /></g></g></svg>