<?xml version="1.0" encoding="utf-8"?>
<!-- Generator: Adobe Illustrator 15.1.0, SVG Export Plug-In . SVG Version: 6.00 Build 0)  -->
<!DOCTYPE svg PUBLIC "-//W3C//DTD SVG 1.1//EN" "http://www.w3.org/Graphics/SVG/1.1/DTD/svg11.dtd">
<svg version="1.1" id="Calque_1" xmlns="http://www.w3.org/2000/svg" xmlns:xlink="http://www.w3.org/1999/xlink" x="0px" y="0px"
	 width="101.658px" height="116.776px" viewBox="0 0 101.658 116.776" enable-background="new 0 0 101.658 116.776"
	 xml:space="preserve">
<g>
	<g>
		<g>
			<path fill="#FFFFFF" d="M11.683,16.899"/>
			<polyline fill="#FFFFFF" points="12.79,106.063 93.332,92.146 86.277,45.588 			"/>
			<path fill="#E5E5E5" d="M0,101.304l12.791,2.223L90.493,90.1l-6.742-44.495l0.05-0.358L90.028,0l5.046,0l-6.271,45.57
				l7.367,48.623l-83.382,14.407l-12.79-2.223 M0,11.384l11.652,2.93L63.425,0h18.765L11.713,19.485L0,16.54"/>
		</g>
	</g>
	<g>
		<g>
			<path fill="#E5E5E5" d="M0,57.2l7.21,1.313l2.87,47.08l2.71,0.471L9.546,58.507l37.768-6.358
				c-0.224-0.776-0.36-1.544-0.395-2.308l-37.362,6.3l2.126-39.241l-2.25-0.566L7.227,56.151l-7.225-1.316"/>
		</g>
		<g>
			<path fill="#E5E5E5" d="M76.608,44.835c0.236,0.74,0.404,1.509,0.526,2.292l9.143-1.539l0.335-2.439L76.608,44.835z"/>
		</g>
	</g>
	<g>
		<g>
			<circle fill="#E5E5E5" cx="29.936" cy="78.37" r="3.529"/>
		</g>
		<g>
			<path fill="#E5E5E5" d="M29.936,83.45c-2.802,0-5.081-2.278-5.081-5.08c0-2.801,2.279-5.08,5.081-5.08s5.081,2.279,5.081,5.08
				C35.017,81.172,32.737,83.45,29.936,83.45z M29.936,76.393c-1.091,0-1.979,0.888-1.979,1.978c0,1.091,0.888,1.978,1.979,1.978
				s1.979-0.887,1.979-1.978C31.914,77.28,31.026,76.393,29.936,76.393z"/>
		</g>
	</g>
	<g>
		<g>
			<circle fill="#E5E5E5" cx="62.117" cy="78.37" r="3.53"/>
		</g>
		<g>
			<path fill="#E5E5E5" d="M62.117,83.45c-2.802,0-5.081-2.278-5.081-5.08c0-2.801,2.279-5.08,5.081-5.08s5.081,2.279,5.081,5.08
				C67.198,81.172,64.919,83.45,62.117,83.45z M62.117,76.393c-1.091,0-1.979,0.888-1.979,1.978c0,1.091,0.888,1.978,1.979,1.978
				s1.979-0.887,1.979-1.978C64.096,77.28,63.208,76.393,62.117,76.393z"/>
		</g>
	</g>
	<g>
		<g>
			<path fill="#E5E5E5" d="M67.177,77.949c7.379-1.975,15.093-4.874,23.14-8.722l-1.337-2.8c-8.023,3.836-15.698,6.712-23.016,8.633
				C66.644,75.851,67.086,76.851,67.177,77.949z"/>
		</g>
		<g>
			<path fill="#E5E5E5" d="M57.036,78.37c0-0.502,0.076-0.986,0.212-1.444c-7.929,1.294-15.396,1.373-22.385,0.229
				c0.097,0.391,0.153,0.797,0.153,1.216c0,0.676-0.135,1.318-0.375,1.908c7.111,1.131,14.68,1.063,22.692-0.212
				C57.145,79.536,57.036,78.966,57.036,78.37z"/>
		</g>
		<g>
			<path fill="#E5E5E5" d="M-0.003,61.911c2.446,2.312,4.865,4.485,7.363,6.437c5.424,4.232,11.269,7.404,17.52,9.527
				c0.106-1.097,0.567-2.09,1.261-2.871c-6.036-2.01-11.665-5.039-16.872-9.103C6.158,63.473,3.13,60.643,0,57.623"/>
		</g>
	</g>
	<g>
		<g>
			<g>
				<path fill="#E5E5E5" d="M62.118,34.247c-8.392,0-15.217,6.828-15.217,15.216c0,7.879,11.388,16.404,14.681,26.931
					c0.073,0.228,0.285,0.382,0.522,0.381c0.24-0.004,0.449-0.161,0.516-0.389c3.194-10.785,14.712-19.035,14.714-26.923
					C77.332,41.075,70.507,34.247,62.118,34.247z"/>
			</g>
		</g>
		<g>
			<g>
				<path fill="#E5E5E5" d="M62.118,56.782c-4.252,0-7.71-3.459-7.71-7.709s3.458-7.711,7.71-7.711
					c4.248,0.001,7.706,3.461,7.706,7.711S66.366,56.782,62.118,56.782z"/>
			</g>
		</g>
	</g>
</g>
</svg>
