<svg xmlns="http://www.w3.org/2000/svg" width="100" height="100" viewBox="0 0 100 99.999999"><path d="M58.417 0L10.734 13.18 0 10.475v4.748l8.547 2.158.144-2.33 2.073.518-.116 2.36.144.03L75.684 0H58.417zm-47.77 17.928l-2.1-.547-1.9 34.332L0 50.504v2.158l6.647 1.208.346 5.554c-2.33-1.936-4.63-4.08-6.993-6.36v3.943c2.252 2.13 4.49 4.13 6.79 5.928.144.112.29.207.433.317L9.15 94.878l2.447.43L9.525 64.95c4.204 2.9 8.67 5.162 13.38 6.762-.013.148-.027.31-.027.46 0 2.58 2.11 4.663 4.69 4.663 1.957 0 3.65-1.197 4.346-2.907 6.55 1.04 13.513.973 20.892-.2.644 1.812 2.37 3.107 4.403 3.107 2.58 0 4.66-2.082 4.66-4.662 0-.16-.012-.333-.028-.49.003.03.026.056.03.087 6.006-1.61 12.245-3.867 18.732-6.82l2.734 18.014L11.77 95.338l-.173-.03.173 2.36-2.475-.43-.144-2.36L0 93.295v4.662L11.77 100l76.806-13.266-6.792-44.777L87.54 0h-4.634L77.38 40.144l-6.82 1.15c-1.803-5.654-7.106-9.754-13.35-9.754-7.73 0-14.016 6.29-14.016 14.014 0 .113-.005.232 0 .345L8.806 51.682l1.84-33.755zM57.21 38.1c3.91 0 7.078 3.166 7.078 7.08s-3.168 7.108-7.08 7.108c-3.915 0-7.107-3.194-7.107-7.108 0-3.914 3.193-7.08 7.11-7.08zm19.97 4.26l2.964 19.626c-6.74 3.113-13.204 5.51-19.396 7.136-.55-.638-1.28-1.113-2.1-1.38 3.796-8.673 12.573-15.577 12.575-22.188 0-.735-.092-1.454-.2-2.158l6.157-1.036zm-33.612 5.67c1.706 5.892 8.74 12.26 12.115 19.71-1.427.49-2.533 1.657-2.964 3.11-7.303 1.19-14.17 1.253-20.605.2-.502-2.04-2.352-3.568-4.547-3.568-1.57 0-2.95.797-3.798 1.986.096-.135.178-.28.288-.403-5.28-1.76-10.2-4.362-14.792-7.828l-.49-7.367 34.792-5.84zm17.928 22.3c.102.235.168.47.23.72.04.164.064.32.087.49-.023-.17-.046-.327-.086-.49-.06-.24-.135-.495-.23-.72zm-8.805.605c-.05.183-.086.356-.114.547.027-.19.065-.365.115-.547zm-.172 1.238c0 .485.093.943.23 1.38-.137-.438-.23-.897-.23-1.38z" fill="#e5e5e5"/></svg>