<svg xmlns="http://www.w3.org/2000/svg" width="101.658" height="116.776" viewBox="0 0 101.658 116.776"><path fill="#fff" d="M11.683 16.9M12.79 106.063l80.542-13.917-7.055-46.558"/><path fill="#E5E5E5" d="M0 101.304l12.79 2.223L90.494 90.1 83.75 45.605l.05-.358L90.03 0h5.046l-6.27 45.57 7.366 48.623L12.788 108.6l-12.79-2.223M0 11.384l11.652 2.93L63.425 0H82.19L11.713 19.485 0 16.54M0 57.2l7.21 1.313 2.87 47.08 2.71.47-3.244-47.556 37.768-6.358c-.224-.777-.36-1.545-.395-2.31l-37.363 6.3 2.126-39.24-2.25-.566L7.227 56.15.002 54.836"/><path fill="#E5E5E5" d="M76.608 44.835c.236.74.404 1.51.526 2.292l9.143-1.54.335-2.438-10.004 1.685z"/><circle fill="#E5E5E5" cx="29.936" cy="78.37" r="3.529"/><path fill="#E5E5E5" d="M29.936 83.45c-2.802 0-5.08-2.278-5.08-5.08 0-2.8 2.278-5.08 5.08-5.08s5.08 2.28 5.08 5.08c0 2.802-2.28 5.08-5.08 5.08zm0-7.057c-1.09 0-1.98.888-1.98 1.978 0 1.092.89 1.98 1.98 1.98s1.98-.888 1.98-1.98c-.002-1.09-.89-1.977-1.98-1.977z"/><circle fill="#E5E5E5" cx="62.117" cy="78.37" r="3.53"/><path fill="#E5E5E5" d="M62.117 83.45c-2.802 0-5.08-2.278-5.08-5.08 0-2.8 2.278-5.08 5.08-5.08s5.08 2.28 5.08 5.08c0 2.802-2.278 5.08-5.08 5.08zm0-7.057c-1.09 0-1.98.888-1.98 1.978 0 1.092.89 1.98 1.98 1.98s1.98-.888 1.98-1.98c0-1.09-.89-1.977-1.98-1.977zM67.177 77.95c7.38-1.976 15.093-4.875 23.14-8.723l-1.337-2.8c-8.023 3.836-15.698 6.712-23.016 8.633.68.79 1.122 1.79 1.213 2.89zM57.036 78.37c0-.502.076-.986.212-1.444-7.93 1.294-15.396 1.373-22.385.23.097.39.153.796.153 1.215 0 .677-.135 1.32-.375 1.91 7.112 1.13 14.68 1.062 22.693-.213-.188-.53-.297-1.1-.297-1.697zM-.003 61.91c2.446 2.313 4.865 4.486 7.363 6.438 5.424 4.232 11.27 7.404 17.52 9.527.106-1.097.567-2.09 1.26-2.87-6.035-2.01-11.664-5.04-16.87-9.104-3.112-2.427-6.14-5.257-9.27-8.277"/><path fill="#E5E5E5" d="M62.118 34.247c-8.392 0-15.217 6.828-15.217 15.216 0 7.88 11.39 16.404 14.682 26.93.073.23.285.383.522.382.24-.004.45-.16.516-.39 3.194-10.784 14.712-19.034 14.714-26.922-.002-8.388-6.827-15.216-15.216-15.216zM62.118 56.782c-4.252 0-7.71-3.46-7.71-7.71s3.458-7.71 7.71-7.71c4.248 0 7.706 3.46 7.706 7.71s-3.458 7.71-7.706 7.71z"/></svg>