<svg xmlns="http://www.w3.org/2000/svg" width="101.658" height="116.776" viewBox="0 0 101.658 116.776"><path fill="#E5E5E5" d="M0 30.372L21.59 0l21.1.002 33.435 47.1-8.768 6.19-30.45-42.875-10.59.004L0 48.85zM32.152 61.775c-11.63.003-22.58-2.914-32.155-8.058L0 70.424c9.89 4.15 20.755 6.443 32.154 6.44 22.658-.008 43.197-9.084 58.184-23.796l-10.57-10.775C67.5 54.333 50.698 61.77 32.152 61.775zM31.955 33.235c-9.982.004-19.012-4.06-25.53-10.625L.77 28.227c7.96 8.022 18.996 12.99 31.188 12.983 11.98-.002 22.832-4.802 30.754-12.574l-5.59-5.697c-6.483 6.365-15.364 10.293-25.165 10.295zM43.672 86.523l-24.42.01-.004-28.99 7.143-6.653 10.624-.004 6.652 6.65zM26.387 4.328h10.72V50.89h-10.72z"/></svg>