<svg xmlns="http://www.w3.org/2000/svg" width="101.658" height="116.776" viewBox="0 0 101.658 116.776"><path d="M21.594 0L3.312 25.72l-2.53 2.5c.146.147.288.29.437.436L0 30.376v18.468L9.47 35.03c5.063 3.022 10.79 5.042 16.905 5.814v10.03l-7.125 6.657v3.032C12.42 59.252 5.94 56.91 0 53.72v16.717c6.08 2.552 12.538 4.393 19.25 5.438V86.53h24.438V76.063c18.05-2.514 34.26-10.83 46.656-23L79.78 42.282c-1.374 1.35-2.826 2.644-4.31 3.874L42.687 0H21.593zm4.718 10.406h.063v22.406c-4.46-.69-8.617-2.235-12.375-4.406l12.313-18zm10.782.25L49.75 28.5c-3.838 2.197-8.098 3.722-12.656 4.375v-22.22zM54.406 35.03l12.282 17.314c-6.97 4.123-14.75 7.02-23.032 8.437v-3.25L37 50.876h.094v-9.97c6.277-.73 12.13-2.782 17.312-5.874z" fill="#e5e5e5"/></svg>