<?xml version="1.0" encoding="utf-8"?>
<!-- Generator: Adobe Illustrator 15.1.0, SVG Export Plug-In . SVG Version: 6.00 Build 0)  -->
<!DOCTYPE svg PUBLIC "-//W3C//DTD SVG 1.1//EN" "http://www.w3.org/Graphics/SVG/1.1/DTD/svg11.dtd">
<svg version="1.1" id="Calque_1" xmlns="http://www.w3.org/2000/svg" xmlns:xlink="http://www.w3.org/1999/xlink" x="0px" y="0px"
	 width="101.658px" height="116.776px" viewBox="0 0 101.658 116.776" enable-background="new 0 0 101.658 116.776"
	 xml:space="preserve">
<g>
	<polygon fill="#E5E5E5" points="0,30.372 21.589,0 42.689,0.002 76.125,47.101 67.357,53.293 36.906,10.417 26.318,10.421 
		0,48.851 	"/>
	<g>
		<path fill="#E5E5E5" d="M32.152,61.775c-11.631,0.003-22.58-2.914-32.155-8.058l0.002,16.707
			c9.892,4.151,20.756,6.443,32.155,6.439c22.658-0.007,43.197-9.083,58.184-23.795l-10.57-10.775
			C67.5,54.333,50.697,61.77,32.152,61.775z"/>
	</g>
	<g>
		<path fill="#E5E5E5" d="M31.955,33.235c-9.982,0.004-19.012-4.061-25.529-10.625l-5.658,5.617
			c7.959,8.022,18.996,12.989,31.188,12.983c11.979-0.002,22.832-4.802,30.754-12.574l-5.59-5.697
			C50.637,29.305,41.756,33.233,31.955,33.235z"/>
	</g>
	<polygon fill="#E5E5E5" points="43.672,86.523 19.252,86.532 19.248,57.542 26.391,50.89 37.014,50.886 43.666,57.535 	"/>
	<rect x="26.387" y="4.328" fill="#E5E5E5" width="10.721" height="46.562"/>
</g>
</svg>
