<svg xmlns="http://www.w3.org/2000/svg" width="102" height="103.3" viewBox="0 0 102 103.3"><path fill="none" d="M28.7 46.1c-.8.6-1.6 1.3-2.5 1.9-.6.5-1.2.9-1.8 1.4.9.4 1.8.8 2.7 1 1.6.5 3.3.7 5 .7 1.7 0 3.4-.3 5-.7 6.1-1.7 10.9-6.6 12.5-12.7.4-1.5.7-3.1.7-4.8 0-1.9-.3-3.8-.9-5.5-.2-.8-.5-1.5-.9-2.2-.4.5-.8 1-1.1 1.5-.6.8-1.3 1.6-1.9 2.4-3.3 4.2-6.4 7.7-7.9 9.3-1.6 1.6-4.9 4.5-8.9 7.7zM15.6 40.7c.5-.7 1-1.3 1.5-2s1-1.3 1.5-1.9c3.3-4.2 6.4-7.7 7.9-9.3 1.6-1.6 5.3-4.8 9.7-8.3.6-.5 1.2-.9 1.8-1.4.5-.4 1.1-.8 1.7-1.3-.8-.4-1.6-.7-2.5-1-1.7-.5-3.4-.8-5.3-.8-1.8 0-3.6.3-5.3.8-5.7 1.7-10.3 6.2-12.1 11.9-.6 1.7-.9 3.6-.9 5.5 0 1.6.2 3.2.7 4.8.5 1.1.9 2.1 1.3 3z"/><circle fill="none" cx="32.1" cy="33" r="2.9"/><path fill="#E5E5E5" d="M13 44.2c-4.8 6.7-8.8 13.4-8.6 16.4 3 .2 9.7-3.8 16.4-8.6 2.4 1.4 5 2.4 7.8 2.8l3.4 9.6 3.4-9.6c9.5-1.5 17-9 18.4-18.6l9.9-3.5-10-3.6c-.5-2.6-1.4-5.1-2.7-7.3 4.8-6.7 8.8-13.4 8.6-16.4-3-.2-9.7 3.8-16.4 8.6-2.3-1.4-4.8-2.3-7.5-2.8L32.1.9l-3.7 10.3c-9.2 1.5-16.4 8.7-18.1 17.9l-10 3.6 9.9 3.5c.4 2.9 1.4 5.6 2.8 8zm32.5-15c.6-.8 1.2-1.6 1.9-2.4.4-.5.8-1 1.1-1.5.3.7.6 1.5.9 2.2.6 1.7.9 3.6.9 5.5 0 1.6-.2 3.2-.7 4.8-1.7 6.1-6.4 11-12.5 12.7-1.6.5-3.3.7-5 .7-1.7 0-3.4-.3-5-.7-.9-.3-1.8-.6-2.7-1 .6-.5 1.2-.9 1.8-1.4.8-.7 1.7-1.3 2.5-1.9 4-3.2 7.4-6.1 8.9-7.6 1.5-1.7 4.6-5.2 7.9-9.4zM29.1 33c0-1.6 1.3-2.9 2.9-2.9s3 1.3 3 2.9-1.3 2.9-2.9 2.9-3-1.3-3-2.9zm-14.4-5.5c1.8-5.7 6.3-10.2 12.1-11.9 1.7-.5 3.4-.8 5.3-.8 1.8 0 3.6.3 5.3.8.9.3 1.7.6 2.5 1-.6.4-1.1.8-1.7 1.3-.6.5-1.2.9-1.8 1.4-4.4 3.4-8.1 6.6-9.7 8.3-1.6 1.6-4.6 5.1-7.9 9.3-.5.6-1 1.2-1.5 1.9s-1 1.3-1.5 2c-.4-.9-.8-1.9-1.1-2.9-.4-1.5-.7-3.1-.7-4.8-.1-2 .2-3.9.7-5.6zM88.1 33c0-12.3-4-23.7-10.8-33h-13c6.6 6.5 11.3 14.9 13.1 24.3L68.8 33l8.7 8.7C74 60.2 59.3 74.8 40.8 78.4l-8.7-8.7-8.7 8.7C14.5 76.7 6.6 72.5.3 66.5v12.7c9 6.2 20 9.9 31.8 9.9 30.9-.1 56-25.2 56-56.1z"/></svg>