<?xml version="1.0" encoding="utf-8"?>
<!-- Generator: Adobe Illustrator 15.0.0, SVG Export Plug-In . SVG Version: 6.00 Build 0)  -->
<!DOCTYPE svg PUBLIC "-//W3C//DTD SVG 1.1//EN" "http://www.w3.org/Graphics/SVG/1.1/DTD/svg11.dtd">
<svg version="1.1" id="Calque_1" xmlns="http://www.w3.org/2000/svg" xmlns:xlink="http://www.w3.org/1999/xlink" x="0px" y="0px"
	 width="102px" height="103.3px" viewBox="0 0 102 103.3" enable-background="new 0 0 102 103.3" xml:space="preserve">
<g>
	<path fill="none" d="M28.7,46.1c-0.8,0.6-1.6,1.3-2.5,1.9c-0.6,0.5-1.2,0.9-1.8,1.4c0.9,0.4,1.8,0.8,2.7,1c1.6,0.5,3.3,0.7,5,0.7
		c1.7,0,3.4-0.3,5-0.7c6.1-1.7,10.9-6.6,12.5-12.7c0.4-1.5,0.7-3.1,0.7-4.8c0-1.9-0.3-3.8-0.9-5.5c-0.2-0.8-0.5-1.5-0.9-2.2
		c-0.4,0.5-0.8,1-1.1,1.5c-0.6,0.8-1.3,1.6-1.9,2.4c-3.3,4.2-6.4,7.7-7.9,9.3C36,40,32.7,42.9,28.7,46.1z"/>
	<path fill="none" d="M15.6,40.7c0.5-0.7,1-1.3,1.5-2c0.5-0.7,1-1.3,1.5-1.9c3.3-4.2,6.4-7.7,7.9-9.3c1.6-1.6,5.3-4.8,9.7-8.3
		c0.6-0.5,1.2-0.9,1.8-1.4c0.5-0.4,1.1-0.8,1.7-1.3c-0.8-0.4-1.6-0.7-2.5-1c-1.7-0.5-3.4-0.8-5.3-0.8c-1.8,0-3.6,0.3-5.3,0.8
		c-5.7,1.7-10.3,6.2-12.1,11.9c-0.6,1.7-0.9,3.6-0.9,5.5c0,1.6,0.2,3.2,0.7,4.8C14.8,38.8,15.2,39.8,15.6,40.7z"/>
	<circle fill="none" cx="32.1" cy="33" r="2.9"/>
	<path fill="#E5E5E5" d="M13,44.2c-4.8,6.7-8.8,13.4-8.6,16.4c3,0.2,9.7-3.8,16.4-8.6c2.4,1.4,5,2.4,7.8,2.8l3.4,9.6l3.4-9.6
		c9.5-1.5,17-9,18.4-18.6l9.9-3.5l-10-3.6c-0.5-2.6-1.4-5.1-2.7-7.3c4.8-6.7,8.8-13.4,8.6-16.4c-3-0.2-9.7,3.8-16.4,8.6
		c-2.3-1.4-4.8-2.3-7.5-2.8L32.1,0.9l-3.7,10.3c-9.2,1.5-16.4,8.7-18.1,17.9l-10,3.6l9.9,3.5C10.6,39.1,11.6,41.8,13,44.2z
		 M45.5,29.2c0.6-0.8,1.2-1.6,1.9-2.4c0.4-0.5,0.8-1,1.1-1.5c0.3,0.7,0.6,1.5,0.9,2.2c0.6,1.7,0.9,3.6,0.9,5.5
		c0,1.6-0.2,3.2-0.7,4.8c-1.7,6.1-6.4,11-12.5,12.7c-1.6,0.5-3.3,0.7-5,0.7c-1.7,0-3.4-0.3-5-0.7c-0.9-0.3-1.8-0.6-2.7-1
		c0.6-0.5,1.2-0.9,1.8-1.4c0.8-0.7,1.7-1.3,2.5-1.9c4-3.2,7.4-6.1,8.9-7.6C39.1,36.9,42.2,33.4,45.5,29.2z M29.1,33
		c0-1.6,1.3-2.9,2.9-2.9S35,31.4,35,33s-1.3,2.9-2.9,2.9S29.1,34.6,29.1,33z M14.7,27.5c1.8-5.7,6.3-10.2,12.1-11.9
		c1.7-0.5,3.4-0.8,5.3-0.8c1.8,0,3.6,0.3,5.3,0.8c0.9,0.3,1.7,0.6,2.5,1c-0.6,0.4-1.1,0.8-1.7,1.3c-0.6,0.5-1.2,0.9-1.8,1.4
		c-4.4,3.4-8.1,6.6-9.7,8.3c-1.6,1.6-4.6,5.1-7.9,9.3c-0.5,0.6-1,1.2-1.5,1.9c-0.5,0.7-1,1.3-1.5,2c-0.4-0.9-0.8-1.9-1.1-2.9
		c-0.4-1.5-0.7-3.1-0.7-4.8C13.9,31.1,14.2,29.2,14.7,27.5z"/>
	<path fill="#E5E5E5" d="M88.1,33c0-12.3-4-23.7-10.8-33h-13c6.6,6.5,11.3,14.9,13.1,24.3L68.8,33l8.7,8.7
		c-3.5,18.5-18.2,33.1-36.7,36.7l-8.7-8.7l-8.7,8.7c-8.9-1.7-16.8-5.9-23.1-11.9v12.7c9,6.2,20,9.9,31.8,9.9
		C63,89,88.1,63.9,88.1,33z"/>
</g>
</svg>
