<svg xmlns="http://www.w3.org/2000/svg" width="100" height="100" viewBox="0 0 100 99.999997"><path d="M28.7 42.8c-.8.6-1.6 1.3-2.5 1.9-.6.5-1.2.9-1.8 1.4.9.4 1.8.8 2.7 1 1.6.5 3.3.7 5 .7 1.7 0 3.4-.3 5-.7 6.1-1.7 10.9-6.6 12.5-12.7.4-1.5.7-3.1.7-4.8 0-1.9-.3-3.8-.9-5.5-.2-.8-.5-1.5-.9-2.2-.4.5-.8 1-1.1 1.5-.6.8-1.3 1.6-1.9 2.4-3.3 4.2-6.4 7.7-7.9 9.3-1.6 1.6-4.9 4.5-8.9 7.7zm-13.1-5.4c.5-.7 1-1.3 1.5-2s1-1.3 1.5-1.9c3.3-4.2 6.4-7.7 7.9-9.3 1.6-1.6 5.3-4.8 9.7-8.3.6-.5 1.2-.9 1.8-1.4.5-.4 1.1-.8 1.7-1.3-.8-.4-1.6-.7-2.5-1-1.7-.5-3.4-.8-5.3-.8-1.8 0-3.6.3-5.3.8-5.7 1.7-10.3 6.2-12.1 11.9-.6 1.7-.9 3.6-.9 5.5 0 1.6.2 3.2.7 4.8.5 1.1.9 2.1 1.3 3z" fill="none"/><circle cx="32.1" cy="33" r="2.9" transform="translate(0 -3.3)" fill="none"/><path d="M14.254 49.607c-5.388 7.52-9.877 15.04-9.652 18.406 3.367.225 10.886-4.264 18.406-9.652 2.693 1.573 5.612 2.695 8.754 3.144l3.816 10.774 3.816-10.774c10.662-1.684 19.08-10.1 20.65-20.875l11.112-3.93-11.223-4.04c-.562-2.918-1.572-5.724-3.03-8.193 5.387-7.52 9.876-15.04 9.65-18.406-3.366-.224-10.885 4.265-18.405 9.653-2.58-1.572-5.387-2.582-8.417-3.143L35.69 1.01l-4.152 11.56c-10.326 1.684-18.407 9.764-20.315 20.09L0 36.7l11.11 3.93c.45 3.253 1.572 6.284 3.144 8.977zM50.73 32.772c.673-.898 1.346-1.796 2.132-2.693.45-.563.898-1.124 1.235-1.685.336.786.673 1.684 1.01 2.47.673 1.907 1.01 4.04 1.01 6.172 0 1.796-.225 3.592-.786 5.387-1.907 6.846-7.182 12.346-14.028 14.254-1.796.56-3.704.786-5.612.786s-3.816-.337-5.61-.786c-1.012-.337-2.022-.674-3.032-1.122.674-.562 1.347-1.01 2.02-1.572.898-.785 1.908-1.46 2.806-2.132 4.49-3.592 8.306-6.846 9.99-8.53 1.683-1.908 5.162-5.836 8.866-10.55zm-18.407 4.265c0-1.796 1.46-3.255 3.255-3.255 1.796 0 3.367 1.46 3.367 3.255 0 1.796-1.46 3.255-3.255 3.255s-3.367-1.46-3.367-3.255zm-16.16-6.173c2.02-6.397 7.07-11.448 13.58-13.356 1.907-.56 3.815-.897 5.947-.897 2.02 0 4.04.337 5.95.898 1.01.337 1.907.674 2.804 1.123-.673.45-1.234.9-1.908 1.46-.673.56-1.346 1.01-2.02 1.57-4.938 3.817-9.09 7.408-10.886 9.316-1.796 1.796-5.163 5.724-8.867 10.438-.56.674-1.122 1.347-1.683 2.133-.56.785-1.123 1.46-1.684 2.244-.45-1.01-.898-2.13-1.234-3.254-.45-1.683-.786-3.48-.786-5.387-.112-2.245.224-4.378.786-6.286zm82.378 6.173c0-13.805-4.488-26.6-12.12-37.037H71.83C79.236 7.295 84.51 16.723 86.53 27.273l-9.652 9.764 9.764 9.764c-3.928 20.765-20.426 37.15-41.19 41.19l-9.764-9.763-9.764 9.764C15.936 86.084 7.07 81.37 0 74.636V88.89C10.1 95.846 22.447 100 35.69 100c34.68-.112 62.85-28.283 62.85-62.963z" fill="#e5e5e5"/></svg>