<?xml version="1.0" encoding="utf-8"?>
<!-- Generator: Adobe Illustrator 15.1.0, SVG Export Plug-In . SVG Version: 6.00 Build 0)  -->
<!DOCTYPE svg PUBLIC "-//W3C//DTD SVG 1.1//EN" "http://www.w3.org/Graphics/SVG/1.1/DTD/svg11.dtd">
<svg version="1.1" id="Calque_1" xmlns="http://www.w3.org/2000/svg" xmlns:xlink="http://www.w3.org/1999/xlink" x="0px" y="0px"
	 width="143px" height="143px" viewBox="0 0 143 143" enable-background="new 0 0 143 143" xml:space="preserve">
<rect fill="#B1C129" width="143" height="143"/>
<path fill="#FFFFFF" d="M132.1,19.7H13c-0.7,0-1.3,0.6-1.3,1.3v104.6c0,0.7,0.6,1.3,1.3,1.3h36c0.2,0.1,0.4,0.2,0.6,0.2
	s0.4-0.1,0.6-0.2h36.3c0.2,0.1,0.4,0.2,0.6,0.2s0.4-0.1,0.6-0.2h44.4c0.7,0,1.3-0.6,1.3-1.3V21C133.4,20.3,132.8,19.7,132.1,19.7z
	 M88.4,124.2v-21.7c0-0.7-0.6-1.3-1.3-1.3s-1.3,0.6-1.3,1.3v21.7H50.8v-21.7c0-0.7-0.6-1.3-1.3-1.3s-1.3,0.6-1.3,1.3v21.7H14.3V22.3
	h14.9v13.9c0,0.7,0.6,1.3,1.3,1.3s1.3-0.6,1.3-1.3V22.3h37.5v13.9c0,0.7,0.6,1.3,1.3,1.3s1.3-0.6,1.3-1.3V22.3h26.3v31.7
	c0,0.7,0.6,1.3,1.3,1.3s1.3-0.6,1.3-1.3V22.3h7.2v28.2c0,0.7,0.6,1.3,1.3,1.3s1.3-0.6,1.3-1.3V22.3h20.2v35.1H123
	c-0.7,0-1.3,0.6-1.3,1.3s0.6,1.3,1.3,1.3h7.8v23.9H123c-0.7,0-1.3,0.6-1.3,1.3s0.6,1.3,1.3,1.3h7.8v37.8H88.4z"/>
<g>
	<path fill="#575756" d="M123,118.4c-1.1,0-2-0.9-2-2V37.6c0-1.1,0.9-2,2-2s2,0.9,2,2v78.8C125,117.5,124.1,118.4,123,118.4z"/>
</g>
<path fill="#575756" d="M109.2,111.1c0.4-9.7,0.9-21.6-19.3-30.2s-20-11.7-20-11.7S68,74,49.8,80.9c-11.6,4.4-20.4,7.6-19.4,30.2
	L109.2,111.1z"/>
<polygon fill="#575756" points="96.3,36.5 18.4,36.1 18.4,71.8 "/>
<polygon fill="#575756" points="64.3,61.6 116,37.8 115.7,70.1 "/>
</svg>
