<?xml version="1.0" encoding="utf-8"?>
<!-- Generator: Adobe Illustrator 15.1.0, SVG Export Plug-In . SVG Version: 6.00 Build 0)  -->
<!DOCTYPE svg PUBLIC "-//W3C//DTD SVG 1.1//EN" "http://www.w3.org/Graphics/SVG/1.1/DTD/svg11.dtd">
<svg version="1.1" id="Calque_1" xmlns="http://www.w3.org/2000/svg" xmlns:xlink="http://www.w3.org/1999/xlink" x="0px" y="0px"
	 width="143px" height="143px" viewBox="0 0 143 143" enable-background="new 0 0 143 143" xml:space="preserve">
<rect fill="#B1C129" width="143" height="143"/>
<g>
	<path fill="#E6E6E6" d="M84,136.8c-0.5,0-1-0.2-1.4-0.6c-0.8-0.8-0.8-2,0-2.8l21-21c0.8-0.8,2-0.8,2.8,0s0.8,2,0,2.8l-21,21
		C85,136.6,84.5,136.8,84,136.8z"/>
</g>
<g>
	<path fill="#E6E6E6" d="M136.4,136.8c-0.5,0-1-0.2-1.4-0.6l-21-21c-0.8-0.8-0.8-2,0-2.8c0.8-0.8,2-0.8,2.8,0l21,21
		c0.8,0.8,0.8,2,0,2.8C137.4,136.6,136.9,136.8,136.4,136.8z"/>
</g>
<g>
	<path fill="#575756" d="M108.1,102.7c-0.8,0-1.4-0.6-1.4-1.4V36.4c0-0.8,0.6-1.4,1.4-1.4s1.4,0.6,1.4,1.4v64.9
		C109.5,102,108.9,102.7,108.1,102.7z"/>
</g>
<path fill="#575756" d="M79.9,101.2c-0.3,6.9-0.7,15.5,13.9,21.6c14.5,6.1,14.4,8.4,14.4,8.4s1.3-3.5,14.3-8.4
	c8.3-3.1,14.6-5.5,13.9-21.6L79.9,101.2z"/>
<polygon fill="#575756" points="112.5,35 135.2,72 112.5,77.9 "/>
<path fill="#E6E6E6" d="M95.6,9.5c-0.2-0.3-0.5-0.6-0.9-0.6l-21-3c-0.5-0.1-1,0.1-1.2,0.5L37.5,59H21v27.3h5.7l-8.7,23.1H6.6v27.9
	H64v-27.9h-9.5l-8.2-23.1h5.2v-15c0.1,0,0.3,0,0.4-0.1c0.3-0.1,0.6-0.4,0.7-0.7L76,18l14.8-3.2v18.1c0,0.4,0.3,0.8,0.8,0.8
	s0.8-0.3,0.8-0.8V14.4l1.5-0.3c0.4-0.1,0.7-0.4,0.9-0.8l1.1-2.8C95.8,10.2,95.8,9.8,95.6,9.5z M50.3,109.4H22.2l8.7-23.1H42
	L50.3,109.4z M51.5,66.9V59h-11l2.3-3.5l15.1-3L51.5,66.9z M44.7,52.6l9.7-14.5l4,11.8L44.7,52.6z M60.1,47.4l-3.8-11.3l10-2.8
	L60.1,47.4z M57.7,33.2l7-10.6l2.4,7.9L57.7,33.2z M68.9,27.8l-2.2-7.2l6.2-1.8L68.9,27.8z M68.1,17.6l4.9-7.3l0.8,5.7L68.1,17.6z
	 M76.1,15.4l-0.5-4.1l4.1,3.4L76.1,15.4z M76.6,8.8l7.7,1.1l-2.9,2.8L76.6,8.8z M84,13.7l2.7-2.6l1.1,1.8L84,13.7z M92.5,11.8
	l-2.1,0.5l-1-1.6l3.3,0.5L92.5,11.8z"/>
<polygon fill="#575756" points="92.3,30.3 69.5,81.2 92.3,90.4 "/>
</svg>
