<?xml version="1.0" encoding="utf-8"?>
<!-- Generator: Adobe Illustrator 15.1.0, SVG Export Plug-In . SVG Version: 6.00 Build 0)  -->
<!DOCTYPE svg PUBLIC "-//W3C//DTD SVG 1.1//EN" "http://www.w3.org/Graphics/SVG/1.1/DTD/svg11.dtd">
<svg version="1.1" id="Calque_1" xmlns="http://www.w3.org/2000/svg" xmlns:xlink="http://www.w3.org/1999/xlink" x="0px" y="0px"
	 width="143px" height="143px" viewBox="0 0 143 143" enable-background="new 0 0 143 143" xml:space="preserve">
<rect fill="#B1C129" width="143" height="142.8"/>
<polygon fill="#E6E6E6" points="0.1,23.6 143.1,23.6 143.1,143 113.9,143 0.1,143 "/>
<line fill="none" stroke="#575756" stroke-width="1.4219" stroke-linecap="round" stroke-linejoin="round" stroke-miterlimit="10" x1="90.2" y1="43.9" x2="90.2" y2="12"/>
<polygon fill="#575756" points="88.9,11.3 77.7,36.4 88.9,40.9 "/>
<polygon fill="#575756" points="91.3,11.3 102.6,36.4 91.3,40.9 "/>
<polyline fill="#B1C129" points="48.1,51.1 50.4,118.8 27.6,118.8 31.2,51 "/>
<path fill="#575756" d="M32.8,37.8l2.8-3.6v-5.6c0,0,0.6-2.1,3-2.4C41,26,42,28.6,42,28.6v5.6l3.2,4.7L32.8,37.8z"/>
<polyline fill="#575756" points="31.2,51 27.6,49.4 27.6,36.5 50.7,36.5 50.7,49.8 48.1,51.1 "/>
<polygon fill="#575756" points="30.7,60.5 48.5,60.5 49,72.2 30.1,72.2 "/>
<polygon fill="#575756" points="29.4,84.8 49.6,84.8 50,95.4 28.9,95.4 "/>
<path fill="#575756" d="M81.9,51.5c3.8,2,7.1,2.2,9,1.9c1.9-0.3,3.8-2.6,8-1.8c1.3,0.3,2.2,0.1,3.1,0.5c1.5-1.5,2.4-3.8,2.2-8.1
	l-27.8,0c-0.1,2-0.2,4.4,1.3,6.6C79.1,50.5,80.5,50.8,81.9,51.5z"/>
<path fill="#575756" d="M0,111c0,0,3.7-5.3,10.2-4.8c6.4,0.5,12.7-2.4,16.4,0c3.8,2.4,23.2,3.3,29.7,1.9c6.4-1.4,9.3-9,14.7,0
	c5.4,9,7.8,14,13.4,15.4c5.6,1.4,19.1,1.1,23.4,5.7c4.3,4.6,15.7,13.6,15.7,13.6H0V111z"/>
<path fill="none" stroke="#575756" stroke-width="1.7006" stroke-linecap="round" stroke-linejoin="round" stroke-miterlimit="10" d="
	M82.1,56.5c1.5-0.7,2.9-0.7,5.1,0.3c1.5,0.6,3.4,0.5,6.1-0.4c3-1,4.9-0.2,5.6,0.2"/>
<path fill="none" stroke="#575756" stroke-width="1.7006" stroke-linecap="round" stroke-linejoin="round" stroke-miterlimit="10" d="
	M71.8,66.7c1.6-0.7,2.6-0.4,4.2,0.2c1.6,0.5,3.1-0.2,3.1-0.2"/>
<path fill="none" stroke="#575756" stroke-width="1.7006" stroke-linecap="round" stroke-linejoin="round" stroke-miterlimit="10" d="
	M67.4,69.6c1.6-0.7,2.6-0.4,4.2,0.2c1.6,0.5,3.1-0.2,3.1-0.2"/>
<path fill="none" stroke="#575756" stroke-width="1.7006" stroke-linecap="round" stroke-linejoin="round" stroke-miterlimit="10" d="
	M101.2,67.2c1.6-0.7,2.6-0.4,4.2,0.2c1.6,0.5,3.1-0.2,3.1-0.2"/>
<path fill="none" stroke="#575756" stroke-width="1.7006" stroke-linecap="round" stroke-linejoin="round" stroke-miterlimit="10" d="
	M104.6,70.9c1.6-0.7,2.6-0.4,4.2,0.2c1.6,0.5,3.1-0.2,3.1-0.2"/>
<path fill="none" stroke="#575756" stroke-width="1.7006" stroke-linecap="round" stroke-linejoin="round" stroke-miterlimit="10" d="
	M78.6,59.6c3.6-1.1,7.5,1,11.1,1s5.8-2.1,11.5,0"/>
<path fill="none" stroke="#575756" stroke-width="1.7006" stroke-linecap="round" stroke-linejoin="round" stroke-miterlimit="10" d="
	M73.3,62.9c3.3,1.3,5.3-0.5,8.7-0.2c4.2,0.4,3.6,1.7,7.9,1.6c4.3-0.1,4.1-1.4,8.4-1.4c4.4,0,6.1,1.7,8.1,1.1"/>
</svg>
