<svg xmlns="http://www.w3.org/2000/svg" width="100" height="100" viewBox="0 0 100 99.999999"><path d="M23.902.263L3.666 28.733l-2.8 2.766c.16.162.318.32.483.482L0 33.886v20.442l10.482-15.29c5.604 3.344 11.943 5.58 18.712 6.435v11.102l-7.887 7.368V67.3C13.747 65.847 6.575 63.255 0 59.724v18.503c6.73 2.825 13.878 4.863 21.307 6.02V96.04h27.05V84.457C68.337 81.673 86.28 72.468 100 58.998L88.307 47.064c-1.52 1.495-3.128 2.927-4.77 4.288L47.248.262H23.9zm5.222 11.518h.07v24.802c-4.937-.764-9.538-2.474-13.698-4.877l13.63-19.924zm11.935.278l14.007 19.75c-4.248 2.433-8.963 4.12-14.008 4.844V12.057zm19.16 26.98L73.817 58.2c-7.715 4.563-16.327 7.77-25.494 9.338v-3.597l-7.367-7.366h.104V45.54c6.947-.807 13.425-3.078 19.16-6.5z" fill="#e5e5e5"/></svg>