<svg xmlns="http://www.w3.org/2000/svg" width="39.236" height="54.83" viewBox="0 0 39.236 54.830013" enable-background="new 0 0 54.721 77"><path d="M19.62 0C8.8 0 0 8.803 0 19.617c0 10.158 14.682 21.15 18.928 34.723.094.293.367.492.674.49.31-.004.578-.207.664-.5 4.118-13.906 18.968-24.543 18.97-34.713C39.234 8.803 30.433 0 19.62 0z" fill="#a9c30c"/><path d="M26.292 20.064c0 3.686-2.988 6.674-6.674 6.674-3.686 0-6.674-2.988-6.674-6.674 0-3.686 2.988-6.674 6.674-6.674 3.686 0 6.674 2.988 6.674 6.674z" fill="#f5f5f5"/></svg>