<svg xmlns="http://www.w3.org/2000/svg" width="100" height="100">
    <path id="dpe-path-A" d="M0 0v13.084h19.21l6.36-6.52L19.21 0H0z" fill="#555753"/>
    <path id="dpe-path-B" d="M0 14.486V27.57h29.683l6.354-6.518-6.354-6.566H0z" fill="#888a85"/>
    <path id="dpe-path-C" d="M0 28.972v13.084h40.403l6.353-6.52-6.353-6.564H0z" fill="#babdb6"/>
    <path id="dpe-path-D" d="M0 43.458v13.084h52.1l6.354-6.52-6.353-6.564H0z" fill="#d3d7cf"/>
    <path id="dpe-path-E" d="M0 57.944v13.084h62.504l6.353-6.52-6.353-6.564H0z" fill="#babdb6"/>
    <path id="dpe-path-F" d="M0 72.43v13.084h73.966l6.354-6.52-6.354-6.564H0z" fill="#888a85"/>
    <path id="dpe-path-G" d="M0 86.916V100h84.287l6.353-6.52-6.353-6.564H0z" fill="#555753"/>
    <path id="dpe-text-A" d="M16.188 3L14 9.688h1.97l.342-1.25h2.157l.34 1.25h1.97L18.594 3h-2.407zm1.187 1.094c.03.167.093.427.188.812.097.386.183.726.25.97l.312 1.093h-1.438c.277-1.048.453-1.77.532-2.128.08-.356.126-.595.153-.75zm-6.688.437c-.466 0-.806.14-1.03.47-.225.33-.345.84-.345 1.53 0 .67.115 1.194.344 1.534.232.34.578.5 1.03.5.47 0 .808-.17 1.033-.5.223-.33.34-.844.34-1.53 0-.665-.11-1.156-.343-1.5-.233-.345-.58-.5-1.033-.5zm-4.218.066l-.16 2 .344.156c.072-.02.167-.044.282-.062.114-.02.217 0 .312 0 .525 0 .78.198.78.594 0 .417-.24.626-.75.626-.168 0-.343-.047-.53-.093-.19-.05-.36-.113-.5-.188v.72c.27.14.624.216 1.062.216.504 0 .885-.106 1.156-.343.27-.237.405-.592.405-1.032 0-.37-.117-.66-.343-.874C8.307 6.1 8.005 6 7.625 6c-.16 0-.297.006-.406.03l-.096.032.063-.78h1.406v-.688H6.47zm-2.16.312L1.625 6.25v.375l2.688 1.188v-.657l-1.844-.75 1.842-.843v-.657zm6.376.282c.19 0 .32.1.406.31.088.21.156.55.156 1.03s-.07.853-.157 1.065c-.085.21-.212.312-.405.312-.198 0-.354-.104-.438-.312-.084-.21-.095-.58-.095-1.063 0-.48.04-.82.125-1.03.086-.212.212-.312.408-.313zM1.624 7.94v.56h2.688v-.563H1.624z" fill="#fff"/>
    <path id="dpe-text-B" d="M24.438 17.72v6.655h2.593c.785 0 1.393-.185 1.845-.53.455-.35.687-.834.688-1.44 0-.406-.097-.712-.282-.968-.184-.255-.46-.453-.874-.562v-.03c.313-.077.56-.268.75-.532.192-.265.28-.564.282-.938 0-.568-.216-.983-.657-1.25-.436-.27-1.094-.406-2-.406h-2.343zM9.75 18.874v.063c.122.118.312.26.53.437.22.176.388.296.5.375h.533v-.063c-.31-.358-.512-.63-.626-.812H9.75zm16.5.188h.5c.565 0 .844.19.844.562 0 .21-.076.362-.22.47-.14.105-.335.155-.593.155h-.53v-1.188zm-7.656.03c-.467 0-.807.17-1.032.5-.224.33-.343.837-.343 1.532 0 .666.113 1.16.343 1.5.23.34.577.53 1.03.53.47 0 .808-.17 1.032-.5.226-.33.344-.843.344-1.53 0-.664-.112-1.155-.345-1.5-.232-.345-.577-.53-1.03-.53zm-3.5.032c-.278.046-.507.16-.688.344-.238.243-.344.577-.344 1 0 .39.084.715.282.936.197.22.47.313.812.313.205 0 .364-.027.5-.095.137-.068.27-.175.375-.344h.032c-.014.308-.06.544-.156.72-.095.174-.227.292-.406.375-.18.08-.41.125-.688.125-.165 0-.35-.025-.5-.063v.657c.12.025.298.062.532.062.662 0 1.173-.21 1.5-.593.326-.383.5-.944.5-1.72 0-.358-.07-.678-.188-.937-.116-.26-.28-.457-.5-.593-.217-.137-.49-.188-.78-.188-.104 0-.19-.015-.282 0zm-13.22.03l-.124 2 .313.19c.07-.023.166-.046.28-.064.116-.018.218-.03.313-.03.526 0 .813.197.813.594 0 .416-.275.625-.783.625-.168 0-.342-.017-.53-.064-.19-.048-.36-.112-.5-.187v.718c.268.14.624.218 1.062.218.503 0 .884-.138 1.155-.375.27-.236.406-.56.406-1 0-.37-.085-.66-.31-.874-.226-.213-.558-.343-.94-.343-.16 0-.296.037-.405.062H2.53l.095-.75H4.03v-.72H1.876zm4.25 0l-1.25 1 .376.5.47-.343c.053-.043.142-.143.28-.28v.405l-.03.375v2.282h.843v-3.938h-.688zm9.282.626c.174 0 .326.073.438.22.113.147.156.318.156.53 0 .145-.067.265-.188.376-.12.11-.268.188-.437.188-.18 0-.287-.076-.375-.188-.088-.11-.156-.247-.156-.437 0-.224.06-.383.156-.5.097-.12.234-.19.406-.19zm3.188 0c.192 0 .32.102.406.314.088.21.125.548.125 1.03 0 .478-.04.82-.125 1.032-.086.212-.212.313-.406.313-.198 0-.353-.106-.438-.314-.082-.21-.125-.548-.125-1.03 0-.484.042-.822.126-1.032.085-.212.242-.313.438-.313zm-7.813.25c-.42 0-.81.07-1.155.25l.28.564c.326-.146.604-.22.845-.22.312 0 .47.165.47.47v.125h-.533c-.45.015-.775.127-1 .28-.222.15-.343.368-.343.688 0 .305.085.553.25.718.167.165.398.25.687.25.236 0 .418-.058.564-.125.147-.067.3-.168.437-.343h.033l.156.407h.56v-2c0-.36-.096-.637-.31-.813-.217-.175-.535-.25-.94-.25zm15.47 1.532h.594c.285 0 .507.07.656.188.152.118.22.278.22.5 0 .474-.283.72-.845.72h-.625v-1.407zm-15.03.125v.25c0 .182-.074.33-.19.438-.112.11-.246.156-.436.156-.266 0-.407-.11-.406-.343 0-.16.07-.264.187-.343.117-.08.293-.118.53-.125l.314-.032z"/>
    <path id="dpe-text-C" d="M38.094 32.063c-.463.052-.884.194-1.25.406-.486.278-.833.695-1.094 1.218-.258.522-.406 1.123-.406 1.812 0 1.102.278 1.948.812 2.53.538.584 1.308.876 2.313.876.7 0 1.318-.13 1.874-.375V37c-.28.115-.568.23-.844.313-.276.08-.55.125-.844.124-.974 0-1.47-.656-1.468-1.937 0-.616.135-1.088.374-1.438.24-.352.572-.53 1-.53.283 0 .536.045.782.124.246.08.504.166.75.282l.53-1.407c-.655-.312-1.342-.467-2.062-.468-.164 0-.314-.017-.468 0zM9.75 33.374v.063c.122.118.312.26.53.437.22.176.388.296.5.375h.533v-.063c-.31-.358-.512-.63-.626-.812H9.75zm12 .22c-.467 0-.838.17-1.063.5-.224.327-.312.835-.312 1.53 0 .666.114 1.19.344 1.53.23.342.576.5 1.03.5.468 0 .807-.17 1.03-.5.227-.33.345-.843.345-1.53 0-.664-.142-1.155-.375-1.5-.232-.345-.546-.53-1-.53zm-18.844.03c-.413 0-.728.13-.97.375-.237.244-.374.578-.373 1 0 .39.115.685.312.906.197.22.47.344.813.344.204 0 .363-.057.5-.125.136-.068.27-.175.374-.344h.032c-.015.308-.093.544-.188.72-.095.174-.227.292-.406.375-.18.08-.41.125-.688.125-.165 0-.317.006-.468-.03v.655c.12.025.298.03.53.03.663 0 1.143-.18 1.47-.56.326-.384.5-.976.5-1.75 0-.36-.04-.65-.157-.907-.116-.26-.312-.49-.53-.626-.218-.136-.46-.187-.75-.187zm3.22.03l-1.25 1.032.374.5.47-.374c.053-.044.142-.144.28-.282v.407l-.03.376v2.28h.843v-3.937h-.688zm9.343 0l-1.283 1.032.407.5.47-.374c.052-.044.142-.144.28-.282l-.03.407-.002.376v2.28h.844v-3.937h-.687zm2.03 0l-.125 2.032.313.157c.07-.022.166-.045.28-.063.116-.018.218-.03.313-.03.527 0 .814.197.814.594 0 .416-.274.625-.782.625-.168 0-.342-.017-.53-.064-.19-.048-.36-.112-.5-.187v.718c.268.14.624.218 1.062.218.504 0 .885-.107 1.156-.343.27-.237.406-.592.406-1.032 0-.37-.086-.66-.312-.874-.225-.213-.557-.312-.938-.312-.16 0-.297.006-.406.03l-.094.032.094-.78h1.406v-.72H17.5zm-14.563.626c.175 0 .295.073.407.22.113.147.187.35.187.563 0 .143-.066.263-.186.374-.12.11-.27.157-.438.157-.18 0-.318-.045-.406-.157-.088-.11-.125-.278-.125-.468 0-.224.06-.383.156-.5.098-.12.235-.19.408-.19zm18.813 0c.192 0 .32.102.406.314.088.21.125.548.125 1.03 0 .478-.038.82-.124 1.032-.086.212-.212.344-.406.344-.197 0-.353-.104-.438-.313-.082-.21-.125-.58-.125-1.062 0-.483.04-.82.125-1.03.085-.213.242-.314.438-.314zm-10.97.25c-.42 0-.81.1-1.155.282l.28.563c.326-.145.604-.22.845-.22.312 0 .47.134.47.44v.124l-.533.03c-.45.016-.775.097-1 .25-.222.15-.343.4-.343.72 0 .304.085.52.25.686.167.165.398.25.687.25.236 0 .418-.027.564-.093.147-.07.3-.2.437-.376h.033l.156.407h.56v-2c0-.36-.096-.637-.31-.813-.217-.175-.535-.25-.94-.25zm.126 1.69h.313v.25c0 .18-.074.327-.19.436-.112.11-.246.157-.436.157-.266 0-.407-.113-.406-.344 0-.163.07-.297.187-.376.117-.08.293-.118.53-.125z"/>
    <path id="dpe-text-D" d="M46.28 46.688v6.656h2.157c1.11 0 1.953-.305 2.563-.907.613-.6.937-1.45.938-2.562 0-1.032-.292-1.828-.876-2.375-.58-.547-1.4-.812-2.468-.813H46.28zm-33.374 1.156v.062c.122.12.28.26.5.438.22.176.387.327.5.406h.563v-.094c-.31-.36-.544-.63-.658-.812h-.906zm5.72.25c-.188 0-.35.025-.5.062-.152.036-.28.088-.407.157-.13.068-.307.178-.5.343l.468.532c.156-.13.293-.243.437-.313.144-.07.285-.094.438-.094.145 0 .288.05.375.126.087.077.124.186.125.344 0 .106-.024.214-.063.313-.04.098-.098.195-.188.312-.09.115-.3.325-.593.625l-.97 1v.594H20v-.72h-1.72v-.03l.5-.47c.34-.308.587-.55.72-.718.135-.167.218-.342.28-.5.066-.16.095-.318.095-.5 0-.208-.052-.4-.156-.562-.105-.162-.25-.286-.44-.375-.187-.09-.41-.126-.655-.126zm3.03 0c-.497 0-.922.116-1.28.375l.374.593c.163-.106.336-.207.47-.25.133-.044.245-.063.374-.063.373 0 .562.17.562.47 0 .193-.077.324-.218.405-.14.08-.352.125-.657.125h-.31v.625h.31c.33 0 .57.048.72.125.15.077.22.19.22.375 0 .206-.058.375-.19.47-.13.092-.35.124-.624.124-.18 0-.348-.015-.53-.064-.184-.048-.348-.11-.5-.187v.718c.33.14.697.187 1.124.187.51 0 .913-.103 1.188-.313.274-.21.406-.496.406-.874 0-.26-.087-.473-.25-.626-.164-.154-.4-.24-.72-.28V50c.27-.065.477-.17.626-.344.15-.172.22-.38.22-.625 0-.293-.108-.52-.345-.686-.235-.165-.56-.25-.97-.25zm3.22 0c-.468 0-.808.17-1.032.5-.225.328-.344.836-.344 1.53 0 .667.114 1.16.344 1.5.23.342.577.5 1.03.5.47 0 .808-.17 1.032-.5.226-.33.344-.812.344-1.5 0-.663-.11-1.186-.344-1.53-.23-.345-.577-.5-1.03-.5zm23.186.03h.532c.492 0 .854.144 1.093.438.243.295.375.765.376 1.376 0 .652-.12 1.118-.376 1.437-.255.316-.672.47-1.218.47h-.407v-3.72zM3 48.157l-1.28 1 .405.5.438-.375c.053-.042.174-.11.312-.25l-.03.407V52.093h.81v-3.937H3zm2.03 0l-.155 2 .344.188c.07-.022.165-.045.28-.063.115-.018.217-.03.313-.03.525 0 .78.197.78.594 0 .416-.24.625-.75.625-.168 0-.342-.048-.53-.095-.19-.048-.36-.08-.5-.156v.718c.27.14.624.187 1.062.187.504 0 .885-.107 1.156-.344.272-.236.407-.59.407-1.03 0-.372-.117-.66-.343-.875-.225-.214-.526-.312-.907-.313-.16 0-.296.007-.406.032l-.093.03.063-.78h1.406v-.688H5.03zm4.25 0l-1.28 1 .406.5.47-.375c.053-.042.142-.11.28-.25l-.03.407V52.093h.843v-3.937h-.69zm15.595.594c.192 0 .35.1.438.313.087.21.124.58.125 1.062 0 .477-.04.82-.125 1.03-.087.213-.244.314-.438.314-.197 0-.322-.106-.406-.314-.084-.21-.126-.548-.126-1.03 0-.484.04-.854.125-1.063.083-.212.21-.313.405-.313zM13.937 49c-.42 0-.81.1-1.156.28l.25.564c.326-.146.604-.22.845-.22.312 0 .47.133.47.438v.157h-.5c-.452.015-.808.096-1.033.25-.222.15-.312.398-.312.718 0 .305.085.522.25.687.167.165.367.25.656.25.235 0 .45-.027.594-.094.147-.067.268-.168.406-.343h.03l.158.407h.594v-2.032c0-.358-.13-.605-.344-.78-.216-.177-.503-.282-.906-.282zm.094 1.688h.314v.25c0 .18-.042.328-.156.437-.114.11-.28.156-.47.156-.265 0-.374-.11-.374-.343 0-.16.04-.296.156-.374.117-.08.293-.118.53-.126z"/>
    <path id="dpe-text-E" d="M57.844 61.156v6.657h3.968v-1.47h-2.156v-1.25h2v-1.468h-2v-1.03h2.157v-1.44h-3.97zm-44.938 1.157v.062c.122.118.28.29.5.47.22.175.387.295.5.374h.563v-.095c-.31-.36-.544-.63-.658-.813h-.906zM3 62.563c-.187 0-.35.024-.5.062-.15.036-.28.088-.406.156-.128.07-.306.18-.5.345l.468.53c.157-.128.294-.24.438-.31.144-.07.285-.095.438-.095.145 0 .257.048.343.125.09.077.157.186.158.344 0 .105-.024.213-.063.31-.04.1-.098.197-.188.314-.09.115-.3.325-.593.625l-.97 1v.593h2.75v-.72H2.657v-.03l.5-.47c.338-.308.586-.55.72-.718.134-.167.217-.342.28-.5.065-.16.094-.32.094-.5 0-.208-.052-.4-.156-.563-.104-.16-.25-.285-.438-.374-.188-.09-.41-.125-.656-.126zm3.03 0c-.496 0-.92.116-1.28.374l.375.594c.163-.105.336-.174.47-.218.133-.043.245-.093.374-.093.372 0 .56.17.56.468 0 .193-.076.325-.218.406-.14.08-.35.125-.656.125h-.312v.624h.312c.33 0 .568.048.72.125.15.076.218.19.218.374 0 .206-.057.375-.188.47-.13.092-.35.124-.625.124-.178 0-.347-.015-.53-.063-.183-.048-.347-.11-.5-.188v.72c.33.14.698.187 1.125.187.51 0 .913-.103 1.188-.313.274-.21.406-.495.406-.874 0-.26-.088-.472-.25-.625-.165-.153-.402-.24-.72-.28v-.03c.27-.066.476-.173.625-.345.15-.172.22-.38.22-.625 0-.294-.108-.522-.345-.688-.235-.165-.56-.25-.97-.25zm12.5 0c-.496 0-.952.116-1.31.374l.405.594c.163-.105.305-.174.438-.218.134-.043.277-.093.406-.093.372 0 .56.17.56.468 0 .193-.076.325-.218.406-.14.08-.382.125-.687.125h-.28v.624h.28c.33 0 .568.048.72.125.15.076.25.19.25.374 0 .206-.09.375-.22.47-.13.092-.32.124-.594.124-.178 0-.378-.015-.56-.063-.184-.048-.35-.11-.5-.188v.72c.33.14.728.187 1.155.187.51 0 .882-.103 1.156-.313.276-.21.407-.495.407-.874 0-.26-.055-.472-.218-.625-.165-.153-.402-.24-.72-.28v-.03c.27-.066.476-.173.625-.345.15-.172.22-.38.22-.625 0-.294-.14-.522-.376-.688-.236-.165-.53-.25-.94-.25zm3.126 0c-.497 0-.922.116-1.28.374l.374.594c.163-.105.336-.174.47-.218.133-.043.245-.093.374-.093.373 0 .562.17.562.468 0 .193-.077.325-.218.406-.14.08-.352.125-.657.125h-.31v.624h.31c.33 0 .57.048.72.125.15.076.22.19.22.374 0 .206-.058.375-.19.47-.13.092-.35.124-.624.124-.18 0-.348-.015-.53-.063-.184-.048-.348-.11-.5-.188v.72c.33.14.697.187 1.124.187.51 0 .913-.103 1.188-.313.274-.21.406-.495.406-.874 0-.26-.087-.472-.25-.625-.164-.153-.4-.24-.72-.28v-.03c.27-.066.477-.173.626-.345.15-.172.22-.38.22-.625 0-.294-.108-.522-.345-.688-.235-.165-.56-.25-.97-.25zm3.22 0c-.468 0-.808.17-1.032.5-.225.328-.344.836-.344 1.53 0 .667.114 1.16.344 1.5.23.342.577.5 1.03.5.47 0 .808-.138 1.032-.468.226-.33.344-.844.344-1.53 0-.665-.11-1.188-.344-1.532-.23-.345-.577-.5-1.03-.5zm-15.595.062l-1.28 1 .406.5.47-.375c.053-.043.142-.112.28-.25l-.03.406v2.657h.843v-3.937h-.69zm15.595.594c.192 0 .35.1.438.31.087.21.124.58.125 1.064 0 .477-.04.82-.125 1.03-.087.213-.244.314-.438.314-.197 0-.322-.105-.406-.313-.084-.21-.126-.548-.126-1.03 0-.484.04-.854.125-1.064.083-.21.21-.31.405-.31zm-10.938.25c-.42 0-.81.1-1.156.28l.25.563c.326-.146.604-.22.845-.22.312 0 .47.133.47.438v.157h-.5c-.452.017-.808.098-1.033.25-.222.15-.312.4-.312.72 0 .304.085.522.25.687.167.165.367.25.656.25.235 0 .45-.028.594-.094.147-.068.268-.17.406-.344h.03l.158.406h.594v-2.03c0-.36-.13-.606-.344-.782-.216-.176-.503-.28-.906-.28zm.094 1.686h.314v.25c0 .182-.042.328-.156.438-.114.11-.28.156-.47.156-.265 0-.374-.112-.374-.344 0-.16.04-.265.156-.344.117-.078.293-.15.53-.156z"/>
    <path id="dpe-text-F" d="M69.594 75.625v6.656h1.75v-2.5h2v-1.436h-2v-1.28h2.187v-1.44h-3.936zm-56.688 1.188v.062c.122.118.28.26.5.438.22.175.387.296.5.374h.563v-.062c-.31-.36-.544-.63-.658-.813h-.906zm-10 .218c-.497 0-.953.15-1.312.407L2 78c.163-.106.305-.176.438-.22.134-.042.277-.06.406-.06.373 0 .562.138.562.436 0 .194-.077.326-.22.406-.138.08-.38.126-.686.126h-.28v.624h.28c.33 0 .568.048.72.126.15.077.25.22.25.406 0 .206-.09.344-.22.437-.13.095-.32.158-.594.157-.18 0-.38-.045-.562-.093-.183-.05-.348-.11-.5-.188v.72c.33.14.73.218 1.156.218.51 0 .882-.103 1.156-.313.275-.21.406-.526.406-.905 0-.26-.055-.472-.218-.625-.164-.154-.4-.242-.72-.28.27-.066.477-.204.626-.376.15-.173.22-.38.22-.625 0-.296-.14-.524-.376-.69-.235-.164-.53-.25-.938-.25zm3.125 0c-.496 0-.92.15-1.28.407l.375.563c.163-.106.336-.176.47-.22.133-.042.245-.06.374-.06.372 0 .56.138.56.436 0 .194-.076.326-.218.406-.14.08-.35.126-.656.126h-.312v.624h.312c.33 0 .568.048.72.126.15.077.218.22.218.406 0 .206-.057.344-.188.437-.13.095-.35.158-.625.157-.178 0-.347-.045-.53-.093-.183-.05-.347-.11-.5-.188v.72c.33.14.698.218 1.125.218.51 0 .913-.103 1.188-.313.274-.21.406-.526.406-.905 0-.26-.088-.472-.25-.625-.165-.154-.402-.242-.72-.28.27-.066.476-.204.625-.376.15-.173.22-.38.22-.625 0-.296-.108-.524-.345-.69-.235-.164-.56-.25-.97-.25zm18.845 0c-.467 0-.807.17-1.03.5-.226.33-.345.838-.345 1.532 0 .666.114 1.16.344 1.5.23.342.577.532 1.03.532.47 0 .808-.17 1.032-.5.226-.33.344-.844.344-1.53 0-.666-.11-1.157-.344-1.5-.23-.346-.577-.533-1.03-.533zm-15.594.064l-1.28 1 .406.5.47-.344c.053-.043.142-.143.28-.28l-.03.405v2.655h.843v-3.936h-.69zm9.564 0l-1.72 2.53v.595h1.657v.81h.814v-.81h.5v-.657h-.5v-2.47h-.75zm1.812 0l-.156 2 .344.187c.072-.02.166-.043.28-.06.116-.02.218-.032.314-.032.525 0 .78.197.78.593 0 .418-.24.626-.75.626-.168 0-.342-.016-.53-.062-.19-.05-.36-.112-.5-.188v.72c.27.14.624.218 1.062.218.504 0 .885-.138 1.156-.375.27-.238.406-.562.407-1 0-.373-.118-.663-.344-.876-.226-.214-.527-.344-.907-.344-.162 0-.297.037-.407.063h-.093l.062-.75h1.406v-.72h-2.124zm4.22.625c.19 0 .35.1.436.31.088.21.125.55.125 1.032 0 .478-.038.82-.125 1.032-.086.212-.243.312-.437.312-.197 0-.322-.104-.406-.312-.084-.21-.126-.55-.126-1.03 0-.484.04-.823.125-1.033.083-.21.21-.31.405-.31zm-10.94.25c-.42 0-.808.067-1.155.25l.25.56c.326-.144.604-.217.845-.218.312 0 .47.164.47.47v.124h-.5c-.452.016-.808.13-1.033.28-.222.152-.312.37-.312.69 0 .304.085.553.25.718.167.165.367.25.656.25.235 0 .45-.06.594-.125.147-.07.268-.17.406-.345h.03l.158.406h.594v-2c0-.358-.13-.635-.344-.81-.216-.177-.503-.25-.906-.25zm4.877.06c-.006.035.01.164 0 .376s-.032.39-.032.5v.656h-.936l.718-1.093c.094-.14.184-.292.25-.44zm-4.47 1.595v.25c0 .18-.04.328-.155.438-.114.11-.28.156-.47.156-.265 0-.374-.113-.374-.345 0-.162.04-.265.156-.344.117-.078.293-.117.53-.124l.314-.03z"/>
    <path id="dpe-text-G" d="M82.438 90c-1.106 0-1.95.277-2.563.875-.613.598-.938 1.456-.938 2.53 0 1.104.285 1.937.844 2.532.565.596 1.35.907 2.378.907.936 0 1.813-.14 2.594-.406v-3.594h-2.874v1.406h1.188v1.03c-.225.053-.483.064-.75.064-.49 0-.864-.144-1.126-.47-.258-.327-.375-.814-.374-1.436 0-.635.12-1.13.406-1.47.287-.342.692-.5 1.218-.5.574 0 1.113.108 1.593.344l.565-1.406c-.277-.12-.595-.202-.97-.28-.37-.08-.767-.126-1.186-.126zm-68.594 1.438c-.467 0-.838.17-1.063.5-.22.328-.31.836-.31 1.53 0 .666.115 1.16.344 1.5.232.342.578.5 1.032.5.468 0 .807-.138 1.03-.468.227-.33.345-.844.345-1.53 0-.665-.142-1.188-.375-1.532-.232-.345-.546-.5-1-.5zM7.78 91.5l-1.718 2.53v.595H7.75v.813h.813v-.813h.468v-.656h-.465V91.5H7.78zm1.845 0l-.156 2 .31.188c.07-.022.166-.045.28-.063.115-.02.218-.03.313-.03.526 0 .812.196.813.593 0 .416-.274.625-.782.624-.168 0-.343-.015-.53-.062-.19-.048-.36-.112-.5-.188v.72c.268.14.624.187 1.062.187.504 0 .885-.11 1.156-.347.27-.237.406-.56.406-1 0-.37-.087-.662-.314-.875-.224-.214-.525-.345-.906-.345-.16 0-.296.038-.405.063h-.094l.064-.782h1.406V91.5H9.626zm-8 .5v.625l1.844.844-1.847.78v.623l2.688-1.156v-.407L1.625 92zm12.22.094c.19 0 .32.132.405.344.088.21.125.548.125 1.03 0 .478-.04.82-.125 1.032-.086.212-.212.313-.406.313-.198 0-.353-.105-.438-.313-.082-.21-.125-.55-.125-1.03 0-.484.044-.823.128-1.032.085-.212.242-.344.438-.344zm-6.095.344h.03c-.004.034-.02.163-.03.374-.01.212 0 .39 0 .5v.657h-.938l.72-1.097c.093-.14.152-.29.218-.438z" fill="#fff"/>
</svg>
