<svg xmlns="http://www.w3.org/2000/svg" width="90.64" height="100">
    <path d="M0 0v13.084h19.21l6.36-6.52L19.21 0H0z" fill="#555753"/>
    <path d="M0 14.486V27.57h29.683l6.354-6.518-6.354-6.566H0z" fill="#888a85"/>
    <path d="M0 28.972v13.084h40.403l6.353-6.52-6.353-6.564H0z" fill="#babdb6"/>
    <path d="M0 43.458v13.084h52.1l6.354-6.52-6.353-6.564H0z" fill="#d3d7cf"/>
    <path d="M0 57.944v13.084h62.504l6.353-6.52-6.353-6.564H0z" fill="#babdb6"/>
    <path d="M0 72.43v13.084h73.966l6.354-6.52-6.354-6.564H0z" fill="#888a85"/>
    <path d="M0 86.916V100h84.287l6.353-6.52-6.353-6.564H0z" fill="#555753"/>
    <path d="M16.188 3L14 9.688h1.97l.342-1.25h2.157l.342 1.25h1.968L18.595 3h-2.407zm1.187 1.094c.03.167.093.427.188.812.097.386.183.726.25.97l.312 1.093h-1.438c.277-1.047.453-1.77.532-2.127.08-.356.127-.595.154-.75zm-6.688.437c-.466 0-.806.14-1.03.47-.225.33-.345.838-.345 1.53 0 .668.115 1.193.344 1.533.232.34.578.5 1.03.5.47 0 .808-.17 1.033-.5.224-.33.34-.844.34-1.53 0-.665-.11-1.156-.342-1.5-.233-.345-.58-.5-1.033-.5zm-4.218.065l-.158 2 .343.156c.072-.02.167-.044.282-.062.114-.02.217 0 .312 0 .525 0 .78.198.78.594 0 .417-.24.626-.75.626-.168 0-.343-.047-.53-.093-.19-.05-.36-.113-.5-.188v.72c.27.14.624.217 1.062.217.504 0 .885-.106 1.156-.343.27-.237.405-.592.405-1.032 0-.37-.118-.66-.344-.875C8.307 6.1 8.005 6 7.625 6c-.16 0-.297.006-.406.03l-.095.032.063-.78h1.406v-.688H6.47zm-2.158.312L1.624 6.25v.375l2.688 1.188v-.657l-1.844-.75 1.842-.843v-.657zm6.375.282c.19 0 .32.1.406.31.088.21.156.55.156 1.03s-.07.853-.157 1.065c-.086.21-.213.312-.406.312-.198 0-.354-.104-.438-.312-.084-.21-.095-.58-.095-1.063 0-.48.04-.82.125-1.03.086-.212.212-.312.408-.313zM1.624 7.94v.56h2.688v-.563H1.624z" fill="#fff"/>
    <path d="M24.47 17.72v6.655h2.593c.783 0 1.39-.185 1.843-.53.456-.35.688-.803.688-1.407 0-.407-.096-.745-.282-1-.185-.256-.493-.454-.906-.563v-.03c.313-.077.56-.237.75-.5.192-.265.313-.596.313-.97 0-.568-.25-.983-.69-1.25-.437-.27-1.095-.406-2-.406h-2.31zM9.75 18.874v.063c.122.118.312.26.53.437.22.176.388.327.5.406h.533v-.093c-.31-.358-.512-.63-.626-.812H9.75zm16.5.188h.5c.565 0 .844.188.844.562 0 .21-.045.394-.188.5-.14.106-.335.156-.593.156h-.563v-1.218zm-10.875.062c-.413 0-.728.13-.97.375-.237.243-.342.577-.342 1 0 .39.083.685.28.905.198.22.47.344.813.344.205 0 .364-.027.5-.095.137-.068.27-.206.375-.375h.033c-.014.308-.06.544-.156.72-.095.174-.227.324-.406.406-.18.08-.41.125-.687.125-.165 0-.35-.023-.5-.06v.656c.12.025.3.03.532.03.662 0 1.173-.18 1.5-.56.326-.383.5-.976.5-1.75 0-.36-.07-.65-.188-.907-.116-.26-.28-.46-.5-.595-.217-.137-.49-.22-.78-.22zm3.22 0c-.468 0-.808.17-1.032.5-.225.328-.344.837-.344 1.53 0 .667.112 1.16.342 1.5.23.342.577.5 1.03.5.47 0 .808-.17 1.032-.5.226-.33.344-.812.344-1.5 0-.663-.112-1.186-.345-1.53-.23-.344-.577-.5-1.03-.5zm-16.69.063l-.155 2 .313.187c.07-.022.166-.045.28-.063.116-.02.218-.03.313-.03.526 0 .813.198.813.594 0 .416-.276.625-.784.625-.168 0-.342-.048-.53-.095-.19-.048-.36-.08-.5-.156v.72c.268.14.624.185 1.062.185.503 0 .884-.107 1.155-.343.27-.237.406-.592.406-1.032 0-.37-.086-.66-.31-.874-.227-.213-.528-.312-.91-.312-.16 0-.295.006-.405.03l-.094.032.064-.78H4.03v-.69l-2.124.002zm4.22 0l-1.25 1 .406.5.44-.375c.054-.044.143-.112.28-.25v3.06h.814V19.19h-.688zm12.47.593c.19 0 .32.102.405.314.088.21.125.58.125 1.062 0 .477-.04.82-.125 1.032-.086.21-.212.312-.406.312-.198 0-.353-.104-.438-.313-.082-.21-.125-.548-.125-1.03 0-.483.043-.853.127-1.063.085-.212.242-.313.438-.313zm-3.19.032c.175 0 .328.072.44.22.112.146.155.317.155.53 0 .144-.067.264-.188.375-.12.11-.268.157-.437.157-.18 0-.287-.045-.375-.157-.088-.11-.156-.247-.156-.437 0-.222.06-.413.156-.53.097-.12.234-.157.406-.157zm-4.624.22c-.42 0-.81.1-1.154.28l.28.563c.326-.145.605-.22.845-.22.313 0 .47.134.47.44v.155h-.532c-.45.016-.775.098-1 .25-.222.15-.343.4-.343.72 0 .304.085.52.25.686.167.165.398.25.687.25.236 0 .418-.027.564-.093.147-.07.3-.17.437-.344h.033l.156.404h.56v-2.03c0-.36-.096-.607-.31-.782-.217-.176-.535-.282-.94-.282zm15.47 1.562h.595c.285 0 .507.038.656.156.153.118.22.31.22.53 0 .475-.282.72-.844.72h-.625v-1.406zm-15.343.125h.313v.25c0 .18-.074.326-.19.435-.112.11-.246.157-.436.157-.266 0-.407-.113-.406-.344 0-.163.07-.297.187-.376.117-.08.293-.118.53-.125zM38.563 32.03c-.66 0-1.23.125-1.72.407-.485.28-.863.697-1.124 1.22-.26.522-.377 1.122-.377 1.812 0 1.1.246 1.946.78 2.53.54.582 1.308.874 2.313.874.702 0 1.35-.13 1.907-.375v-1.53c-.28.113-.568.23-.844.31-.277.082-.55.125-.845.125-.975 0-1.47-.656-1.468-1.937 0-.618.103-1.09.343-1.44.24-.35.604-.53 1.032-.53.283 0 .536.046.782.125.246.08.504.166.75.28l.53-1.405c-.655-.313-1.342-.47-2.062-.47zM9.75 33.376v.063c.122.117.312.26.53.436.22.176.388.296.5.375h.533v-.062c-.31-.358-.512-.63-.626-.812H9.75zm11.97.22c-.468 0-.808.17-1.032.5-.225.327-.344.836-.344 1.53 0 .666.145 1.19.375 1.53.23.342.544.5 1 .5.466 0 .836-.17 1.06-.5.226-.33.313-.843.313-1.53 0-.664-.11-1.156-.344-1.5-.23-.344-.578-.53-1.03-.53zm-18.814.03c-.412 0-.728.13-.97.375-.237.245-.374.58-.373 1 0 .39.115.687.312.907.197.22.47.313.813.313.204 0 .363-.027.5-.095.136-.068.27-.175.374-.344h.032c-.015.31-.093.545-.188.72-.095.175-.227.293-.406.376-.18.08-.41.125-.688.125-.165 0-.318-.024-.468-.062v.688c.12.025.298.03.53.03.663 0 1.174-.18 1.5-.56.328-.383.47-.976.47-1.75 0-.36-.04-.68-.157-.94-.116-.26-.28-.456-.5-.593-.217-.136-.49-.187-.78-.187zm3.22.03l-1.25 1.032.405.5.44-.374c.054-.044.143-.144.28-.282v3.062h.814v-3.937h-.688zm9.343 0l-1.284 1.032.407.5.47-.374c.052-.044.142-.144.28-.282l-.03.407-.002.375v2.28h.845v-3.937h-.687zm2.03 0l-.126 2 .313.19c.07-.023.166-.046.28-.064.116-.018.218-.03.313-.03.527 0 .782.197.782.594 0 .416-.242.625-.75.625-.168 0-.342-.016-.53-.063-.19-.048-.36-.112-.5-.187v.718c.268.14.624.218 1.062.218.504 0 .885-.107 1.156-.343.27-.237.406-.592.406-1.032 0-.37-.117-.66-.343-.873-.225-.213-.526-.312-.907-.312-.16 0-.297.006-.406.03l-.094.032.094-.78h1.406v-.72H17.5zm-14.564.626c.175 0 .296.073.407.22.113.147.187.35.187.563 0 .143-.066.263-.186.374-.12.11-.27.156-.438.156-.18 0-.318-.045-.406-.157-.088-.11-.125-.28-.125-.47 0-.223.06-.382.156-.5.1-.12.236-.19.41-.19zm18.782 0c.19 0 .35.102.436.314.088.21.125.548.125 1.03 0 .478-.04.82-.125 1.032-.086.212-.243.313-.437.313-.2 0-.323-.105-.407-.313-.082-.21-.125-.548-.124-1.03 0-.484.04-.822.125-1.032.085-.212.21-.313.407-.313zm-10.94.25c-.42 0-.81.1-1.155.282l.28.532c.326-.146.605-.22.845-.22.312 0 .47.165.47.47v.125l-.533.03c-.45.017-.775.1-1 .25-.222.15-.343.37-.343.69 0 .303.085.552.25.717.167.165.398.25.687.25.235 0 .417-.027.563-.093.147-.07.3-.2.437-.376h.033l.156.407h.56v-2c0-.36-.097-.637-.31-.813-.218-.175-.536-.25-.94-.25zm.126 1.69h.313v.218c0 .18-.074.328-.19.437-.112.11-.246.188-.436.188-.265 0-.406-.113-.405-.344 0-.162.07-.296.187-.375.117-.08.293-.118.53-.125zM46.25 46.688v6.687h2.156c1.11 0 1.952-.305 2.563-.906.61-.604.935-1.484.935-2.596 0-1.033-.292-1.797-.875-2.344-.58-.545-1.398-.842-2.468-.843H46.25zm-33.344 1.187v.03c.122.12.28.292.5.47.22.176.387.296.5.375h.563v-.063c-.31-.358-.545-.63-.66-.812h-.905zm5.72.22c-.188 0-.35.024-.5.06-.152.037-.28.09-.407.157-.13.07-.308.18-.5.344l.467.532c.156-.13.293-.212.437-.282.144-.07.285-.125.438-.125.145 0 .257.05.343.127.088.077.156.186.157.344 0 .107-.024.215-.063.314-.04.098-.1.195-.19.312-.09.115-.3.325-.592.625l-.97 1v.595H20v-.72h-1.72v-.03l.5-.47c.34-.308.556-.55.69-.718.133-.167.248-.342.31-.5.066-.16.095-.32.095-.5 0-.208-.052-.4-.156-.562-.106-.162-.25-.286-.44-.375-.188-.09-.41-.126-.656-.126zm3.03 0c-.497 0-.922.115-1.28.374l.374.592c.163-.106.336-.176.47-.22.133-.042.245-.062.374-.062.373 0 .562.14.562.44 0 .193-.077.324-.218.405-.14.08-.352.125-.657.125h-.31v.625h.31c.33 0 .57.048.72.125.15.077.22.19.22.375 0 .206-.057.375-.19.47-.13.092-.35.124-.623.124-.18 0-.348-.016-.53-.065-.184-.048-.35-.11-.5-.187v.718c.33.14.697.187 1.124.187.51 0 .914-.103 1.19-.313.273-.21.405-.496.405-.874 0-.26-.087-.473-.25-.626-.164-.154-.4-.24-.72-.28V50c.27-.065.477-.172.626-.344.15-.172.22-.38.22-.625 0-.292-.107-.52-.344-.685-.235-.165-.56-.25-.97-.25zm3.22 0c-.467 0-.808.17-1.032.5-.225.327-.344.836-.344 1.53 0 .666.114 1.16.344 1.5.23.34.577.5 1.03.5.47 0 .808-.14 1.032-.47.226-.33.344-.843.344-1.53 0-.664-.11-1.187-.344-1.53-.23-.346-.577-.5-1.03-.5zM3 48.155l-1.28 1 .405.5.438-.375c.053-.042.174-.11.312-.25l-.03.407v2.656h.842v-3.937H3zm2.03 0l-.155 2 .344.19c.07-.024.164-.047.28-.065.114-.018.216-.03.312-.03.525 0 .78.197.78.594 0 .416-.242.625-.75.625-.168 0-.342-.018-.53-.065-.19-.048-.36-.112-.5-.187v.718c.27.14.624.187 1.062.187.504 0 .885-.107 1.156-.344.272-.237.407-.56.407-1 0-.37-.117-.66-.343-.875-.225-.213-.526-.343-.907-.343-.16 0-.296.006-.406.03l-.092.032.063-.78h1.407v-.69H5.03zm4.25 0l-1.28 1 .406.5.47-.375c.053-.042.142-.11.28-.25l-.03.407v2.656h.843v-3.937h-.69zm38.782 0h.5c.493 0 .854.143 1.094.44.243.292.375.73.375 1.342 0 .652-.12 1.15-.373 1.468-.255.316-.672.47-1.218.47h-.377v-3.72zm-23.187.594c.192 0 .32.13.406.343.09.21.158.548.158 1.03 0 .478-.07.82-.156 1.032-.085.212-.21.313-.405.313-.197 0-.353-.106-.438-.314-.083-.21-.094-.548-.094-1.03 0-.484.04-.822.125-1.032.084-.212.21-.344.406-.344zm-10.97.25c-.42 0-.777.1-1.124.28l.25.563c.327-.146.606-.22.846-.22.312 0 .47.165.47.47v.125h-.5c-.452.015-.808.096-1.033.25-.222.15-.312.398-.312.718 0 .304.086.522.25.687.168.165.368.25.657.25.235 0 .45-.027.594-.094.148-.068.27-.17.407-.344h.03l.158.407h.594v-2c0-.36-.13-.637-.345-.813-.216-.175-.534-.28-.938-.28zm.126 1.687h.315v.25c0 .18-.042.328-.156.437-.115.11-.28.156-.47.156-.266 0-.375-.11-.375-.343 0-.16.04-.264.156-.343.118-.08.294-.15.53-.157zM57.844 61.094v6.656h3.937v-1.47h-2.154v-1.25h2v-1.436h-2v-1.032h2.156v-1.468h-3.936zm-44.938 1.25v.062c.122.12.28.26.5.438.22.176.387.296.5.375h.563v-.065c-.31-.36-.545-.63-.66-.812h-.905zm11.97.218c-.467 0-.808.17-1.032.5-.225.33-.344.837-.344 1.532 0 .665.114 1.19.344 1.53.23.342.577.5 1.03.5.47 0 .808-.17 1.032-.5.226-.33.344-.843.344-1.53 0-.664-.11-1.156-.344-1.5-.23-.345-.577-.53-1.03-.532zM3 62.594c-.187 0-.35-.007-.5.03-.15.037-.28.09-.406.157-.128.07-.306.21-.5.377l.468.532c.157-.13.294-.244.438-.314.144-.07.285-.094.438-.094.145 0 .288.018.374.095.088.077.125.217.126.375 0 .106-.024.214-.063.313-.04.098-.098.195-.188.312-.09.115-.3.325-.593.625l-.97 1v.563h2.75v-.688H2.657v-.03l.5-.5c.338-.31.586-.522.72-.69.134-.166.217-.34.28-.5.065-.158.094-.318.094-.5 0-.207-.05-.4-.155-.56-.104-.163-.25-.287-.438-.376-.188-.09-.41-.125-.656-.125zm2.688 0c-.347.048-.67.18-.938.375l.375.56c.163-.106.336-.175.47-.22.133-.042.245-.06.374-.06.37 0 .56.14.56.437 0 .193-.077.356-.22.437-.14.08-.35.094-.655.094h-.312v.655h.312c.33 0 .568.017.72.094.15.076.218.22.218.405 0 .206-.057.344-.188.438-.13.093-.32.156-.593.156-.18 0-.38-.015-.563-.064-.184-.048-.35-.11-.5-.187v.686c.33.143.697.22 1.124.22.51 0 .913-.103 1.188-.313.274-.21.406-.496.406-.874 0-.26-.088-.473-.25-.626-.165-.154-.402-.273-.72-.312.27-.065.476-.172.625-.344.15-.17.22-.38.22-.624 0-.293-.108-.552-.345-.718-.235-.165-.56-.218-.97-.218-.123 0-.227-.016-.343 0zm12.468 0c-.347.048-.668.18-.937.375l.404.56c.163-.106.305-.175.438-.22.134-.042.277-.06.406-.06.372 0 .56.14.56.437 0 .193-.076.356-.218.437-.14.08-.382.094-.687.094h-.28v.655h.28c.33 0 .568.017.72.094.15.076.217.22.218.405 0 .206-.056.344-.187.438-.13.093-.32.156-.594.156-.18 0-.38-.015-.56-.064-.185-.048-.35-.11-.5-.187v.686c.33.143.727.22 1.154.22.51 0 .882-.103 1.156-.313.276-.21.407-.496.407-.874 0-.26-.055-.473-.218-.626-.166-.154-.435-.273-.75-.312.267-.065.505-.172.654-.344.15-.17.22-.38.22-.624 0-.293-.14-.552-.376-.718-.236-.165-.563-.218-.97-.218-.124 0-.228-.016-.344 0zm3.157 0c-.347.048-.67.18-.938.375l.375.56c.163-.106.336-.175.47-.22.133-.042.245-.06.374-.06.373 0 .562.14.562.437 0 .193-.077.356-.218.437-.14.08-.352.094-.657.094h-.31v.655h.31c.33 0 .57.017.72.094.15.076.22.22.22.405 0 .206-.057.344-.19.438-.13.093-.35.156-.623.156-.18 0-.348-.015-.53-.064-.184-.048-.35-.11-.5-.187v.686c.33.143.697.22 1.124.22.51 0 .914-.103 1.19-.313.273-.21.405-.496.405-.874 0-.26-.087-.473-.25-.626-.164-.154-.4-.273-.72-.312.27-.065.477-.172.626-.344.15-.17.22-.38.22-.624 0-.293-.107-.552-.344-.718-.235-.165-.56-.218-.97-.218-.123 0-.227-.016-.343 0zm-12.032.03L8 63.657l.406.5.47-.375c.053-.042.142-.142.28-.28l-.03.406v2.657h.843v-3.937h-.69zm15.596.626c.192 0 .32.1.406.313.09.21.157.548.157 1.03 0 .478-.07.82-.157 1.032-.085.212-.21.344-.405.344-.197 0-.353-.107-.438-.315-.082-.21-.093-.58-.093-1.062 0-.483.04-.822.125-1.03.083-.213.21-.314.405-.314zm-10.97.25c-.42 0-.777.1-1.124.28l.25.532c.326-.145.605-.218.845-.218.312 0 .47.164.47.47v.124l-.5.03c-.452.017-.808.098-1.033.25-.222.15-.312.37-.312.688 0 .305.085.554.25.72.167.164.367.25.656.25.235 0 .45-.028.594-.095.147-.066.268-.2.406-.373h.03l.158.406h.594v-2c0-.358-.13-.636-.344-.812-.216-.175-.534-.25-.938-.25zm.126 1.688h.314v.25c0 .18-.042.328-.156.437-.114.11-.28.156-.47.156-.265 0-.374-.11-.374-.342 0-.16.04-.296.156-.374.117-.08.293-.118.53-.126zM69.594 75.688v6.656h1.75v-2.5h2v-1.438h-2v-1.28h2.187v-1.44h-3.935zm-56.688 1.156v.03c.122.12.28.292.5.47.22.176.387.296.5.375h.563v-.065c-.31-.36-.545-.63-.66-.812h-.905zm-10 .22c-.497 0-.922.115-1.28.374L2 78.03c.163-.105.305-.174.438-.218.134-.043.277-.062.406-.062.373 0 .562.14.562.438 0 .193-.077.325-.22.406-.138.08-.35.125-.655.125h-.31v.623h.28c.33 0 .57.048.72.125.15.076.25.22.25.405 0 .206-.09.344-.22.438-.13.094-.32.125-.593.125-.18 0-.348-.014-.53-.062-.184-.048-.38-.11-.532-.188v.72c.33.14.73.218 1.156.218.51 0 .883-.134 1.157-.344.275-.21.438-.496.438-.875 0-.26-.087-.472-.25-.625-.164-.153-.4-.24-.72-.28v-.03c.27-.066.477-.173.626-.345.15-.172.22-.38.22-.625 0-.294-.107-.522-.344-.688-.235-.165-.56-.25-.97-.25zm3.125 0c-.495 0-.92.115-1.28.374l.376.593c.163-.104.336-.173.47-.217.133-.043.245-.062.374-.062.372 0 .56.14.56.44 0 .192-.076.324-.218.405-.14.08-.35.125-.656.125h-.312v.624h.312c.33 0 .568.048.72.125.15.075.218.22.218.404 0 .206-.057.344-.188.438-.13.093-.32.124-.593.124-.18 0-.38-.014-.563-.062-.183-.048-.348-.11-.5-.188v.72c.33.14.698.218 1.125.218.51 0 .913-.134 1.188-.344.274-.21.406-.495.406-.874 0-.26-.09-.472-.25-.625-.166-.152-.403-.24-.72-.28v-.03c.27-.065.475-.172.624-.344.15-.172.22-.38.22-.625 0-.293-.108-.52-.345-.687-.236-.165-.56-.25-.97-.25zm18.846 0c-.466 0-.807.168-1.03.5-.226.327-.345.835-.345 1.53 0 .665.115 1.16.345 1.5.23.34.577.53 1.03.53.47 0 .808-.17 1.032-.5.226-.33.344-.843.344-1.53 0-.664-.11-1.187-.343-1.53-.23-.346-.577-.5-1.03-.5zm-15.594.06l-1.28 1 .406.5.47-.343c.053-.04.142-.14.28-.28l-.03.407v2.657h.843v-3.937h-.69zm9.564 0l-1.72 2.532v.594h1.657v.813h.814v-.813h.468v-.656h-.468v-2.47h-.75zm1.812 0l-.156 2 .344.19c.072-.023.166-.046.28-.064.116-.02.218-.03.314-.03.525 0 .78.196.78.593 0 .416-.242.624-.75.624-.168 0-.342-.015-.53-.062-.19-.048-.36-.112-.5-.188v.72c.27.14.624.218 1.062.218.504 0 .885-.138 1.156-.375.27-.237.406-.56.407-1 0-.37-.118-.662-.344-.875-.225-.213-.526-.344-.906-.344-.162 0-.297.04-.407.065h-.093l.062-.78h1.406v-.69h-2.124zm4.22.595c.19 0 .32.13.405.342.09.21.157.548.157 1.03 0 .478-.07.82-.156 1.032-.085.212-.21.313-.405.313-.198 0-.354-.105-.44-.313-.08-.21-.092-.55-.092-1.03 0-.484.04-.823.125-1.032.083-.212.21-.344.405-.344zm-10.97.28c-.42 0-.778.07-1.125.25l.25.562c.326-.146.605-.22.845-.22.312 0 .47.165.47.47v.124h-.5c-.452.017-.808.098-1.033.25-.222.15-.312.4-.312.72 0 .304.085.553.25.718.167.165.367.25.656.25.234 0 .45-.06.593-.125.147-.07.268-.17.406-.345h.03l.157.406h.594v-2c0-.357-.13-.635-.343-.81-.216-.177-.534-.25-.938-.25zm4.906.062c-.005.034.01.163 0 .374-.008.212-.03.39-.03.5v.657h-.938l.718-1.094c.094-.14.184-.29.25-.44zm-4.468 1.593v.25c0 .18-.042.328-.156.438-.114.11-.28.156-.47.156-.265 0-.374-.113-.374-.345 0-.16.04-.265.156-.344.117-.077.293-.116.53-.123l.314-.032z" font-size="5.511"/>
    <path d="M82.438 90c-1.106 0-1.95.277-2.563.875-.613.598-.938 1.456-.938 2.53 0 1.104.285 1.937.844 2.532.564.596 1.35.907 2.377.907.936 0 1.813-.14 2.594-.406v-3.594h-2.874v1.406h1.188v1.03c-.225.053-.483.064-.75.064-.49 0-.864-.144-1.126-.47-.258-.327-.375-.814-.374-1.436 0-.635.12-1.13.406-1.47.287-.342.692-.5 1.218-.5.574 0 1.113.108 1.593.344l.565-1.406c-.277-.12-.595-.202-.97-.28-.37-.08-.767-.126-1.186-.126zm-68.594 1.438c-.467 0-.838.17-1.063.5-.222.328-.31.836-.31 1.53 0 .666.114 1.16.343 1.5.232.342.578.5 1.032.5.468 0 .807-.138 1.03-.468.227-.33.345-.844.345-1.53 0-.665-.143-1.188-.376-1.532-.232-.345-.546-.5-1-.5zM7.78 91.5l-1.718 2.53v.595H7.75v.813h.813v-.813h.468v-.656h-.466V91.5H7.78zm1.845 0l-.156 2 .31.188c.072-.022.167-.045.282-.063.114-.02.217-.03.312-.03.526 0 .812.196.813.593 0 .416-.274.625-.782.624-.168 0-.343-.015-.53-.062-.19-.048-.36-.112-.5-.188v.72c.268.14.624.187 1.062.187.504 0 .885-.11 1.156-.346.27-.237.406-.56.406-1 0-.37-.087-.662-.314-.875-.224-.214-.525-.345-.906-.345-.16 0-.296.038-.405.063h-.094l.065-.782h1.406V91.5H9.626zm-8 .5v.625l1.844.844-1.846.78v.624l2.688-1.156v-.407L1.624 92zm12.22.094c.19 0 .32.132.405.344.088.21.125.548.125 1.03 0 .478-.04.82-.125 1.032-.086.212-.212.313-.406.313-.198 0-.353-.105-.438-.313-.082-.21-.125-.55-.125-1.03 0-.484.043-.823.127-1.032.085-.212.242-.344.438-.344zm-6.095.344h.03c-.004.034-.02.163-.03.374-.01.212 0 .39 0 .5v.657h-.938l.72-1.096c.093-.14.152-.29.218-.438z" font-size="5.511" font-weight="bold" fill="#fff"/>
</svg>
