<?xml version="1.0" encoding="UTF-8" standalone="no"?>
<svg
   xmlns:dc="http://purl.org/dc/elements/1.1/"
   xmlns:cc="http://creativecommons.org/ns#"
   xmlns:rdf="http://www.w3.org/1999/02/22-rdf-syntax-ns#"
   xmlns:svg="http://www.w3.org/2000/svg"
   xmlns="http://www.w3.org/2000/svg"
   xmlns:sodipodi="http://sodipodi.sourceforge.net/DTD/sodipodi-0.dtd"
   xmlns:inkscape="http://www.inkscape.org/namespaces/inkscape"
   width="90.64"
   height="100"
   id="svg2"
   version="1.1"
   inkscape:version="0.48.5 r10040"
   sodipodi:docname="dpe.svg">
  <metadata
     id="metadata28">
    <rdf:RDF>
      <cc:Work
         rdf:about="">
        <dc:format>image/svg+xml</dc:format>
        <dc:type
           rdf:resource="http://purl.org/dc/dcmitype/StillImage" />
      </cc:Work>
    </rdf:RDF>
  </metadata>
  <defs
     id="defs26" />
  <sodipodi:namedview
     pagecolor="#ffffff"
     bordercolor="#666666"
     borderopacity="1"
     objecttolerance="10"
     gridtolerance="10"
     guidetolerance="10"
     inkscape:pageopacity="0"
     inkscape:pageshadow="2"
     inkscape:window-width="1246"
     inkscape:window-height="716"
     id="namedview24"
     showgrid="false"
     inkscape:zoom="6.675088"
     inkscape:cx="72.154076"
     inkscape:cy="28.520796"
     inkscape:window-x="0"
     inkscape:window-y="0"
     inkscape:window-maximized="0"
     inkscape:current-layer="svg2" />
  <path
     d="M0 0v13.084h19.21l6.36-6.52L19.21 0H0z"
     fill="#555753"
     id="path4" />
  <path
     d="M0 14.486V27.57h29.683l6.354-6.518-6.354-6.566H0z"
     fill="#888a85"
     id="path6" />
  <path
     d="M0 28.972v13.084h40.403l6.353-6.52-6.353-6.564H0z"
     fill="#babdb6"
     id="path8" />
  <path
     d="M0 43.458v13.084h52.1l6.354-6.52-6.353-6.564H0z"
     fill="#d3d7cf"
     id="path10" />
  <path
     d="M0 57.944v13.084h62.504l6.353-6.52-6.353-6.564H0z"
     fill="#babdb6"
     id="path12" />
  <path
     d="M0 72.43v13.084h73.966l6.354-6.52-6.354-6.564H0z"
     fill="#888a85"
     id="path14" />
  <path
     d="M0 86.916V100h84.287l6.353-6.52-6.353-6.564H0z"
     fill="#555753"
     id="path16" />
  <path
     d="M16.188 3L14 9.688h1.97l.342-1.25h2.157l.342 1.25h1.968L18.595 3h-2.407zm1.187 1.094c.03.167.093.427.188.812.097.386.183.726.25.97l.312 1.093h-1.438c.277-1.047.453-1.77.532-2.127.08-.356.127-.595.154-.75zm-6.688.437c-.466 0-.806.14-1.03.47-.225.33-.345.838-.345 1.53 0 .668.115 1.193.344 1.533.232.34.578.5 1.03.5.47 0 .808-.17 1.033-.5.224-.33.34-.844.34-1.53 0-.665-.11-1.156-.342-1.5-.233-.345-.58-.5-1.033-.5zm-4.218.065l-.158 2 .343.156c.072-.02.167-.044.282-.062.114-.02.217 0 .312 0 .525 0 .78.198.78.594 0 .417-.24.626-.75.626-.168 0-.343-.047-.53-.093-.19-.05-.36-.113-.5-.188v.72c.27.14.624.217 1.062.217.504 0 .885-.106 1.156-.343.27-.237.405-.592.405-1.032 0-.37-.118-.66-.344-.875C8.307 6.1 8.005 6 7.625 6c-.16 0-.297.006-.406.03l-.095.032.063-.78h1.406v-.688H6.47zm-2.158.312L1.624 6.25v.375l2.688 1.188v-.657l-1.844-.75 1.842-.843v-.657zm6.375.282c.19 0 .32.1.406.31.088.21.156.55.156 1.03s-.07.853-.157 1.065c-.086.21-.213.312-.406.312-.198 0-.354-.104-.438-.312-.084-.21-.095-.58-.095-1.063 0-.48.04-.82.125-1.03.086-.212.212-.312.408-.313zM1.624 7.94v.56h2.688v-.563H1.624z"
     fill="#fff"
     id="path18" />
  <path
     d="M 24.4375 17.71875 L 24.4375 24.375 L 27.03125 24.375 C 27.814682 24.375 28.422546 24.189919 28.875 23.84375 C 29.33048 23.494545 29.562494 23.010529 29.5625 22.40625 C 29.562494 21.999352 29.466475 21.692575 29.28125 21.4375 C 29.096014 21.182431 28.819219 20.98432 28.40625 20.875 L 28.40625 20.84375 C 28.719012 20.767839 28.964941 20.576686 29.15625 20.3125 C 29.347548 20.048322 29.437494 19.748503 29.4375 19.375 C 29.437494 18.807166 29.221548 18.392224 28.78125 18.125 C 28.343979 17.854752 27.686145 17.718757 26.78125 17.71875 L 24.4375 17.71875 z M 9.75 18.875 L 9.75 18.9375 C 9.8720458 19.055961 10.062283 19.197318 10.28125 19.375 C 10.500214 19.550894 10.668175 19.671032 10.78125 19.75 L 11.3125 19.75 L 11.3125 19.6875 C 11.003792 19.328544 10.800571 19.056279 10.6875 18.875 L 9.75 18.875 z M 26.25 19.0625 L 26.75 19.0625 C 27.314799 19.062505 27.593746 19.251507 27.59375 19.625 C 27.593746 19.834528 27.517715 19.987474 27.375 20.09375 C 27.235314 20.200034 27.039355 20.250004 26.78125 20.25 L 26.25 20.25 L 26.25 19.0625 z M 18.59375 19.09375 C 18.127101 19.093754 17.78685 19.263511 17.5625 19.59375 C 17.33815 19.922202 17.21875 20.430414 17.21875 21.125 C 17.21875 21.790873 17.332765 22.283988 17.5625 22.625 C 17.794028 22.966012 18.139664 23.15625 18.59375 23.15625 C 19.062192 23.15625 19.400647 22.986494 19.625 22.65625 C 19.851142 22.326007 19.968747 21.81241 19.96875 21.125 C 19.968747 20.460926 19.858321 19.969605 19.625 19.625 C 19.393468 19.280402 19.047833 19.093754 18.59375 19.09375 z M 15.09375 19.125 C 14.816453 19.171105 14.586627 19.284337 14.40625 19.46875 C 14.167541 19.712847 14.0625 20.046975 14.0625 20.46875 C 14.0625 20.860019 14.146322 21.185491 14.34375 21.40625 C 14.541178 21.625217 14.813442 21.718752 15.15625 21.71875 C 15.360856 21.718752 15.519843 21.6932 15.65625 21.625 C 15.792653 21.556799 15.92715 21.449963 16.03125 21.28125 L 16.0625 21.28125 C 16.048139 21.588162 16.00137 21.824111 15.90625 22 C 15.811124 22.174097 15.679479 22.29244 15.5 22.375 C 15.320519 22.455769 15.090693 22.500001 14.8125 22.5 C 14.647377 22.5 14.463263 22.47519 14.3125 22.4375 L 14.3125 23.09375 C 14.432751 23.11888 14.610425 23.15625 14.84375 23.15625 C 15.50603 23.15625 16.017093 22.944793 16.34375 22.5625 C 16.670401 22.180208 16.843747 21.619106 16.84375 20.84375 C 16.843747 20.484793 16.772909 20.164704 16.65625 19.90625 C 16.539585 19.646007 16.375214 19.448908 16.15625 19.3125 C 15.939077 19.176102 15.665756 19.125004 15.375 19.125 C 15.271798 19.125001 15.186182 19.109632 15.09375 19.125 z M 1.875 19.15625 L 1.75 21.15625 L 2.0625 21.34375 C 2.1342913 21.32221 2.2288818 21.2992 2.34375 21.28125 C 2.4586162 21.26154 2.561124 21.250001 2.65625 21.25 C 3.1821251 21.250001 3.4687479 21.447101 3.46875 21.84375 C 3.4687479 22.260145 3.1954271 22.468751 2.6875 22.46875 C 2.5187875 22.46875 2.3447032 22.45292 2.15625 22.40625 C 1.9677952 22.357791 1.798039 22.29413 1.65625 22.21875 L 1.65625 22.9375 C 1.9254698 23.079294 2.2808175 23.15625 2.71875 23.15625 C 3.2230875 23.15625 3.6039827 23.018163 3.875 22.78125 C 4.1460123 22.544336 4.2812471 22.220977 4.28125 21.78125 C 4.2812471 21.409728 4.1948923 21.119833 3.96875 20.90625 C 3.7443975 20.692671 3.4117459 20.562502 3.03125 20.5625 C 2.8697163 20.5625 2.7344815 20.59988 2.625 20.625 L 2.53125 20.625 L 2.625 19.875 L 4.03125 19.875 L 4.03125 19.15625 L 1.875 19.15625 z M 6.125 19.15625 L 4.875 20.15625 L 5.25 20.65625 L 5.71875 20.3125 C 5.7725928 20.269428 5.8617989 20.169452 6 20.03125 L 6 20.4375 L 5.96875 20.8125 L 5.96875 23.09375 L 6.8125 23.09375 L 6.8125 19.15625 L 6.125 19.15625 z M 15.40625 19.78125 C 15.580344 19.781253 15.732471 19.85283 15.84375 20 C 15.956819 20.147177 15.999998 20.317671 16 20.53125 C 15.999998 20.674837 15.932749 20.794974 15.8125 20.90625 C 15.692246 21.015734 15.54371 21.093752 15.375 21.09375 C 15.195518 21.093752 15.08794 21.017529 15 20.90625 C 14.912052 20.794974 14.843749 20.659001 14.84375 20.46875 C 14.843749 20.246197 14.90308 20.08721 15 19.96875 C 15.096918 19.850295 15.233948 19.781253 15.40625 19.78125 z M 18.59375 19.78125 C 18.785792 19.781253 18.91385 19.881966 19 20.09375 C 19.087948 20.303744 19.124998 20.642201 19.125 21.125 C 19.124998 21.602419 19.08615 21.944464 19 22.15625 C 18.913848 22.368037 18.787587 22.46875 18.59375 22.46875 C 18.396321 22.46875 18.24061 22.364448 18.15625 22.15625 C 18.073689 21.94626 18.031249 21.607803 18.03125 21.125 C 18.031249 20.642201 18.07189 20.303744 18.15625 20.09375 C 18.240604 19.881966 18.398116 19.781253 18.59375 19.78125 z M 10.78125 20.03125 C 10.359471 20.031253 9.9713959 20.099978 9.625 20.28125 L 9.90625 20.84375 C 10.231108 20.698372 10.509495 20.625002 10.75 20.625 C 11.062294 20.625002 11.218748 20.788636 11.21875 21.09375 L 11.21875 21.21875 L 10.6875 21.21875 C 10.237003 21.234905 9.9118495 21.347444 9.6875 21.5 C 9.4649442 21.650765 9.3437497 21.868026 9.34375 22.1875 C 9.3437497 22.492616 9.4286309 22.741129 9.59375 22.90625 C 9.7606659 23.071372 9.9922857 23.15625 10.28125 23.15625 C 10.516367 23.15625 10.698369 23.09766 10.84375 23.03125 C 10.990922 22.963047 11.143048 22.861596 11.28125 22.6875 L 11.3125 22.6875 L 11.46875 23.09375 L 12.03125 23.09375 L 12.03125 21.09375 C 12.031247 20.734792 11.934124 20.457143 11.71875 20.28125 C 11.503372 20.105364 11.185079 20.031253 10.78125 20.03125 z M 26.25 21.5625 L 26.84375 21.5625 C 27.129184 21.562503 27.351204 21.631576 27.5 21.75 C 27.651825 21.868429 27.718746 22.028333 27.71875 22.25 C 27.718746 22.723707 27.436762 22.968751 26.875 22.96875 L 26.25 22.96875 L 26.25 21.5625 z M 11.21875 21.6875 L 11.21875 21.9375 C 11.218748 22.118776 11.146116 22.265518 11.03125 22.375 C 10.918176 22.484484 10.783997 22.531251 10.59375 22.53125 C 10.328118 22.531251 10.187499 22.41903 10.1875 22.1875 C 10.187499 22.025969 10.258337 21.92272 10.375 21.84375 C 10.491661 21.764784 10.66754 21.72595 10.90625 21.71875 L 11.21875 21.6875 z "
     id="path3083" />
  <path
     d="M 38.09375 32.0625 C 37.631431 32.115453 37.210414 32.256954 36.84375 32.46875 C 36.357897 32.748121 36.011144 33.165215 35.75 33.6875 C 35.491891 34.209795 35.34375 34.810702 35.34375 35.5 C 35.34375 36.602278 35.621812 37.448229 36.15625 38.03125 C 36.693722 38.614272 37.463642 38.90625 38.46875 38.90625 C 39.170194 38.90625 39.788052 38.777212 40.34375 38.53125 L 40.34375 37 C 40.06438 37.115391 39.776323 37.230514 39.5 37.3125 C 39.223668 37.394489 38.950793 37.437501 38.65625 37.4375 C 37.681507 37.437501 37.187498 36.781436 37.1875 35.5 C 37.187498 34.88358 37.322608 34.41171 37.5625 34.0625 C 37.802386 33.710263 38.13434 33.531255 38.5625 33.53125 C 38.844897 33.531255 39.097783 33.577304 39.34375 33.65625 C 39.589708 33.735206 39.847783 33.822115 40.09375 33.9375 L 40.625 32.53125 C 39.969095 32.21849 39.282163 32.062507 38.5625 32.0625 C 38.397765 32.062502 38.247856 32.044849 38.09375 32.0625 z M 9.75 33.375 L 9.75 33.4375 C 9.8720458 33.555961 10.062283 33.697318 10.28125 33.875 C 10.500214 34.050894 10.668175 34.171033 10.78125 34.25 L 11.3125 34.25 L 11.3125 34.1875 C 11.003792 33.828543 10.800571 33.556279 10.6875 33.375 L 9.75 33.375 z M 21.75 33.59375 C 21.283351 33.593754 20.91185 33.763511 20.6875 34.09375 C 20.46315 34.422202 20.375 34.930414 20.375 35.625 C 20.375 36.290873 20.489015 36.815238 20.71875 37.15625 C 20.950279 37.497262 21.295914 37.65625 21.75 37.65625 C 22.218442 37.65625 22.556897 37.486493 22.78125 37.15625 C 23.007392 36.826007 23.124997 36.31241 23.125 35.625 C 23.124997 34.960926 22.983321 34.469605 22.75 34.125 C 22.518468 33.780402 22.204083 33.593754 21.75 33.59375 z M 2.90625 33.625 C 2.4934445 33.625004 2.1780027 33.754116 1.9375 34 C 1.6987911 34.244096 1.5624999 34.578225 1.5625 35 C 1.5624999 35.391269 1.6775715 35.685492 1.875 35.90625 C 2.0724275 36.125218 2.3446919 36.250001 2.6875 36.25 C 2.8921059 36.250001 3.0510934 36.1932 3.1875 36.125 C 3.323903 36.056799 3.4583994 35.949963 3.5625 35.78125 L 3.59375 35.78125 C 3.5793895 36.088162 3.501372 36.324111 3.40625 36.5 C 3.3111235 36.674097 3.1794784 36.79244 3 36.875 C 2.8205184 36.955769 2.5906931 37.000001 2.3125 37 C 2.1473775 37 1.9945128 37.00644 1.84375 36.96875 L 1.84375 37.625 C 1.9640012 37.65013 2.141675 37.65625 2.375 37.65625 C 3.0372802 37.65625 3.517094 37.476043 3.84375 37.09375 C 4.1704012 36.711458 4.3437471 36.119106 4.34375 35.34375 C 4.3437471 34.984792 4.3041592 34.695955 4.1875 34.4375 C 4.0708352 34.177258 3.8752134 33.948908 3.65625 33.8125 C 3.4390769 33.676102 3.1970061 33.625004 2.90625 33.625 z M 6.125 33.65625 L 4.875 34.6875 L 5.25 35.1875 L 5.71875 34.8125 C 5.7725928 34.769428 5.8617956 34.669452 6 34.53125 L 6 34.9375 L 5.96875 35.3125 L 5.96875 37.59375 L 6.8125 37.59375 L 6.8125 33.65625 L 6.125 33.65625 z M 15.46875 33.65625 L 14.1875 34.6875 L 14.59375 35.1875 L 15.0625 34.8125 C 15.116342 34.769428 15.205549 34.669452 15.34375 34.53125 L 15.3125 34.9375 L 15.3125 35.3125 L 15.3125 37.59375 L 16.15625 37.59375 L 16.15625 33.65625 L 15.46875 33.65625 z M 17.5 33.65625 L 17.375 35.6875 L 17.6875 35.84375 C 17.759291 35.82221 17.853882 35.7992 17.96875 35.78125 C 18.083616 35.76154 18.18612 35.750002 18.28125 35.75 C 18.807125 35.750002 19.093748 35.947101 19.09375 36.34375 C 19.093748 36.760145 18.820427 36.968751 18.3125 36.96875 C 18.143787 36.96875 17.969704 36.95291 17.78125 36.90625 C 17.592796 36.857791 17.423039 36.79413 17.28125 36.71875 L 17.28125 37.4375 C 17.55047 37.579294 17.905818 37.65625 18.34375 37.65625 C 18.848088 37.65625 19.228982 37.549414 19.5 37.3125 C 19.771012 37.075587 19.906247 36.720977 19.90625 36.28125 C 19.906247 35.909728 19.819892 35.619833 19.59375 35.40625 C 19.369397 35.192671 19.036746 35.093752 18.65625 35.09375 C 18.494717 35.09375 18.359481 35.09988 18.25 35.125 L 18.15625 35.15625 L 18.25 34.375 L 19.65625 34.375 L 19.65625 33.65625 L 17.5 33.65625 z M 2.9375 34.28125 C 3.111594 34.281254 3.2324704 34.35283 3.34375 34.5 C 3.4568204 34.647177 3.5312479 34.848921 3.53125 35.0625 C 3.5312479 35.206086 3.4639996 35.326224 3.34375 35.4375 C 3.2234964 35.546984 3.0749597 35.593752 2.90625 35.59375 C 2.7267685 35.593752 2.587944 35.54878 2.5 35.4375 C 2.4120541 35.326225 2.374999 35.159002 2.375 34.96875 C 2.374999 34.746198 2.43433 34.58721 2.53125 34.46875 C 2.6281681 34.350294 2.7651976 34.281254 2.9375 34.28125 z M 21.75 34.28125 C 21.942042 34.281253 22.0701 34.381966 22.15625 34.59375 C 22.244198 34.803744 22.281248 35.142201 22.28125 35.625 C 22.281248 36.102419 22.2424 36.444464 22.15625 36.65625 C 22.070098 36.868037 21.943837 37 21.75 37 C 21.552571 37 21.39685 36.895698 21.3125 36.6875 C 21.229938 36.477509 21.187499 36.107803 21.1875 35.625 C 21.187499 35.142201 21.22814 34.803744 21.3125 34.59375 C 21.396854 34.381966 21.554366 34.281253 21.75 34.28125 z M 10.78125 34.53125 C 10.359471 34.531253 9.9713959 34.631228 9.625 34.8125 L 9.90625 35.375 C 10.231108 35.229622 10.509495 35.156252 10.75 35.15625 C 11.062294 35.156252 11.218748 35.288636 11.21875 35.59375 L 11.21875 35.71875 L 10.6875 35.75 C 10.237003 35.766155 9.9118495 35.847444 9.6875 36 C 9.4649442 36.150765 9.3437497 36.399277 9.34375 36.71875 C 9.3437497 37.023867 9.4286279 37.241128 9.59375 37.40625 C 9.7606659 37.571372 9.9922857 37.65625 10.28125 37.65625 C 10.516367 37.65625 10.698369 37.62891 10.84375 37.5625 C 10.990922 37.494297 11.143048 37.361596 11.28125 37.1875 L 11.3125 37.1875 L 11.46875 37.59375 L 12.03125 37.59375 L 12.03125 35.59375 C 12.031247 35.234792 11.934124 34.957143 11.71875 34.78125 C 11.503372 34.605364 11.185079 34.531253 10.78125 34.53125 z M 10.90625 36.21875 L 11.21875 36.21875 L 11.21875 36.46875 C 11.218748 36.650026 11.146116 36.796767 11.03125 36.90625 C 10.918176 37.015734 10.783997 37.0625 10.59375 37.0625 C 10.328118 37.0625 10.187499 36.95028 10.1875 36.71875 C 10.187499 36.557219 10.258337 36.42272 10.375 36.34375 C 10.491661 36.264784 10.66754 36.22595 10.90625 36.21875 z "
     id="path3094" />
  <path
     d="M 46.28125 46.6875 L 46.28125 53.34375 L 48.4375 53.34375 C 49.545845 53.34375 50.389644 53.038742 51 52.4375 C 51.613382 51.83626 51.937494 50.986388 51.9375 49.875 C 51.937494 48.84257 51.645516 48.046588 51.0625 47.5 C 50.48251 46.953423 49.662619 46.687507 48.59375 46.6875 L 46.28125 46.6875 z M 12.90625 47.84375 L 12.90625 47.90625 C 13.028296 48.024711 13.187283 48.166069 13.40625 48.34375 C 13.625214 48.519644 13.793176 48.67103 13.90625 48.75 L 14.46875 48.75 L 14.46875 48.65625 C 14.160042 48.297293 13.925571 48.025029 13.8125 47.84375 L 12.90625 47.84375 z M 18.625 48.09375 C 18.438339 48.09376 18.275763 48.11856 18.125 48.15625 C 17.974236 48.19215 17.84618 48.2443 17.71875 48.3125 C 17.591318 48.380706 17.412588 48.491132 17.21875 48.65625 L 17.6875 49.1875 C 17.843647 49.058277 17.981415 48.945 18.125 48.875 C 18.268583 48.805004 18.409941 48.781254 18.5625 48.78125 C 18.707877 48.781254 18.85135 48.82908 18.9375 48.90625 C 19.025448 48.98343 19.062498 49.09206 19.0625 49.25 C 19.0625 49.355896 19.03948 49.46379 19 49.5625 C 18.960512 49.661216 18.90224 49.75834 18.8125 49.875 C 18.722758 49.989869 18.511301 50.20027 18.21875 50.5 L 17.25 51.5 L 17.25 52.09375 L 20 52.09375 L 20 51.375 L 18.28125 51.375 L 18.28125 51.34375 L 18.78125 50.875 C 19.11867 50.566296 19.367182 50.323168 19.5 50.15625 C 19.634607 49.989335 19.71843 49.814195 19.78125 49.65625 C 19.84586 49.496515 19.874998 49.337528 19.875 49.15625 C 19.874998 48.948056 19.822845 48.755285 19.71875 48.59375 C 19.614649 48.432221 19.469701 48.30849 19.28125 48.21875 C 19.092793 48.12901 18.870886 48.093754 18.625 48.09375 z M 21.65625 48.09375 C 21.159089 48.093754 20.73396 48.210303 20.375 48.46875 L 20.75 49.0625 C 20.913326 48.95661 21.085933 48.85558 21.21875 48.8125 C 21.353359 48.76943 21.464523 48.750003 21.59375 48.75 C 21.967067 48.750003 22.156248 48.920816 22.15625 49.21875 C 22.156248 49.412592 22.079287 49.54424 21.9375 49.625 C 21.797503 49.703977 21.586365 49.750003 21.28125 49.75 L 20.96875 49.75 L 20.96875 50.375 L 21.28125 50.375 C 21.611492 50.375002 21.849235 50.42283 22 50.5 C 22.150765 50.577178 22.218748 50.690136 22.21875 50.875 C 22.218748 51.081403 22.162268 51.25042 22.03125 51.34375 C 21.900227 51.437084 21.680853 51.468751 21.40625 51.46875 C 21.226768 51.46875 21.058069 51.45471 20.875 51.40625 C 20.691929 51.357791 20.527558 51.29593 20.375 51.21875 L 20.375 51.9375 C 20.705243 52.079284 21.072837 52.125 21.5 52.125 C 22.009722 52.125 22.412893 52.022492 22.6875 51.8125 C 22.962102 51.600714 23.093747 51.316204 23.09375 50.9375 C 23.093747 50.677255 23.007074 50.465059 22.84375 50.3125 C 22.68042 50.158149 22.442678 50.07074 22.125 50.03125 L 22.125 50 C 22.394218 49.935389 22.601029 49.828553 22.75 49.65625 C 22.898963 49.483951 22.968747 49.27714 22.96875 49.03125 C 22.968747 48.736905 22.861911 48.508875 22.625 48.34375 C 22.389878 48.178637 22.063668 48.093754 21.65625 48.09375 z M 24.875 48.09375 C 24.40835 48.093754 24.0681 48.26351 23.84375 48.59375 C 23.6194 48.922202 23.5 49.430415 23.5 50.125 C 23.5 50.790873 23.614015 51.283989 23.84375 51.625 C 24.075279 51.966013 24.420914 52.125 24.875 52.125 C 25.343441 52.125 25.681897 51.955244 25.90625 51.625 C 26.132392 51.294758 26.249997 50.812411 26.25 50.125 C 26.249997 49.460926 26.139571 48.938355 25.90625 48.59375 C 25.674718 48.249151 25.329082 48.093754 24.875 48.09375 z M 48.0625 48.125 L 48.59375 48.125 C 49.085671 48.125005 49.447607 48.267958 49.6875 48.5625 C 49.930421 48.857052 50.062495 49.327153 50.0625 49.9375 C 50.062495 50.590366 49.942568 51.056162 49.6875 51.375 C 49.432424 51.690805 49.01533 51.843751 48.46875 51.84375 L 48.0625 51.84375 L 48.0625 48.125 z M 3 48.15625 L 1.71875 49.15625 L 2.125 49.65625 L 2.5625 49.28125 C 2.6163428 49.238177 2.7367989 49.169453 2.875 49.03125 L 2.84375 49.4375 L 2.84375 49.8125 L 2.84375 52.09375 L 3.65625 52.09375 L 3.65625 48.15625 L 3 48.15625 z M 5.03125 48.15625 L 4.875 50.15625 L 5.21875 50.34375 C 5.2905414 50.32221 5.3851319 50.2992 5.5 50.28125 C 5.6148663 50.26154 5.717374 50.250002 5.8125 50.25 C 6.3383751 50.250002 6.5937479 50.4471 6.59375 50.84375 C 6.5937479 51.260145 6.3516771 51.468751 5.84375 51.46875 C 5.6750375 51.46875 5.5009533 51.42167 5.3125 51.375 C 5.1240453 51.326541 4.9542889 51.29413 4.8125 51.21875 L 4.8125 51.9375 C 5.0817197 52.079284 5.4370675 52.125 5.875 52.125 C 6.3793375 52.125 6.7602327 52.018164 7.03125 51.78125 C 7.3022623 51.544337 7.4374971 51.189727 7.4375 50.75 C 7.4374971 50.378477 7.3198922 50.088584 7.09375 49.875 C 6.8693974 49.661421 6.567996 49.562503 6.1875 49.5625 C 6.0259664 49.5625 5.8907316 49.56863 5.78125 49.59375 L 5.6875 49.625 L 5.75 48.84375 L 7.15625 48.84375 L 7.15625 48.15625 L 5.03125 48.15625 z M 9.28125 48.15625 L 8 49.15625 L 8.40625 49.65625 L 8.875 49.28125 C 8.9288428 49.238177 9.0180489 49.169453 9.15625 49.03125 L 9.125 49.4375 L 9.125 49.8125 L 9.125 52.09375 L 9.96875 52.09375 L 9.96875 48.15625 L 9.28125 48.15625 z M 24.875 48.75 C 25.067042 48.750004 25.22635 48.850717 25.3125 49.0625 C 25.400438 49.272495 25.437498 49.642201 25.4375 50.125 C 25.437498 50.602419 25.39865 50.944465 25.3125 51.15625 C 25.226348 51.368038 25.068836 51.468751 24.875 51.46875 C 24.67757 51.468751 24.5531 51.364448 24.46875 51.15625 C 24.386188 50.946259 24.343749 50.607804 24.34375 50.125 C 24.343749 49.642201 24.38439 49.272495 24.46875 49.0625 C 24.553104 48.850717 24.679365 48.750004 24.875 48.75 z M 13.9375 49 C 13.51572 49.000003 13.127646 49.099978 12.78125 49.28125 L 13.03125 49.84375 C 13.356108 49.698371 13.634495 49.625003 13.875 49.625 C 14.187293 49.625003 14.343748 49.757386 14.34375 50.0625 L 14.34375 50.21875 L 13.84375 50.21875 C 13.393254 50.234905 13.03685 50.316193 12.8125 50.46875 C 12.589944 50.619515 12.5 50.868026 12.5 51.1875 C 12.5 51.492617 12.584878 51.709879 12.75 51.875 C 12.916916 52.040123 13.117286 52.125 13.40625 52.125 C 13.641368 52.125 13.85462 52.09766 14 52.03125 C 14.147172 51.963048 14.268048 51.861596 14.40625 51.6875 L 14.4375 51.6875 L 14.59375 52.09375 L 15.1875 52.09375 L 15.1875 50.0625 C 15.187497 49.703542 15.059123 49.457143 14.84375 49.28125 C 14.628371 49.105364 14.341328 49.000003 13.9375 49 z M 14.03125 50.6875 L 14.34375 50.6875 L 14.34375 50.9375 C 14.343748 51.118776 14.302365 51.265518 14.1875 51.375 C 14.074426 51.484485 13.908997 51.53125 13.71875 51.53125 C 13.453118 51.53125 13.343748 51.419031 13.34375 51.1875 C 13.343748 51.025969 13.383336 50.89147 13.5 50.8125 C 13.616661 50.733525 13.79254 50.6947 14.03125 50.6875 z "
     id="path3107" />
  <path
     d="M 57.84375 61.15625 L 57.84375 67.8125 L 61.8125 67.8125 L 61.8125 66.34375 L 59.65625 66.34375 L 59.65625 65.09375 L 61.65625 65.09375 L 61.65625 63.625 L 59.65625 63.625 L 59.65625 62.59375 L 61.8125 62.59375 L 61.8125 61.15625 L 57.84375 61.15625 z M 12.90625 62.3125 L 12.90625 62.375 C 13.028296 62.493461 13.187283 62.666068 13.40625 62.84375 C 13.625214 63.019644 13.793176 63.13978 13.90625 63.21875 L 14.46875 63.21875 L 14.46875 63.125 C 14.160042 62.766044 13.925571 62.493779 13.8125 62.3125 L 12.90625 62.3125 z M 3 62.5625 C 2.8133392 62.56251 2.6507621 62.58731 2.5 62.625 C 2.3492357 62.6609 2.2211801 62.71305 2.09375 62.78125 C 1.9663185 62.849456 1.7875882 62.959882 1.59375 63.125 L 2.0625 63.65625 C 2.218647 63.527028 2.3564149 63.41375 2.5 63.34375 C 2.6435829 63.273754 2.7849404 63.250003 2.9375 63.25 C 3.0828772 63.250003 3.195098 63.29783 3.28125 63.375 C 3.369193 63.452179 3.4374979 63.560811 3.4375 63.71875 C 3.437498 63.824646 3.414484 63.93254 3.375 64.03125 C 3.3355124 64.129967 3.277238 64.22709 3.1875 64.34375 C 3.0977582 64.458619 2.8863012 64.669019 2.59375 64.96875 L 1.625 65.96875 L 1.625 66.5625 L 4.375 66.5625 L 4.375 65.84375 L 2.65625 65.84375 L 2.65625 65.8125 L 3.15625 65.34375 C 3.4936706 65.035046 3.7421823 64.791918 3.875 64.625 C 4.0096076 64.458086 4.093429 64.282945 4.15625 64.125 C 4.22086 63.965266 4.2499972 63.806278 4.25 63.625 C 4.2499972 63.416806 4.1978457 63.224036 4.09375 63.0625 C 3.9896489 62.900972 3.8447017 62.77724 3.65625 62.6875 C 3.4677937 62.59776 3.245886 62.562504 3 62.5625 z M 6.03125 62.5625 C 5.5340888 62.562504 5.1089598 62.679052 4.75 62.9375 L 5.125 63.53125 C 5.2883262 63.42536 5.4609337 63.35558 5.59375 63.3125 C 5.728359 63.26943 5.839523 63.218754 5.96875 63.21875 C 6.342067 63.218754 6.531248 63.389566 6.53125 63.6875 C 6.531248 63.881341 6.4542874 64.01299 6.3125 64.09375 C 6.1725038 64.172727 5.9613649 64.218752 5.65625 64.21875 L 5.34375 64.21875 L 5.34375 64.84375 L 5.65625 64.84375 C 5.9864921 64.843752 6.224235 64.89158 6.375 64.96875 C 6.5257611 65.045928 6.5937479 65.158887 6.59375 65.34375 C 6.5937479 65.550154 6.5372685 65.71917 6.40625 65.8125 C 6.2752277 65.905835 6.0558532 65.9375 5.78125 65.9375 C 5.6017688 65.9375 5.4330688 65.92346 5.25 65.875 C 5.0669296 65.826541 4.9025578 65.76468 4.75 65.6875 L 4.75 66.40625 C 5.080243 66.548044 5.4478362 66.59375 5.875 66.59375 C 6.3847219 66.59375 6.7878931 66.491242 7.0625 66.28125 C 7.3371019 66.069464 7.468747 65.784954 7.46875 65.40625 C 7.468747 65.146005 7.3820741 64.93381 7.21875 64.78125 C 7.0554205 64.626899 6.8176776 64.53949 6.5 64.5 L 6.5 64.46875 C 6.769218 64.404139 6.976029 64.297304 7.125 64.125 C 7.2739658 63.952702 7.3437472 63.745891 7.34375 63.5 C 7.3437472 63.205656 7.2369111 62.977626 7 62.8125 C 6.7648787 62.647378 6.4386681 62.562504 6.03125 62.5625 z M 18.53125 62.5625 C 18.034089 62.562504 17.57771 62.679052 17.21875 62.9375 L 17.625 63.53125 C 17.788326 63.42536 17.929684 63.35558 18.0625 63.3125 C 18.197109 63.26943 18.339523 63.218754 18.46875 63.21875 C 18.842067 63.218754 19.031248 63.389566 19.03125 63.6875 C 19.031248 63.881341 18.954288 64.01299 18.8125 64.09375 C 18.672504 64.172727 18.430115 64.218752 18.125 64.21875 L 17.84375 64.21875 L 17.84375 64.84375 L 18.125 64.84375 C 18.455242 64.843752 18.692985 64.89158 18.84375 64.96875 C 18.994515 65.045928 19.093748 65.158887 19.09375 65.34375 C 19.093748 65.550154 19.006019 65.71917 18.875 65.8125 C 18.743978 65.905835 18.555854 65.9375 18.28125 65.9375 C 18.101769 65.9375 17.901819 65.92346 17.71875 65.875 C 17.53568 65.826541 17.371307 65.76468 17.21875 65.6875 L 17.21875 66.40625 C 17.548993 66.548044 17.947836 66.59375 18.375 66.59375 C 18.884722 66.59375 19.256643 66.491242 19.53125 66.28125 C 19.805852 66.069464 19.937497 65.784954 19.9375 65.40625 C 19.937497 65.146005 19.882074 64.93381 19.71875 64.78125 C 19.555421 64.626899 19.317678 64.53949 19 64.5 L 19 64.46875 C 19.269218 64.404139 19.476029 64.297304 19.625 64.125 C 19.773963 63.952702 19.843747 63.745891 19.84375 63.5 C 19.843747 63.205656 19.705661 62.977626 19.46875 62.8125 C 19.233629 62.647378 18.938668 62.562504 18.53125 62.5625 z M 21.65625 62.5625 C 21.159089 62.562504 20.73396 62.679052 20.375 62.9375 L 20.75 63.53125 C 20.913326 63.42536 21.085933 63.35558 21.21875 63.3125 C 21.353358 63.26943 21.464523 63.218754 21.59375 63.21875 C 21.967067 63.218754 22.156248 63.389566 22.15625 63.6875 C 22.156248 63.881341 22.079287 64.01299 21.9375 64.09375 C 21.797503 64.172727 21.586365 64.218752 21.28125 64.21875 L 20.96875 64.21875 L 20.96875 64.84375 L 21.28125 64.84375 C 21.611492 64.843752 21.849235 64.89158 22 64.96875 C 22.150765 65.045928 22.218748 65.158887 22.21875 65.34375 C 22.218748 65.550154 22.162269 65.71917 22.03125 65.8125 C 21.900228 65.905835 21.680853 65.9375 21.40625 65.9375 C 21.226768 65.9375 21.058068 65.92346 20.875 65.875 C 20.691929 65.826541 20.527557 65.76468 20.375 65.6875 L 20.375 66.40625 C 20.705243 66.548044 21.072836 66.59375 21.5 66.59375 C 22.009722 66.59375 22.412893 66.491242 22.6875 66.28125 C 22.962102 66.069464 23.093747 65.784954 23.09375 65.40625 C 23.093747 65.146005 23.007075 64.93381 22.84375 64.78125 C 22.680421 64.626899 22.442678 64.53949 22.125 64.5 L 22.125 64.46875 C 22.394218 64.404139 22.601029 64.297304 22.75 64.125 C 22.898963 63.952702 22.968747 63.745891 22.96875 63.5 C 22.968747 63.205656 22.861912 62.977626 22.625 62.8125 C 22.389879 62.647378 22.063668 62.562504 21.65625 62.5625 z M 24.875 62.5625 C 24.408351 62.562504 24.0681 62.73226 23.84375 63.0625 C 23.6194 63.390951 23.5 63.899164 23.5 64.59375 C 23.5 65.259623 23.614015 65.752738 23.84375 66.09375 C 24.075279 66.434762 24.420914 66.59375 24.875 66.59375 C 25.343442 66.59375 25.681897 66.455244 25.90625 66.125 C 26.132392 65.794757 26.249997 65.281161 26.25 64.59375 C 26.249997 63.929676 26.139571 63.407105 25.90625 63.0625 C 25.674718 62.717902 25.329083 62.562504 24.875 62.5625 z M 9.28125 62.625 L 8 63.625 L 8.40625 64.125 L 8.875 63.75 C 8.9288428 63.706928 9.0180489 63.638202 9.15625 63.5 L 9.125 63.90625 L 9.125 64.28125 L 9.125 66.5625 L 9.96875 66.5625 L 9.96875 62.625 L 9.28125 62.625 z M 24.875 63.21875 C 25.067042 63.218753 25.22635 63.319466 25.3125 63.53125 C 25.400438 63.741244 25.437498 64.110951 25.4375 64.59375 C 25.437498 65.071169 25.39865 65.413215 25.3125 65.625 C 25.226348 65.836787 25.068837 65.937501 24.875 65.9375 C 24.677571 65.937501 24.5531 65.833198 24.46875 65.625 C 24.386188 65.41501 24.343749 65.076553 24.34375 64.59375 C 24.343749 64.110951 24.38439 63.741244 24.46875 63.53125 C 24.553104 63.319466 24.679366 63.218753 24.875 63.21875 z M 13.9375 63.46875 C 13.51572 63.468753 13.127646 63.568728 12.78125 63.75 L 13.03125 64.3125 C 13.356108 64.167122 13.634496 64.093752 13.875 64.09375 C 14.187294 64.093752 14.343748 64.226136 14.34375 64.53125 L 14.34375 64.6875 L 13.84375 64.6875 C 13.393254 64.703655 13.03685 64.784944 12.8125 64.9375 C 12.589944 65.088265 12.5 65.336776 12.5 65.65625 C 12.5 65.961367 12.584878 66.178628 12.75 66.34375 C 12.916916 66.508872 13.117286 66.59375 13.40625 66.59375 C 13.641368 66.59375 13.85462 66.56641 14 66.5 C 14.147172 66.431798 14.268049 66.330346 14.40625 66.15625 L 14.4375 66.15625 L 14.59375 66.5625 L 15.1875 66.5625 L 15.1875 64.53125 C 15.187497 64.172292 15.059123 63.925893 14.84375 63.75 C 14.628371 63.574114 14.341328 63.468753 13.9375 63.46875 z M 14.03125 65.15625 L 14.34375 65.15625 L 14.34375 65.40625 C 14.343748 65.587526 14.302365 65.734268 14.1875 65.84375 C 14.074425 65.953234 13.908998 66.000001 13.71875 66 C 13.453119 66.000001 13.343749 65.88778 13.34375 65.65625 C 13.343749 65.494719 13.383336 65.39147 13.5 65.3125 C 13.61666 65.233534 13.79254 65.16345 14.03125 65.15625 z "
     id="path3122" />
  <path
     d="M 69.59375 75.625 L 69.59375 82.28125 L 71.34375 82.28125 L 71.34375 79.78125 L 73.34375 79.78125 L 73.34375 78.34375 L 71.34375 78.34375 L 71.34375 77.0625 L 73.53125 77.0625 L 73.53125 75.625 L 69.59375 75.625 z M 12.90625 76.8125 L 12.90625 76.875 C 13.028296 76.993461 13.187283 77.134819 13.40625 77.3125 C 13.625214 77.488394 13.793176 77.60853 13.90625 77.6875 L 14.46875 77.6875 L 14.46875 77.625 C 14.160042 77.266043 13.925571 76.99378 13.8125 76.8125 L 12.90625 76.8125 z M 2.90625 77.03125 C 2.4090889 77.031254 1.9527098 77.179053 1.59375 77.4375 L 2 78 C 2.1633262 77.89411 2.3046837 77.82433 2.4375 77.78125 C 2.5721089 77.73818 2.7145229 77.718753 2.84375 77.71875 C 3.2170669 77.718753 3.406248 77.858316 3.40625 78.15625 C 3.406248 78.350092 3.3292874 78.48174 3.1875 78.5625 C 3.0475038 78.641477 2.8051149 78.687503 2.5 78.6875 L 2.21875 78.6875 L 2.21875 79.3125 L 2.5 79.3125 C 2.8302421 79.312502 3.0679849 79.36033 3.21875 79.4375 C 3.369511 79.514678 3.4687479 79.658886 3.46875 79.84375 C 3.4687479 80.050153 3.3810185 80.18792 3.25 80.28125 C 3.1189777 80.374585 2.9308531 80.437501 2.65625 80.4375 C 2.4767687 80.4375 2.2768189 80.39221 2.09375 80.34375 C 1.9106797 80.295291 1.7463078 80.23343 1.59375 80.15625 L 1.59375 80.875 C 1.923993 81.016784 2.3228362 81.09375 2.75 81.09375 C 3.2597218 81.09375 3.6316431 80.991242 3.90625 80.78125 C 4.1808519 80.569464 4.3124971 80.253704 4.3125 79.875 C 4.3124971 79.614755 4.2570741 79.402559 4.09375 79.25 C 3.9304205 79.095649 3.6926777 79.00824 3.375 78.96875 C 3.6442181 78.904139 3.851029 78.766053 4 78.59375 C 4.1489658 78.421451 4.2187472 78.214641 4.21875 77.96875 C 4.2187472 77.674406 4.0806612 77.446375 3.84375 77.28125 C 3.6086288 77.116137 3.3136681 77.031254 2.90625 77.03125 z M 6.03125 77.03125 C 5.5340889 77.031254 5.1089598 77.179053 4.75 77.4375 L 5.125 78 C 5.2883262 77.89411 5.4609338 77.82433 5.59375 77.78125 C 5.728359 77.73818 5.839523 77.718753 5.96875 77.71875 C 6.342067 77.718753 6.531248 77.858316 6.53125 78.15625 C 6.531248 78.350092 6.4542874 78.48174 6.3125 78.5625 C 6.1725038 78.641477 5.9613649 78.687503 5.65625 78.6875 L 5.34375 78.6875 L 5.34375 79.3125 L 5.65625 79.3125 C 5.9864921 79.312502 6.224235 79.36033 6.375 79.4375 C 6.5257611 79.514678 6.5937479 79.658886 6.59375 79.84375 C 6.5937479 80.050153 6.5372685 80.18792 6.40625 80.28125 C 6.2752277 80.374585 6.0558532 80.437501 5.78125 80.4375 C 5.6017688 80.4375 5.4330689 80.39221 5.25 80.34375 C 5.0669296 80.295291 4.9025578 80.23343 4.75 80.15625 L 4.75 80.875 C 5.080243 81.016784 5.4478363 81.09375 5.875 81.09375 C 6.3847219 81.09375 6.787893 80.991242 7.0625 80.78125 C 7.3371018 80.569464 7.468747 80.253704 7.46875 79.875 C 7.468747 79.614755 7.3820741 79.402559 7.21875 79.25 C 7.0554205 79.095649 6.8176776 79.00824 6.5 78.96875 C 6.769218 78.904139 6.976029 78.766053 7.125 78.59375 C 7.2739659 78.421451 7.3437471 78.214641 7.34375 77.96875 C 7.3437471 77.674406 7.2369111 77.446375 7 77.28125 C 6.7648787 77.116137 6.4386681 77.031254 6.03125 77.03125 z M 24.875 77.03125 C 24.40835 77.031254 24.0681 77.20101 23.84375 77.53125 C 23.6194 77.859702 23.5 78.367915 23.5 79.0625 C 23.5 79.728373 23.614015 80.221489 23.84375 80.5625 C 24.075279 80.903513 24.420914 81.09375 24.875 81.09375 C 25.343441 81.09375 25.681897 80.923994 25.90625 80.59375 C 26.132392 80.263508 26.249997 79.749911 26.25 79.0625 C 26.249997 78.398426 26.139571 77.907106 25.90625 77.5625 C 25.674718 77.217902 25.329082 77.031254 24.875 77.03125 z M 9.28125 77.09375 L 8 78.09375 L 8.40625 78.59375 L 8.875 78.25 C 8.9288428 78.206927 9.0180489 78.106953 9.15625 77.96875 L 9.125 78.375 L 9.125 78.75 L 9.125 81.03125 L 9.96875 81.03125 L 9.96875 77.09375 L 9.28125 77.09375 z M 18.84375 77.09375 L 17.125 79.625 L 17.125 80.21875 L 18.78125 80.21875 L 18.78125 81.03125 L 19.59375 81.03125 L 19.59375 80.21875 L 20.09375 80.21875 L 20.09375 79.5625 L 19.59375 79.5625 L 19.59375 77.09375 L 18.84375 77.09375 z M 20.65625 77.09375 L 20.5 79.09375 L 20.84375 79.28125 C 20.915541 79.25971 21.010132 79.2367 21.125 79.21875 C 21.239866 79.19904 21.34237 79.187502 21.4375 79.1875 C 21.963375 79.187502 22.218748 79.3846 22.21875 79.78125 C 22.218748 80.197645 21.976677 80.40625 21.46875 80.40625 C 21.300037 80.40625 21.125953 80.39041 20.9375 80.34375 C 20.749045 80.295291 20.579289 80.23163 20.4375 80.15625 L 20.4375 80.875 C 20.70672 81.016784 21.062068 81.09375 21.5 81.09375 C 22.004338 81.09375 22.385232 80.955664 22.65625 80.71875 C 22.927262 80.481837 23.062497 80.158477 23.0625 79.71875 C 23.062497 79.347227 22.944892 79.057334 22.71875 78.84375 C 22.494397 78.630171 22.192996 78.500003 21.8125 78.5 C 21.650967 78.5 21.515731 78.53737 21.40625 78.5625 L 21.3125 78.5625 L 21.375 77.8125 L 22.78125 77.8125 L 22.78125 77.09375 L 20.65625 77.09375 z M 24.875 77.71875 C 25.067042 77.718754 25.22635 77.819467 25.3125 78.03125 C 25.400438 78.241245 25.437498 78.579701 25.4375 79.0625 C 25.437498 79.539919 25.39865 79.881965 25.3125 80.09375 C 25.226348 80.305538 25.068836 80.406251 24.875 80.40625 C 24.67757 80.406251 24.5531 80.301947 24.46875 80.09375 C 24.386188 79.883759 24.343749 79.545304 24.34375 79.0625 C 24.343749 78.579701 24.38439 78.241245 24.46875 78.03125 C 24.553104 77.819467 24.679365 77.718754 24.875 77.71875 z M 13.9375 77.96875 C 13.51572 77.968753 13.127646 78.037478 12.78125 78.21875 L 13.03125 78.78125 C 13.356108 78.635871 13.634495 78.562503 13.875 78.5625 C 14.187293 78.562503 14.343748 78.726136 14.34375 79.03125 L 14.34375 79.15625 L 13.84375 79.15625 C 13.393254 79.172405 13.03685 79.284943 12.8125 79.4375 C 12.589944 79.588265 12.5 79.805526 12.5 80.125 C 12.5 80.430117 12.584878 80.678629 12.75 80.84375 C 12.916916 81.008873 13.117286 81.09375 13.40625 81.09375 C 13.641368 81.09375 13.85462 81.03516 14 80.96875 C 14.147172 80.900548 14.268048 80.799096 14.40625 80.625 L 14.4375 80.625 L 14.59375 81.03125 L 15.1875 81.03125 L 15.1875 79.03125 C 15.187497 78.672292 15.059123 78.394643 14.84375 78.21875 C 14.628371 78.042864 14.341328 77.968753 13.9375 77.96875 z M 18.8125 78.03125 C 18.80711 78.065354 18.8215 78.194466 18.8125 78.40625 C 18.80354 78.618039 18.781248 78.794975 18.78125 78.90625 L 18.78125 79.5625 L 17.84375 79.5625 L 18.5625 78.46875 C 18.655829 78.328759 18.74609 78.178427 18.8125 78.03125 z M 14.34375 79.625 L 14.34375 79.875 C 14.343748 80.056276 14.302365 80.203018 14.1875 80.3125 C 14.074426 80.421985 13.908997 80.46875 13.71875 80.46875 C 13.453118 80.46875 13.343748 80.35653 13.34375 80.125 C 13.343748 79.963469 13.383336 79.86022 13.5 79.78125 C 13.616661 79.702284 13.79254 79.66345 14.03125 79.65625 L 14.34375 79.625 z "
     id="path3061" />
  <path
     d="M82.438 90c-1.106 0-1.95.277-2.563.875-.613.598-.938 1.456-.938 2.53 0 1.104.285 1.937.844 2.532.564.596 1.35.907 2.377.907.936 0 1.813-.14 2.594-.406v-3.594h-2.874v1.406h1.188v1.03c-.225.053-.483.064-.75.064-.49 0-.864-.144-1.126-.47-.258-.327-.375-.814-.374-1.436 0-.635.12-1.13.406-1.47.287-.342.692-.5 1.218-.5.574 0 1.113.108 1.593.344l.565-1.406c-.277-.12-.595-.202-.97-.28-.37-.08-.767-.126-1.186-.126zm-68.594 1.438c-.467 0-.838.17-1.063.5-.222.328-.31.836-.31 1.53 0 .666.114 1.16.343 1.5.232.342.578.5 1.032.5.468 0 .807-.138 1.03-.468.227-.33.345-.844.345-1.53 0-.665-.143-1.188-.376-1.532-.232-.345-.546-.5-1-.5zM7.78 91.5l-1.718 2.53v.595H7.75v.813h.813v-.813h.468v-.656h-.466V91.5H7.78zm1.845 0l-.156 2 .31.188c.072-.022.167-.045.282-.063.114-.02.217-.03.312-.03.526 0 .812.196.813.593 0 .416-.274.625-.782.624-.168 0-.343-.015-.53-.062-.19-.048-.36-.112-.5-.188v.72c.268.14.624.187 1.062.187.504 0 .885-.11 1.156-.346.27-.237.406-.56.406-1 0-.37-.087-.662-.314-.875-.224-.214-.525-.345-.906-.345-.16 0-.296.038-.405.063h-.094l.065-.782h1.406V91.5H9.626zm-8 .5v.625l1.844.844-1.846.78v.624l2.688-1.156v-.407L1.624 92zm12.22.094c.19 0 .32.132.405.344.088.21.125.548.125 1.03 0 .478-.04.82-.125 1.032-.086.212-.212.313-.406.313-.198 0-.353-.105-.438-.313-.082-.21-.125-.55-.125-1.03 0-.484.043-.823.127-1.032.085-.212.242-.344.438-.344zm-6.095.344h.03c-.004.034-.02.163-.03.374-.01.212 0 .39 0 .5v.657h-.938l.72-1.096c.093-.14.152-.29.218-.438z"
     fill="#fff"
     id="path22" />
</svg>
