<?xml version="1.0" encoding="UTF-8" standalone="no"?>
<!-- Created with Inkscape (http://www.inkscape.org/) -->

<svg
   xmlns:dc="http://purl.org/dc/elements/1.1/"
   xmlns:cc="http://creativecommons.org/ns#"
   xmlns:rdf="http://www.w3.org/1999/02/22-rdf-syntax-ns#"
   xmlns:svg="http://www.w3.org/2000/svg"
   xmlns="http://www.w3.org/2000/svg"
   version="1.1"
   width="192"
   height="210"
   id="svg3123">
  <g
     transform="matrix(0.11936907,0,0,0.11936907,-386.03929,234.14502)"
     id="g3120">
    <path
       d="m 3317.2729,-1876.7468 0,208 407.3756,0 c 0,0 0.075,-207.6384 0,-208 z"
       id="path3113"
       style="fill:#eedeef;fill-opacity:1;fill-rule:nonzero;stroke:none" />
    <path
       d="m 3317.2729,-1646.4634 0,208 573.875,0 c 0.176,-0.033 0,-208 0,-208 z"
       id="path3115"
       style="fill:#d9c1db;fill-opacity:1;fill-rule:nonzero;stroke:none" />
    <path
       d="m 3317.2729,-1416.1801 0,208 744.2813,0 c 0,0 -0.01,-207.6374 0,-208 z"
       id="path3117"
       style="fill:#c6a8ce;fill-opacity:1;fill-rule:nonzero;stroke:none" />
    <path
       d="m 3317.2729,-1185.8968 0,207.99996 930.25,0 c 0,0 0.3208,-207.96586 0,-207.99996 z"
       id="path3119"
       style="fill:#b895bf;fill-opacity:1;fill-rule:nonzero;stroke:none" />
    <path
       d="m 3317.2729,-955.61354 0,208 1095.625,0 c -0.1522,-0.0332 0,-208 0,-208 z"
       id="path3121"
       style="fill:#9e75ad;fill-opacity:1;fill-rule:nonzero;stroke:none" />
    <path
       d="m 3317.2729,-725.33024 0,208.00004 1277.8437,0 c -0.1522,-0.3617 0,-208.00004 0,-208.00004 z"
       id="path3123"
       style="fill:#87599a;fill-opacity:1;fill-rule:nonzero;stroke:none" />
    <path
       d="m 3317.2729,-495.0469 0,208 1441.9063,0 c -0.072,-0.12592 0,-208 0,-208 z"
       id="path3125"
       style="fill:#68428d;fill-opacity:1;fill-rule:nonzero;stroke:none" />
    <g
       id="text3127"
       style="font-size:144px;font-style:normal;font-variant:normal;font-weight:normal;font-stretch:normal;line-height:125%;letter-spacing:0px;word-spacing:0px;fill:#000000;fill-opacity:1;stroke:none;font-family:Exo;-inkscape-font-specification:Exo">
      <path
         d="m 3586.6414,-1723.2394 35.5693,-105.4072 22.8955,0 34.273,105.4072 -21.4585,0 -7.4883,-23.3262 -34.5586,0 -7.6333,23.3262 z m 34.5586,-41.1855 24.4819,0 -11.8081,-37.7271 z"
         id="path3021"
         style="font-size:144px;font-weight:bold;-inkscape-font-specification:Exo Bold" />
    </g>
    <g
       id="text3133"
       style="font-size:144px;font-style:normal;font-variant:normal;font-weight:normal;font-stretch:normal;line-height:125%;letter-spacing:0px;word-spacing:0px;fill:#000000;fill-opacity:1;stroke:none;font-family:Exo;-inkscape-font-specification:Exo">
      <path
         d="m 3750.0354,-1489.7598 0,-105.4072 43.4883,0 c 10.1747,10e-5 17.6623,2.6163 22.4626,7.8486 4.8002,5.2326 7.2004,12.0236 7.2005,20.3731 -10e-5,5.376 -1.1998,10.2481 -3.5992,14.6162 -2.3994,4.3682 -6,6.9844 -10.8017,7.8486 4.6083,0.8643 8.4484,3.4322 11.5203,7.7036 3.0716,4.2716 4.6075,9.6241 4.6076,16.0577 -10e-5,10.081 -2.472,17.7612 -7.4158,23.0405 -4.9439,5.2793 -12.8401,7.9189 -23.6887,7.9189 z m 54.7207,-31.8252 c -1e-4,-4.3183 -0.9603,-7.8698 -2.8806,-10.6545 -1.9205,-2.7846 -4.8494,-4.177 -8.7869,-4.177 l -22.8955,0 0,28.8018 22.8955,0.145 c 7.7783,0 11.6674,-4.7051 11.6675,-14.1153 z m -34.563,-31.8208 22.0342,0 c 3.6474,10e-5 6.4072,-1.0319 8.2793,-3.0959 1.872,-2.0639 2.808,-5.1606 2.8081,-9.29 -10e-5,-4.1294 -1.0562,-7.0818 -3.1685,-8.8572 -2.1123,-1.7753 -4.752,-2.663 -7.9189,-2.6631 l -22.0342,0 z"
         id="path3039"
         style="font-weight:bold;-inkscape-font-specification:Exo Bold" />
    </g>
    <g
       id="text3137"
       style="font-size:144px;font-style:normal;font-variant:normal;font-weight:normal;font-stretch:normal;line-height:125%;letter-spacing:0px;word-spacing:0px;fill:#000000;fill-opacity:1;stroke:none;font-family:Exo;-inkscape-font-specification:Exo">
      <path
         d="m 3930.4412,-1351.7814 c 3.8378,-6.3368 9.1655,-10.5131 15.9829,-12.5288 3.7441,-1.0546 7.9672,-1.5819 12.6694,-1.582 13.7285,10e-5 25.9687,1.5836 36.7207,4.7505 l 0,15.8423 c -10e-5,0 -0.3597,-0.048 -1.0788,-0.1451 -0.7194,-0.097 -1.6788,-0.1932 -2.8785,-0.29 -1.1997,-0.097 -2.6162,-0.2167 -4.2495,-0.3603 -1.6333,-0.1435 -3.4336,-0.2871 -5.4009,-0.4307 -1.9673,-0.1435 -3.9104,-0.2636 -5.8293,-0.3604 -4.5118,-0.287 -8.5438,-0.4305 -12.0959,-0.4306 -3.5523,10e-5 -6.3128,0.2161 -8.2815,0.6482 -1.9688,0.4322 -3.8651,1.2957 -5.6888,2.5905 -1.8237,1.295 -3.1677,3.2389 -4.0319,5.8316 -1.919,5.5694 -2.8785,14.45 -2.8785,26.6418 0,12.192 1.4158,21.0001 4.2473,26.4243 2.8316,5.4244 8.2317,8.1365 16.2005,8.1365 9.0234,0 18.1435,-0.2885 27.3603,-0.8657 l 4.6055,-0.29 0,15.6972 c -8.6397,2.6895 -19.7754,4.0342 -33.4072,4.0342 -1.0547,0 -2.1592,0 -3.3135,0 -12.8614,-0.097 -22.0525,-4.7051 -27.5735,-13.8252 -5.521,-9.1201 -8.2815,-22.6801 -8.2815,-40.6802 0,-17.9999 2.4009,-30.9359 7.2027,-38.8081 z"
         id="path3053"
         style="font-weight:bold;-inkscape-font-specification:Exo Bold" />
    </g>
    <g
       id="text3141"
       style="font-size:144px;font-style:normal;font-variant:normal;font-weight:normal;font-stretch:normal;line-height:125%;letter-spacing:0px;word-spacing:0px;fill:#000000;fill-opacity:1;stroke:none;font-family:Exo;-inkscape-font-specification:Exo">
      <path
         d="m 4099.6392,-1029.1932 0,-105.4073 44.7846,0 c 24.3837,10e-5 36.5756,17.7115 36.5757,53.1343 -1e-4,21.8877 -5.2325,37.0562 -15.6973,45.5054 -5.5664,4.5117 -12.5259,6.7676 -20.8784,6.7676 z m 61.1982,-52.418 c -1e-4,-17.4697 -2.7833,-28.2685 -8.3496,-32.3965 -2.4962,-1.8251 -5.713,-2.7377 -9.6504,-2.7378 l -23.0405,0 0,69.5523 23.0405,0 c 11.9999,0 17.9999,-11.4727 18,-34.418 z"
         id="path3067"
         style="font-weight:bold;-inkscape-font-specification:Exo Bold" />
    </g>
    <g
       id="text3145"
       style="font-size:144px;font-style:normal;font-variant:normal;font-weight:bold;font-stretch:normal;line-height:125%;letter-spacing:0px;word-spacing:0px;fill:#000000;fill-opacity:1;stroke:none;font-family:Exo;-inkscape-font-specification:Sans Bold">
      <path
         d="m 4281.5015,-900.64331 c 2.3994,-1.4413 4.7753,-2.44985 7.1279,-3.02564 2.3525,-0.57557 4.2246,-0.86342 5.6162,-0.86352 1.3916,10e-5 8.3276,0.16783 20.8081,0.50317 12.4804,0.33556 21.7924,0.93541 27.936,1.79956 l 0,16.70362 -41.6162,0 c -3.5508,8e-5 -5.7583,0.86434 -6.6225,2.59277 -0.5772,1.34481 -0.8658,3.16854 -0.8657,5.47119 l 0,16.41797 42.6225,1.43701 0,16.70801 -42.6225,1.29199 0,16.41797 c -1e-4,3.64748 1.0077,5.855 3.0234,6.62256 1.4414,0.57717 3.4101,0.86574 5.9062,0.86572 l 40.1748,0 0,16.5586 c -4.7989,0.67383 -16.6553,1.34619 -35.5693,2.01709 l -9.3603,0.43066 c -0.7677,0 -1.6553,0 -2.6631,0 -1.0079,0 -2.3277,-0.0718 -3.9595,-0.21533 -1.6319,-0.14356 -3.5999,-0.64746 -5.9041,-1.51172 -2.3042,-0.86426 -4.3205,-2.01562 -6.049,-3.4541 -3.8379,-3.45703 -5.7569,-8.78612 -5.7569,-15.98731 l 0,-62.78027 c 0,-8.73624 2.5913,-14.73623 7.774,-18 z"
         id="path3081" />
    </g>
    <g
       id="text3149"
       style="font-size:144px;font-style:normal;font-variant:normal;font-weight:bold;font-stretch:normal;line-height:125%;letter-spacing:0px;word-spacing:0px;fill:#000000;fill-opacity:1;stroke:none;font-family:Exo;-inkscape-font-specification:Sans Bold">
      <path
         d="m 4461.3096,-568.62665 0,-83.23242 c 0,-11.42276 4.8471,-18.4789 14.5415,-21.16846 2.3994,-0.67079 4.319,-1.00624 5.759,-1.00634 1.4399,10e-5 8.4243,0.16783 20.9531,0.50317 12.5288,0.33555 21.865,0.93541 28.0086,1.79956 l 0,16.70361 -41.6162,0 c -3.5508,9e-5 -5.7584,0.86435 -6.6226,2.59278 -0.5772,1.34481 -0.8657,3.16853 -0.8657,5.47119 l 0,16.41797 42.6225,1.43701 0,16.70801 -42.6225,1.29199 0,42.48193 z"
         id="path3095" />
    </g>
    <g
       id="text3153"
       style="font-size:144px;font-style:normal;font-variant:normal;font-weight:bold;font-stretch:normal;line-height:125%;letter-spacing:0px;word-spacing:0px;fill:#ffffff;fill-opacity:1;stroke:none;font-family:Exo;-inkscape-font-specification:Sans Bold">
      <path
         d="m 4622.8003,-360.37311 c -1.4385,-4.94528 -2.3738,-9.88986 -2.8059,-14.83374 -0.4322,-4.9438 -0.6482,-10.70356 -0.6482,-17.2793 0,-6.57562 0.2644,-12.38372 0.7932,-17.42431 0.5288,-5.04045 1.5373,-9.88908 3.0256,-14.5459 1.4883,-4.65665 3.5274,-8.52017 6.1172,-11.59058 5.4727,-6.52724 13.6333,-9.79091 24.482,-9.79101 8.1591,10e-5 15.0944,0.31212 20.8059,0.93603 5.7113,0.62413 12.2643,1.84728 19.6589,3.66944 l 0,15.69726 c -0.097,9e-5 -0.8892,-0.0959 -2.3774,-0.28784 -1.4884,-0.19181 -3.4564,-0.40787 -5.9041,-0.64819 -2.4478,-0.24015 -5.1116,-0.45548 -7.9914,-0.646 -6.9112,-0.57706 -13.3917,-0.86563 -19.4415,-0.86572 -7.6787,9e-5 -12.7661,2.56796 -15.2622,7.70361 -2.4961,5.13582 -3.7441,14.56794 -3.7441,28.29639 0,13.72855 1.1513,22.897 3.4541,27.50537 2.3994,4.70217 7.2964,7.05324 14.6909,7.05322 2.8799,2e-5 5.8315,-0.55149 8.855,-1.65454 3.0234,-1.103 5.3027,-2.18333 6.8379,-3.24097 l 2.3071,-1.72705 0,-18.86572 -14.6909,0 0,-12.81445 c 5.666,-2.30268 14.0185,-3.45404 25.0576,-3.4541 3.0703,6e-5 6.3339,0.0953 9.791,0.28564 l 0,59.61621 -14.4008,0 -5.4712,-7.05762 c -3.3604,3.16993 -6.961,5.23389 -10.8018,6.1919 -10.4619,2.59277 -19.2935,2.30566 -26.4946,-0.86133 -4.2247,-1.82519 -7.5608,-4.27367 -10.0086,-7.34546 -2.4477,-3.07176 -4.3923,-7.07884 -5.8337,-12.02124 z"
         id="path3105"
         style="fill:#ffffff" />
    </g>
    <g
       id="text3157"
       style="font-size:144px;font-style:normal;font-variant:normal;font-weight:bold;font-stretch:normal;line-height:50%;letter-spacing:0px;word-spacing:0px;fill:#000000;fill-opacity:1;stroke:none;font-family:Exo;-inkscape-font-specification:Sans Bold">
      <path
         d="m 3426.2509,-1778.2567 c 1.8999,-1.9637 5.7944,-2.9455 11.6836,-2.9456 1.7105,10e-5 3.4365,0.032 5.178,0.096 1.7414,0.064 3.4035,0.1112 4.9865,0.1421 1.5829,0.031 3.3882,0.4581 5.4157,1.2814 2.0274,0.8234 3.6423,1.9637 4.8445,3.421 2.4063,2.8509 3.6094,6.6826 3.6095,11.4952 l 0,10.5443 c -10e-5,3.1041 -0.5224,5.78 -1.567,8.0278 -1.0448,2.2478 -2.4223,3.9419 -4.1328,5.0823 -3.2297,2.2169 -6.6807,3.3253 -10.3529,3.3253 -6.4614,0 -11.418,-0.1266 -14.8699,-0.3798 -3.452,-0.2532 -8.1853,-0.8862 -14.2001,-1.8989 l 0,-6.6507 28.3075,0 c 2.9146,0 4.9894,-0.8075 6.2245,-2.4223 1.235,-1.6148 1.8525,-3.5626 1.8526,-5.8433 l 0,-9.3092 c -10e-5,-2.0913 -0.1586,-3.5007 -0.4755,-4.2285 -0.317,-0.7276 -0.6654,-1.3447 -1.0452,-1.8511 -0.3798,-0.5063 -0.8548,-0.918 -1.4249,-1.235 -1.266,-0.6977 -2.9127,-1.0466 -4.9402,-1.0466 l -13.11,0 c -2.0275,0 -3.7376,0.5542 -5.1301,1.6627 -1.3926,1.1084 -2.0889,2.7711 -2.0889,4.988 l -7.9814,0 2.0903,-41.7046 40.6609,0 0,8.454 -32.491,0 z"
         id="path3027"
         style="font-size:95px;font-weight:normal;text-align:start;line-height:50%;writing-mode:lr-tb;text-anchor:start;font-family:Exo;-inkscape-font-specification:Exo" />
    </g>
    <g
       id="text3161"
       style="font-size:110px;font-style:normal;font-variant:normal;font-weight:normal;font-stretch:normal;text-align:start;line-height:125%;letter-spacing:0px;word-spacing:0px;writing-mode:lr-tb;text-anchor:start;fill:#000000;fill-opacity:1;stroke:none;font-family:Exo;-inkscape-font-specification:Exo">
      <path
         d="m 3358.3987,-1743.2108 0,-9.1308 41.25,0 0,9.1308 z m 0,-31.7901 0,-10.2319 41.25,-17.0499 0,10.3427 -28.9301,11.7694 28.9301,12.8705 0,10.4501 z"
         id="path3024"
         style="line-height:125%;font-family:Exo;-inkscape-font-specification:Exo" />
    </g>
    <g
       id="text3165"
       style="font-size:144px;font-style:normal;font-variant:normal;font-weight:bold;font-stretch:normal;line-height:50%;letter-spacing:0px;word-spacing:0px;fill:#000000;fill-opacity:1;stroke:none;font-family:Exo;-inkscape-font-specification:Sans Bold">
      <path
         d="m 3360.6775,-1518.4278 c -1.0128,-2.6923 -1.8043,-6.2076 -2.3745,-10.5457 -0.5701,-4.3381 -0.8552,-9.4682 -0.8552,-15.3903 0,-5.922 0.459,-11.1313 1.3771,-15.6279 0.9181,-4.4966 2.2005,-7.9799 3.8472,-10.4501 3.104,-4.8126 6.8092,-7.2508 11.1154,-7.3146 1.3297,-0.064 2.6276,-0.096 3.8936,-0.096 8.3612,10e-5 16.7533,0.634 25.1764,1.9019 l 0,6.555 -26.4115,0 c -2.7851,10e-5 -4.9382,1.3926 -6.4593,4.1777 -1.5192,2.7233 -2.4691,5.3519 -2.8499,7.8857 -0.5702,4.0531 -0.8862,7.537 -0.948,10.4516 9.1188,-1.2679 16.9079,-1.9019 23.3673,-1.9019 5.8273,0 10.0707,1.4574 12.7302,4.3719 1.8999,2.1532 2.8499,5.5723 2.8499,10.2573 l 0,11.9707 c 0,9.6909 -5.2243,14.5364 -15.6729,14.5364 l -14.061,0 c -2.2169,0 -4.1801,-0.317 -5.8896,-0.9509 -1.7096,-0.634 -3.3563,-1.7584 -4.9402,-3.3732 -1.5839,-1.6148 -2.8823,-3.7675 -3.895,-6.4579 z m 5.5113,-22.0888 c 0,7.2828 0.5064,12.508 1.5191,15.6758 1.2022,3.9255 2.7533,6.4584 4.6532,7.5988 1.2041,0.7596 2.5976,1.1393 4.1806,1.1393 l 12.2548,0 c 2.4063,0 4.1168,-0.316 5.1315,-0.948 1.7086,-1.1403 2.5629,-3.2306 2.5629,-6.2709 l 0,-10.3558 c 0,-2.5957 -0.6809,-4.3845 -2.0425,-5.3664 -1.3616,-0.9818 -3.2137,-1.4727 -5.5562,-1.4728 z"
         id="path3030"
         style="font-size:95px;font-weight:normal;text-align:start;line-height:50%;writing-mode:lr-tb;text-anchor:start;font-family:Exo;-inkscape-font-specification:Exo" />
      <path
         d="m 3443.6256,-1577.6607 9.7847,0 9.689,12.823 -7.1232,0 z m -4.2763,21.4683 c 6.4613,-1.9617 14.6321,-2.9426 24.5125,-2.9426 6.2061,0 10.5761,2.0893 13.1101,6.268 1.3915,2.3445 2.0873,5.29 2.0874,8.8366 l 0,36.2889 -6.6478,0 -2.0903,-5.8911 c -0.1895,0.1914 -1.2346,0.7775 -3.1355,1.7584 -1.9009,0.9809 -4.4662,2.0101 -7.6958,3.0876 -3.2297,1.0775 -6.0796,1.6163 -8.5497,1.6163 -3.9255,0 -7.1078,-1.1718 -9.547,-3.5153 -2.4391,-2.3435 -3.6587,-5.447 -3.6587,-9.3106 l 0,-5.5114 c 0,-3.8616 1.1558,-6.9802 3.4674,-9.3556 2.3116,-2.3753 5.5577,-3.563 9.7383,-3.5631 6.4613,10e-5 11.3068,10e-5 14.5365,0 3.2296,10e-5 4.8444,10e-5 4.8445,0 0.064,-1.8361 0.096,-3.2137 0.096,-4.1327 0,-0.919 -0.016,-1.6632 -0.048,-2.2324 -0.032,-0.5692 -0.159,-1.2654 -0.3812,-2.0888 -0.2223,-0.8234 -0.5393,-1.5201 -0.951,-2.0904 -0.4117,-0.5701 -0.9335,-1.0137 -1.5655,-1.3307 -1.1404,-0.6977 -2.6924,-1.0146 -4.6561,-0.9509 -5.1934,0 -13.0153,0.3489 -23.4659,1.0466 z m 7.1262,35.3409 c 0,3.7999 1.8052,5.6998 5.4156,5.6998 2.0894,0 4.6701,-0.3958 7.7423,-1.1872 3.0721,-0.7915 5.621,-1.567 7.6465,-2.3266 l 3.0413,-1.1423 0,-12.3476 -18.6214,1.3279 c -3.4829,0.317 -5.2243,2.2807 -5.2243,5.8911 z"
         id="path3032"
         style="font-size:95px;font-weight:normal;text-align:start;line-height:50%;writing-mode:lr-tb;text-anchor:start;font-family:Exo;-inkscape-font-specification:Exo" />
      <path
         d="m 3534.877,-1577.2809 0,69.5394 -8.741,0 0,-60.1345 -15.296,4.6531 0,-6.0795 15.296,-7.9785 z"
         id="path3034"
         style="font-size:95px;font-weight:normal;text-align:start;line-height:50%;writing-mode:lr-tb;text-anchor:start;font-family:Exo;-inkscape-font-specification:Exo" />
      <path
         d="m 3548.0131,-1523.51 0,-37.811 c 0,-5.1296 1.5516,-9.0719 4.6546,-11.8272 3.1031,-2.7551 7.1247,-4.1327 12.0649,-4.1327 l 15.5802,0 c 8.106,0 13.1728,3.2616 15.2003,9.7847 0.5701,1.8362 0.8552,3.8308 0.8553,5.9838 l 0,38.0024 c -10e-5,5.3828 -1.4096,9.3566 -4.2285,11.9213 -2.819,2.5648 -6.7932,3.8472 -11.9228,3.8472 l -15.5801,0 c -4.9402,0 -8.9459,-1.2824 -12.0171,-3.8472 -3.0712,-2.5647 -4.6068,-6.5385 -4.6068,-11.9213 z m 8.741,-0.6668 c 0,2.8508 0.8388,4.8938 2.5165,6.1288 1.6776,1.2351 3.7515,1.8526 6.2216,1.8526 l 13.8696,0 c 5.5104,0 8.2655,-2.6286 8.2656,-7.8858 l 0,-36.86 c -10e-5,-5.2571 -2.7233,-7.8857 -8.1699,-7.8858 l -14.061,0 c -2.9765,10e-5 -5.161,0.7602 -6.5535,2.2802 -1.3926,1.5202 -2.0889,3.3887 -2.0889,5.6056 z"
         id="path3036"
         style="font-size:95px;font-weight:normal;text-align:start;line-height:50%;writing-mode:lr-tb;text-anchor:start;font-family:Exo;-inkscape-font-specification:Exo" />
    </g>
    <g
       id="text3169"
       style="font-size:144px;font-style:normal;font-variant:normal;font-weight:bold;font-stretch:normal;line-height:50%;letter-spacing:0px;word-spacing:0px;fill:#000000;fill-opacity:1;stroke:none;font-family:Exo;-inkscape-font-specification:Sans Bold">
      <path
         d="m 3380.6294,-1346.9977 0,69.5394 -8.741,0 0,-60.1345 -15.296,4.6531 0,-6.0795 15.296,-7.9785 z"
         id="path3042"
         style="font-size:95px;font-weight:normal;text-align:start;line-height:50%;writing-mode:lr-tb;text-anchor:start;font-family:Exo;-inkscape-font-specification:Exo" />
      <path
         d="m 3415.1411,-1346.9977 0,69.5394 -8.741,0 0,-60.1345 -15.296,4.6531 0,-6.0795 15.296,-7.9785 z"
         id="path3044"
         style="font-size:95px;font-weight:normal;text-align:start;line-height:50%;writing-mode:lr-tb;text-anchor:start;font-family:Exo;-inkscape-font-specification:Exo" />
      <path
         d="m 3455.257,-1347.3775 9.7847,0 9.689,12.823 -7.1233,0 z m -4.2763,21.4683 c 6.4613,-1.9617 14.6321,-2.9426 24.5125,-2.9426 6.2061,0 10.5761,2.0893 13.11,6.268 1.3916,2.3445 2.0874,5.29 2.0874,8.8366 l 0,36.2889 -6.6478,0 -2.0903,-5.8911 c -0.1894,0.1914 -1.2346,0.7775 -3.1354,1.7584 -1.901,0.9809 -4.4662,2.0101 -7.6959,3.0876 -3.2297,1.0775 -6.0796,1.6163 -8.5496,1.6163 -3.9255,0 -7.1078,-1.1718 -9.547,-3.5153 -2.4392,-2.3434 -3.6588,-5.447 -3.6588,-9.3106 l 0,-5.5114 c 0,-3.8616 1.1558,-6.9802 3.4675,-9.3556 2.3115,-2.3753 5.5576,-3.563 9.7383,-3.5631 6.4612,10e-5 11.3067,10e-5 14.5364,0 3.2296,10e-5 4.8445,10e-5 4.8445,0 0.064,-1.8361 0.096,-3.2137 0.096,-4.1327 0,-0.919 -0.016,-1.6632 -0.048,-2.2324 -0.032,-0.5692 -0.1591,-1.2654 -0.3813,-2.0888 -0.2223,-0.8234 -0.5393,-1.5201 -0.9509,-2.0903 -0.4117,-0.5702 -0.9336,-1.0137 -1.5656,-1.3308 -1.1403,-0.6977 -2.6924,-1.0146 -4.656,-0.9509 -5.1934,0 -13.0154,0.3489 -23.4659,1.0466 z m 7.1261,35.3409 c 0,3.7999 1.8052,5.6998 5.4157,5.6998 2.0893,0 4.67,-0.3958 7.7422,-1.1872 3.0721,-0.7915 5.621,-1.567 7.6466,-2.3266 l 3.0412,-1.1423 0,-12.3476 -18.6214,1.3279 c -3.4828,0.317 -5.2243,2.2807 -5.2243,5.8911 z"
         id="path3046"
         style="font-size:95px;font-weight:normal;text-align:start;line-height:50%;writing-mode:lr-tb;text-anchor:start;font-family:Exo;-inkscape-font-specification:Exo" />
      <path
         d="m 3522.4713,-1339.399 0,-6.4594 c 9.8166,-1.3934 19.4438,-2.0902 28.8815,-2.0903 7.7273,10e-5 13.3004,2.9457 16.7196,8.8367 1.9636,3.2935 2.9455,6.8716 2.9455,10.7342 0,3.8627 -0.9186,7.7099 -2.7556,11.5416 -1.8372,3.8317 -3.9749,7.2358 -6.413,10.2123 -2.4383,2.9765 -5.3041,6.0168 -8.5975,9.1208 -4.7489,4.4338 -9.4349,8.2974 -14.0581,11.5909 l 31.8242,0 0,8.4539 -47.8798,0 0,-7.8857 c 6.1424,-4.1168 11.6523,-8.2491 16.5296,-12.3968 4.8774,-4.1478 8.7884,-7.7418 11.733,-10.7821 2.9445,-3.0402 5.4774,-6.3177 7.5987,-9.8325 2.1212,-3.5147 3.1818,-6.8396 3.1818,-9.9746 0,-3.1349 -0.9814,-5.7635 -2.9441,-7.8857 -1.9627,-2.1222 -5.0025,-3.1833 -9.1193,-3.1833 z"
         id="path3048"
         style="font-size:95px;font-weight:normal;text-align:start;line-height:50%;writing-mode:lr-tb;text-anchor:start;font-family:Exo;-inkscape-font-specification:Exo" />
      <path
         d="m 3581.539,-1293.2268 0,-37.811 c 0,-5.1296 1.5515,-9.0719 4.6546,-11.8272 3.1031,-2.7551 7.1247,-4.1327 12.0649,-4.1327 l 15.5802,0 c 8.106,0 13.1728,3.2616 15.2003,9.7847 0.5701,1.8362 0.8552,3.8308 0.8553,5.9838 l 0,38.0024 c -10e-5,5.3828 -1.4096,9.3566 -4.2285,11.9213 -2.819,2.5648 -6.7933,3.8472 -11.9228,3.8472 l -15.5802,0 c -4.9402,0 -8.9458,-1.2824 -12.017,-3.8472 -3.0712,-2.5647 -4.6068,-6.5385 -4.6068,-11.9213 z m 8.741,-0.6668 c 0,2.8508 0.8388,4.8938 2.5165,6.1288 1.6776,1.2351 3.7515,1.8526 6.2216,1.8526 l 13.8696,0 c 5.5103,0 8.2655,-2.6286 8.2656,-7.8858 l 0,-36.86 c -10e-5,-5.2571 -2.7234,-7.8857 -8.1699,-7.8858 l -14.061,0 c -2.9765,10e-5 -5.161,0.7602 -6.5535,2.2802 -1.3926,1.5202 -2.0889,3.3887 -2.0889,5.6056 z"
         id="path3050"
         style="font-size:95px;font-weight:normal;text-align:start;line-height:50%;writing-mode:lr-tb;text-anchor:start;font-family:Exo;-inkscape-font-specification:Exo" />
    </g>
    <g
       id="text3173"
       style="font-size:144px;font-style:normal;font-variant:normal;font-weight:bold;font-stretch:normal;line-height:50%;letter-spacing:0px;word-spacing:0px;fill:#000000;fill-opacity:1;stroke:none;font-family:Exo;-inkscape-font-specification:Sans Bold">
      <path
         d="m 3358.3986,-1108.9244 0,-6.4594 c 9.8165,-1.3934 19.4437,-2.0902 28.8815,-2.0903 7.7272,10e-5 13.3004,2.9457 16.7195,8.8367 1.9637,3.2935 2.9455,6.8716 2.9456,10.7342 -1e-4,3.8627 -0.9186,7.7099 -2.7557,11.5416 -1.8372,3.8318 -3.9748,7.2359 -6.413,10.2123 -2.4382,2.9765 -5.304,6.0168 -8.5975,9.1208 -4.7488,4.4338 -9.4348,8.2974 -14.058,11.5909 l 31.8242,0 0,8.454 -47.8798,0 0,-7.8858 c 6.1423,-4.1168 11.6522,-8.2491 16.5296,-12.3968 4.8773,-4.1478 8.7883,-7.7418 11.7329,-10.782 2.9446,-3.0403 5.4775,-6.3178 7.5988,-9.8326 2.1211,-3.5147 3.1817,-6.8396 3.1818,-9.9746 -10e-5,-3.1349 -0.9814,-5.7635 -2.9441,-7.8857 -1.9628,-2.1222 -5.0026,-3.1832 -9.1194,-3.1833 z"
         id="path3056"
         style="font-size:95px;font-weight:normal;text-align:start;line-height:50%;writing-mode:lr-tb;text-anchor:start;font-family:Exo;-inkscape-font-specification:Exo" />
      <path
         d="m 3438.8418,-1116.5231 0,69.5395 -8.741,0 0,-60.1346 -15.296,4.6531 0,-6.0795 15.296,-7.9785 z"
         id="path3058"
         style="font-size:95px;font-weight:normal;text-align:start;line-height:50%;writing-mode:lr-tb;text-anchor:start;font-family:Exo;-inkscape-font-specification:Exo" />
      <path
         d="m 3478.9576,-1116.9029 9.7847,0 9.6891,12.823 -7.1233,0 z m -4.2762,21.4683 c 6.4612,-1.9617 14.6321,-2.9426 24.5124,-2.9426 6.2062,0 10.5762,2.0894 13.1101,6.268 1.3916,2.3445 2.0874,5.29 2.0874,8.8366 l 0,36.289 -6.6478,0 -2.0903,-5.8912 c -0.1895,0.1914 -1.2346,0.7775 -3.1355,1.7584 -1.9009,0.9809 -4.4662,2.0101 -7.6958,3.0876 -3.2297,1.0775 -6.0796,1.6163 -8.5497,1.6163 -3.9254,0 -7.1078,-1.1718 -9.5469,-3.5152 -2.4392,-2.3435 -3.6588,-5.4471 -3.6588,-9.3107 l 0,-5.5114 c 0,-3.8616 1.1558,-6.9802 3.4674,-9.3556 2.3116,-2.3753 5.5577,-3.563 9.7383,-3.5631 6.4613,10e-5 11.3068,10e-5 14.5365,0 3.2296,10e-5 4.8445,10e-5 4.8445,0 0.064,-1.8361 0.096,-3.2137 0.096,-4.1327 -1e-4,-0.919 -0.016,-1.6631 -0.048,-2.2324 -0.032,-0.5692 -0.159,-1.2654 -0.3812,-2.0888 -0.2223,-0.8234 -0.5393,-1.5201 -0.9509,-2.0903 -0.4118,-0.5702 -0.9336,-1.0137 -1.5656,-1.3308 -1.1404,-0.6976 -2.6924,-1.0146 -4.6561,-0.9509 -5.1934,10e-5 -13.0153,0.3489 -23.4658,1.0466 z m 7.1261,35.3409 c 0,3.7999 1.8052,5.6998 5.4157,5.6998 2.0893,0 4.67,-0.3957 7.7422,-1.1872 3.0721,-0.7915 5.621,-1.567 7.6466,-2.3266 l 3.0412,-1.1423 0,-12.3476 -18.6214,1.3279 c -3.4829,0.317 -5.2243,2.2807 -5.2243,5.8911 z"
         id="path3060"
         style="font-size:95px;font-weight:normal;text-align:start;line-height:50%;writing-mode:lr-tb;text-anchor:start;font-family:Exo;-inkscape-font-specification:Exo" />
      <path
         d="m 3575.0535,-1046.3197 -5.6041,0 c -0.7615,0 -1.3322,0 -1.7119,0 -0.3798,0 -1.4245,-0.015 -3.134,-0.046 -1.7096,-0.031 -2.8813,-0.062 -3.5153,-0.094 -0.6339,-0.032 -1.6631,-0.095 -3.0876,-0.1899 -1.4245,-0.095 -2.5324,-0.2059 -3.3239,-0.3334 -0.7915,-0.1276 -1.7574,-0.2861 -2.8977,-0.4755 -1.8999,-0.317 -3.8636,-0.8234 -5.8911,-1.5192 l 0.096,-5.8911 27.171,0 c 5.1295,0 8.2326,-1.2659 9.3092,-3.7979 0.5701,-1.1403 0.8552,-2.5976 0.8553,-4.3719 l 0,-4.9402 c -10e-5,-5.953 -3.1988,-9.0242 -9.5963,-9.2136 l -21.9438,-0.7596 0,-6.842 21.9438,-0.948 c 6.5231,-0.317 9.7847,-3.2306 9.7847,-8.741 l 0,-5.6998 c 0,-1.8999 -0.5064,-3.4828 -1.5192,-4.7489 -1.7105,-2.2168 -4.4657,-3.3252 -8.2655,-3.3253 l -28.4032,0 0,-5.7954 c 5.1296,-1.8361 11.9378,-2.7542 20.4247,-2.7543 3.1021,1e-4 6.4265,0.031 9.9731,0.093 5.0677,0.064 9.0739,1.5681 12.0185,4.5126 2.9446,2.9446 4.4169,6.7604 4.4169,11.4474 l 0,6.1752 c 0,6.9677 -2.1531,11.3058 -6.4593,13.0144 4.3062,2.4701 6.4593,7.0943 6.4593,13.8725 l 0,5.1286 c 0,10.8294 -5.6998,16.2441 -17.0993,16.2441 z"
         id="path3062"
         style="font-size:95px;font-weight:normal;text-align:start;line-height:50%;writing-mode:lr-tb;text-anchor:start;font-family:Exo;-inkscape-font-specification:Exo" />
      <path
         d="m 3615.0302,-1087.0734 c 1.8999,-1.9636 5.7944,-2.9455 11.6836,-2.9455 1.7105,0 3.4365,0.032 5.178,0.096 1.7414,0.064 3.4035,0.1111 4.9865,0.142 1.5829,0.031 3.3881,0.4581 5.4157,1.2814 2.0274,0.8234 3.6423,1.9638 4.8445,3.4211 2.4062,2.8509 3.6094,6.6826 3.6095,11.4952 l 0,10.5443 c -1e-4,3.104 -0.5224,5.7799 -1.567,8.0278 -1.0448,2.2478 -2.4224,3.9419 -4.1328,5.0822 -3.2297,2.2169 -6.6807,3.3253 -10.3529,3.3253 -6.4614,0 -11.418,-0.1265 -14.8699,-0.3797 -3.452,-0.2532 -8.1853,-0.8862 -14.2001,-1.899 l 0,-6.6507 28.3075,0 c 2.9146,0 4.9894,-0.8074 6.2245,-2.4223 1.235,-1.6148 1.8525,-3.5625 1.8526,-5.8432 l 0,-9.3093 c -1e-4,-2.0912 -0.1586,-3.5007 -0.4755,-4.2284 -0.317,-0.7277 -0.6654,-1.3447 -1.0452,-1.8511 -0.3798,-0.5064 -0.8548,-0.9181 -1.4249,-1.2351 -1.266,-0.6977 -2.9127,-1.0465 -4.9402,-1.0466 l -13.11,0 c -2.0275,10e-5 -3.7376,0.5543 -5.1301,1.6627 -1.3926,1.1085 -2.0889,2.7712 -2.0889,4.988 l -7.9814,0 2.0903,-41.7045 40.6609,0 0,8.4539 -32.491,0 z"
         id="path3064"
         style="font-size:95px;font-weight:normal;text-align:start;line-height:50%;writing-mode:lr-tb;text-anchor:start;font-family:Exo;-inkscape-font-specification:Exo" />
    </g>
    <g
       id="text3177"
       style="font-size:144px;font-style:normal;font-variant:normal;font-weight:bold;font-stretch:normal;line-height:50%;letter-spacing:0px;word-spacing:0px;fill:#000000;fill-opacity:1;stroke:none;font-family:Exo;-inkscape-font-specification:Sans Bold">
      <path
         d="m 3387.2801,-816.03635 -5.6041,0 c -0.7615,0 -1.3322,0 -1.712,0 -0.3798,0 -1.4244,-0.0155 -3.134,-0.0464 -1.7095,-0.0309 -2.8813,-0.0623 -3.5152,-0.0942 -0.634,-0.0319 -1.6632,-0.0952 -3.0876,-0.18989 -1.4245,-0.0947 -2.5325,-0.20584 -3.3239,-0.33341 -0.7915,-0.12756 -1.7574,-0.28605 -2.8977,-0.47546 -1.9,-0.31698 -3.8637,-0.82336 -5.8912,-1.51917 l 0.096,-5.89111 27.171,0 c 5.1296,1e-5 8.2327,-1.26596 9.3093,-3.79791 0.5701,-1.14033 0.8552,-2.59764 0.8552,-4.37195 l 0,-4.94018 c 0,-5.95294 -3.1988,-9.02412 -9.5962,-9.21357 l -21.9438,-0.75958 0,-6.84204 21.9438,-0.94803 c 6.5231,-0.31694 9.7846,-3.2306 9.7847,-8.741 l 0,-5.69976 c -10e-5,-1.89987 -0.5065,-3.48282 -1.5192,-4.74884 -1.7105,-2.21684 -4.4657,-3.32529 -8.2655,-3.32535 l -28.4032,0 0,-5.79544 c 5.1296,-1.83608 11.9378,-2.75414 20.4247,-2.75421 3.102,7e-5 6.4264,0.031 9.9731,0.0928 5.0677,0.0639 9.0739,1.56803 12.0185,4.51256 2.9446,2.94465 4.4168,6.76044 4.4169,11.44737 l 0,6.17523 c -10e-5,6.96771 -2.1532,11.30583 -6.4594,13.01437 4.3062,2.47013 6.4593,7.0943 6.4594,13.87253 l 0,5.12863 c -10e-5,10.82938 -5.6998,16.24405 -17.0993,16.24405 z"
         id="path3070"
         style="font-size:95px;font-weight:normal;text-align:start;line-height:50%;writing-mode:lr-tb;text-anchor:start;font-family:Exo;-inkscape-font-specification:Exo" />
      <path
         d="m 3420.1306,-827.3866 c -1.0128,-2.69235 -1.8043,-6.20759 -2.3744,-10.54573 -0.5702,-4.3381 -0.8553,-9.46817 -0.8553,-15.39024 0,-5.922 0.459,-11.13132 1.3771,-15.62798 0.9181,-4.49655 2.2005,-7.9799 3.8472,-10.45005 3.104,-4.81256 6.8092,-7.25076 11.1154,-7.31461 1.3298,-0.0637 2.6276,-0.0956 3.8936,-0.0957 8.3612,7e-5 16.7533,0.63402 25.1764,1.90185 l 0,6.55503 -26.4114,0 c -2.7852,6e-5 -4.9383,1.39262 -6.4594,4.1777 -1.5192,2.72334 -2.4691,5.35192 -2.8499,7.88574 -0.5701,4.05309 -0.8862,7.53692 -0.948,10.45151 9.1188,-1.26786 16.9079,-1.90181 23.3673,-1.90186 5.8273,5e-5 10.0707,1.45736 12.7303,4.37195 1.8998,2.15315 2.8498,5.57224 2.8499,10.25727 l 0,11.97067 c -10e-5,9.69096 -5.2244,14.53644 -15.673,14.53644 l -14.0609,0 c -2.217,0 -4.1802,-0.31698 -5.8897,-0.95093 -1.7096,-0.63395 -3.3563,-1.75835 -4.9402,-3.37319 -1.5839,-1.61483 -2.8822,-3.76746 -3.895,-6.4579 z m 5.5113,-22.08877 c 0,7.28274 0.5064,12.508 1.5192,15.67581 1.2021,3.92549 2.7532,6.45839 4.6531,7.59872 1.2041,0.7596 2.5977,1.13939 4.1806,1.13938 l 12.2548,0 c 2.4063,10e-6 4.1168,-0.316 5.1316,-0.94803 1.7085,-1.14033 2.5628,-3.23063 2.5628,-6.27091 l 0,-10.35583 c 0,-2.5957 -0.6808,-4.38448 -2.0424,-5.36636 -1.3617,-0.98182 -3.2138,-1.47275 -5.5563,-1.47278 z"
         id="path3072"
         style="font-size:95px;font-weight:normal;text-align:start;line-height:50%;writing-mode:lr-tb;text-anchor:start;font-family:Exo;-inkscape-font-specification:Exo" />
      <path
         d="m 3503.0787,-886.61954 9.7847,0 9.6891,12.82303 -7.1233,0 z m -4.2762,21.46836 c 6.4612,-1.96173 14.6321,-2.94261 24.5124,-2.94266 6.2062,5e-5 10.5762,2.08938 13.1101,6.268 1.3915,2.34451 2.0873,5.29006 2.0874,8.83667 l 0,36.28891 -6.6478,0 -2.0903,-5.89111 c -0.1895,0.19135 -1.2346,0.77747 -3.1355,1.75835 -1.9009,0.98089 -4.4662,2.01009 -7.6958,3.08761 -3.2297,1.07753 -6.0796,1.61629 -8.5497,1.61629 -3.9254,0 -7.1078,-1.17175 -9.5469,-3.51524 -2.4392,-2.34349 -3.6588,-5.44705 -3.6588,-9.31069 l 0,-5.51132 c 0,-3.86167 1.1558,-6.98021 3.4674,-9.35562 2.3116,-2.37536 5.5577,-3.56305 9.7383,-3.56308 6.4613,3e-5 11.3068,3e-5 14.5365,0 3.2296,3e-5 4.8445,3e-5 4.8445,0 0.064,-1.83611 0.096,-3.2137 0.096,-4.13277 -1e-4,-0.919 -0.016,-1.66312 -0.048,-2.23236 -0.032,-0.56916 -0.159,-1.26545 -0.3812,-2.08885 -0.2223,-0.82332 -0.5393,-1.52009 -0.9509,-2.0903 -0.4118,-0.57013 -0.9336,-1.0137 -1.5656,-1.33072 -1.1404,-0.69769 -2.6924,-1.01467 -4.6561,-0.95093 -5.1934,4e-5 -13.0153,0.34891 -23.4658,1.0466 z m 7.1261,35.34088 c 0,3.79985 1.8052,5.69977 5.4157,5.69977 2.0893,0 4.67,-0.39573 7.7422,-1.18721 3.0721,-0.79147 5.621,-1.567 7.6466,-2.32659 l 3.0412,-1.14227 0,-12.34757 -18.6214,1.32782 c -3.4829,0.317 -5.2243,2.2807 -5.2243,5.89112 z"
         id="path3074"
         style="font-size:95px;font-weight:normal;text-align:start;line-height:50%;writing-mode:lr-tb;text-anchor:start;font-family:Exo;-inkscape-font-specification:Exo" />
      <path
         d="m 3582.9306,-856.78998 c 1.8999,-1.96366 5.7944,-2.94551 11.6836,-2.94555 1.7105,4e-5 3.4365,0.0319 5.1779,0.0957 1.7414,0.0638 3.4036,0.11118 4.9866,0.14206 1.5829,0.031 3.3881,0.45811 5.4157,1.28143 2.0274,0.82341 3.6422,1.96374 4.8445,3.42102 2.4062,2.85089 3.6094,6.68262 3.6094,11.49521 l 0,10.54428 c 0,3.10406 -0.5223,5.77999 -1.567,8.0278 -1.0447,2.24783 -2.4223,3.94191 -4.1327,5.08225 -3.2297,2.2169 -6.6807,3.32534 -10.353,3.32534 -6.4613,0 -11.4179,-0.12659 -14.8698,-0.37979 -3.452,-0.25319 -8.1853,-0.88618 -14.2001,-1.89895 l 0,-6.6507 28.3075,0 c 2.9146,10e-6 4.9894,-0.80741 6.2245,-2.42225 1.235,-1.61483 1.8525,-3.56259 1.8525,-5.84328 l 0,-9.30924 c 0,-2.09124 -0.1585,-3.50071 -0.4754,-4.22844 -0.317,-0.72766 -0.6654,-1.3447 -1.0452,-1.85112 -0.3798,-0.50635 -0.8548,-0.91803 -1.4249,-1.23504 -1.266,-0.6977 -2.9127,-1.04657 -4.9402,-1.0466 l -13.11,0 c -2.0275,3e-5 -3.7376,0.55426 -5.1301,1.66267 -1.3926,1.10848 -2.0889,2.77115 -2.0889,4.98802 l -7.9814,0 2.0903,-41.70456 40.6609,0 0,8.45398 -32.491,0 z"
         id="path3076"
         style="font-size:95px;font-weight:normal;text-align:start;line-height:50%;writing-mode:lr-tb;text-anchor:start;font-family:Exo;-inkscape-font-specification:Exo" />
      <path
         d="m 3640.079,-856.78998 c 1.8999,-1.96366 5.7945,-2.94551 11.6837,-2.94555 1.7104,4e-5 3.4364,0.0319 5.1779,0.0957 1.7414,0.0638 3.4036,0.11118 4.9866,0.14206 1.5829,0.031 3.3881,0.45811 5.4156,1.28143 2.0274,0.82341 3.6423,1.96374 4.8445,3.42102 2.4063,2.85089 3.6094,6.68262 3.6095,11.49521 l 0,10.54428 c -1e-4,3.10406 -0.5224,5.77999 -1.567,8.0278 -1.0447,2.24783 -2.4223,3.94191 -4.1328,5.08225 -3.2297,2.2169 -6.6807,3.32534 -10.3529,3.32534 -6.4613,0 -11.4179,-0.12659 -14.8699,-0.37979 -3.4519,-0.25319 -8.1853,-0.88618 -14.2001,-1.89895 l 0,-6.6507 28.3075,0 c 2.9146,10e-6 4.9894,-0.80741 6.2245,-2.42225 1.235,-1.61483 1.8525,-3.56259 1.8526,-5.84328 l 0,-9.30924 c -1e-4,-2.09124 -0.1585,-3.50071 -0.4755,-4.22844 -0.317,-0.72766 -0.6654,-1.3447 -1.0451,-1.85112 -0.3799,-0.50635 -0.8548,-0.91803 -1.425,-1.23504 -1.266,-0.6977 -2.9127,-1.04657 -4.9402,-1.0466 l -13.11,0 c -2.0275,3e-5 -3.7375,0.55426 -5.1301,1.66267 -1.3926,1.10848 -2.0889,2.77115 -2.0888,4.98802 l -7.9815,0 2.0904,-41.70456 40.6608,0 0,8.45398 -32.491,0 z"
         id="path3078"
         style="font-size:95px;font-weight:normal;text-align:start;line-height:50%;writing-mode:lr-tb;text-anchor:start;font-family:Exo;-inkscape-font-specification:Exo" />
    </g>
    <g
       id="text3181"
       style="font-size:144px;font-style:normal;font-variant:normal;font-weight:bold;font-stretch:normal;line-height:50%;letter-spacing:0px;word-spacing:0px;fill:#000000;fill-opacity:1;stroke:none;font-family:Exo;-inkscape-font-specification:Sans Bold">
      <path
         d="m 3371.8886,-626.7923 c 1.8999,-1.96366 5.7944,-2.94551 11.6836,-2.94555 1.7105,4e-5 3.4365,0.0319 5.178,0.0957 1.7414,0.0638 3.4035,0.11118 4.9865,0.14206 1.5829,0.031 3.3881,0.45811 5.4157,1.28143 2.0274,0.82341 3.6423,1.96375 4.8445,3.42102 2.4062,2.85089 3.6094,6.68262 3.6095,11.49521 l 0,10.54428 c -1e-4,3.10406 -0.5224,5.77999 -1.567,8.0278 -1.0448,2.24783 -2.4224,3.94191 -4.1328,5.08225 -3.2297,2.2169 -6.6807,3.32535 -10.353,3.32535 -6.4613,0 -11.4179,-0.1266 -14.8698,-0.3798 -3.452,-0.25319 -8.1853,-0.88617 -14.2001,-1.89895 l 0,-6.6507 28.3075,0 c 2.9146,10e-6 4.9894,-0.80741 6.2245,-2.42225 1.235,-1.61483 1.8525,-3.56259 1.8526,-5.84328 l 0,-9.30924 c -1e-4,-2.09124 -0.1586,-3.50071 -0.4755,-4.22844 -0.317,-0.72766 -0.6654,-1.3447 -1.0452,-1.85112 -0.3798,-0.50635 -0.8548,-0.91803 -1.4249,-1.23504 -1.266,-0.6977 -2.9127,-1.04657 -4.9402,-1.0466 l -13.11,0 c -2.0275,3e-5 -3.7376,0.55426 -5.1301,1.66267 -1.3926,1.10848 -2.0889,2.77116 -2.0889,4.98802 l -7.9814,0 2.0903,-41.70456 40.6609,0 0,8.45398 -32.491,0 z"
         id="path3084"
         style="font-size:95px;font-weight:normal;text-align:start;line-height:50%;writing-mode:lr-tb;text-anchor:start;font-family:Exo;-inkscape-font-specification:Exo" />
      <path
         d="m 3421.9109,-597.38892 c -1.0128,-2.69235 -1.8043,-6.20759 -2.3745,-10.54573 -0.5701,-4.3381 -0.8552,-9.46817 -0.8552,-15.39024 0,-5.922 0.459,-11.13132 1.3771,-15.62798 0.9181,-4.49655 2.2004,-7.9799 3.8472,-10.45005 3.104,-4.81256 6.8092,-7.25076 11.1154,-7.31461 1.3297,-0.0637 2.6276,-0.0956 3.8936,-0.0957 8.3612,7e-5 16.7533,0.63402 25.1764,1.90185 l 0,6.55503 -26.4115,0 c -2.7851,6e-5 -4.9382,1.39262 -6.4593,4.1777 -1.5192,2.72334 -2.4691,5.35192 -2.8499,7.88574 -0.5702,4.05309 -0.8862,7.53692 -0.948,10.45151 9.1188,-1.26786 16.9079,-1.90181 23.3673,-1.90186 5.8273,5e-5 10.0707,1.45736 12.7302,4.37195 1.8999,2.15315 2.8499,5.57224 2.8499,10.25727 l 0,11.97067 c 0,9.69096 -5.2243,14.53644 -15.6729,14.53644 l -14.061,0 c -2.2169,0 -4.1801,-0.31698 -5.8896,-0.95093 -1.7096,-0.63395 -3.3563,-1.75834 -4.9402,-3.37319 -1.5839,-1.61483 -2.8823,-3.76746 -3.895,-6.4579 z m 5.5113,-22.08877 c 0,7.28274 0.5064,12.508 1.5191,15.67581 1.2022,3.92549 2.7533,6.45839 4.6532,7.59872 1.2041,0.7596 2.5976,1.13939 4.1806,1.13938 l 12.2548,0 c 2.4063,10e-6 4.1168,-0.316 5.1315,-0.94803 1.7086,-1.14033 2.5629,-3.23063 2.5629,-6.2709 l 0,-10.35584 c 0,-2.59569 -0.6809,-4.38448 -2.0425,-5.36636 -1.3616,-0.98182 -3.2137,-1.47275 -5.5562,-1.47278 z"
         id="path3086"
         style="font-size:95px;font-weight:normal;text-align:start;line-height:50%;writing-mode:lr-tb;text-anchor:start;font-family:Exo;-inkscape-font-specification:Exo" />
      <path
         d="m 3504.859,-656.62186 9.7847,0 9.689,12.82303 -7.1232,0 z m -4.2763,21.46836 c 6.4613,-1.96172 14.6321,-2.94261 24.5125,-2.94266 6.2061,5e-5 10.5761,2.08938 13.1101,6.268 1.3915,2.34451 2.0873,5.29006 2.0874,8.83667 l 0,36.28891 -6.6478,0 -2.0903,-5.89111 c -0.1895,0.19135 -1.2346,0.77747 -3.1355,1.75835 -1.9009,0.98089 -4.4662,2.01009 -7.6958,3.08761 -3.2297,1.07753 -6.0796,1.61629 -8.5497,1.61629 -3.9255,0 -7.1078,-1.17175 -9.547,-3.51524 -2.4391,-2.34349 -3.6587,-5.44705 -3.6587,-9.31069 l 0,-5.51132 c 0,-3.86167 1.1558,-6.98021 3.4674,-9.35562 2.3116,-2.37536 5.5577,-3.56305 9.7383,-3.56308 6.4613,3e-5 11.3067,3e-5 14.5365,0 3.2296,3e-5 4.8444,3e-5 4.8445,0 0.064,-1.83611 0.096,-3.2137 0.096,-4.13277 0,-0.919 -0.016,-1.66312 -0.048,-2.23236 -0.032,-0.56916 -0.159,-1.26545 -0.3812,-2.08885 -0.2223,-0.82332 -0.5393,-1.52009 -0.951,-2.0903 -0.4117,-0.57013 -0.9335,-1.0137 -1.5655,-1.33072 -1.1404,-0.69769 -2.6924,-1.01467 -4.6561,-0.95093 -5.1934,5e-5 -13.0153,0.34891 -23.4659,1.0466 z m 7.1262,35.34088 c 0,3.79985 1.8052,5.69977 5.4156,5.69977 2.0894,0 4.6701,-0.39573 7.7423,-1.18721 3.0721,-0.79147 5.621,-1.567 7.6465,-2.32659 l 3.0413,-1.14227 0,-12.34757 -18.6214,1.32782 c -3.4829,0.317 -5.2243,2.28071 -5.2243,5.89112 z"
         id="path3088"
         style="font-size:95px;font-weight:normal;text-align:start;line-height:50%;writing-mode:lr-tb;text-anchor:start;font-family:Exo;-inkscape-font-specification:Exo" />
      <path
         d="m 3575.2103,-601.71158 0,-8.64532 c 0,-5.32092 2.6285,-8.77286 7.8857,-10.35584 -1.9637,-0.69576 -3.5476,-1.80421 -4.7517,-3.32535 -2.0894,-2.59568 -3.134,-5.95195 -3.134,-10.06881 l 0,-6.17524 c 0,-6.01668 1.4882,-10.26009 4.4647,-12.73025 2.9765,-2.47002 7.1561,-3.70507 12.5389,-3.70514 l 14.061,0 c 5.2571,7e-5 9.184,1.29841 11.7807,3.89504 2.5967,2.59675 3.895,6.77686 3.8951,12.54035 l 0,5.88822 c 0.062,1.64677 -0.1924,3.32539 -0.7625,5.03586 -1.1385,3.35728 -3.2597,5.35287 -6.3637,5.98678 1.2041,0.25323 2.2966,0.85481 3.2775,1.80474 0.9809,0.94999 1.7564,2.05796 2.3266,3.32389 1.0147,2.59769 1.522,5.09967 1.5221,7.50596 l 0,8.92944 c -10e-5,6.77633 -2.4702,11.27294 -7.4103,13.48984 -2.4701,1.07656 -5.2572,1.61483 -8.3612,1.61483 l -13.9653,0 c -3.1659,0 -5.8733,-0.41168 -8.122,-1.23504 -2.2488,-0.82336 -3.9274,-1.75738 -5.0359,-2.80205 -1.1084,-1.04466 -1.9787,-2.35943 -2.6107,-3.94432 -0.8234,-2.08933 -1.235,-4.43185 -1.235,-7.02759 z m 8.7381,-0.19134 c -1e-4,4.55943 2.9774,6.83915 8.9323,6.83914 l 12.4432,0 c 2.2169,10e-6 4.0854,-0.58563 5.6056,-1.7569 1.5201,-1.17125 2.2801,-2.86533 2.2802,-5.08224 l 0,-9.02512 c -10e-5,-2.3425 -0.7282,-4.13129 -2.1845,-5.36636 -1.4564,-1.23502 -3.2612,-1.85254 -5.4142,-1.85257 l -13.6812,0 c -2.3426,3e-5 -4.2584,0.56972 -5.7476,1.70906 -1.4892,1.1394 -2.2339,2.97602 -2.2338,5.50987 z m 0,-31.72852 c -1e-4,1.83619 0.4754,3.35535 1.4264,4.5575 1.5191,1.90189 3.7041,2.85282 6.555,2.85278 l 13.5855,0 c 5.1295,4e-5 7.6943,-2.47005 7.6944,-7.41028 l 0,-5.89111 c -10e-5,-3.22962 -0.6335,-5.52528 -1.9004,-6.88698 -1.267,-1.36158 -3.2302,-2.0424 -5.8897,-2.04247 l -12.5389,0 c -3.1678,7e-5 -5.4485,0.56975 -6.842,1.70906 -1.3936,1.13944 -2.0904,3.54623 -2.0903,7.22039 z"
         id="path3090"
         style="font-size:95px;font-weight:normal;text-align:start;line-height:50%;writing-mode:lr-tb;text-anchor:start;font-family:Exo;-inkscape-font-specification:Exo" />
      <path
         d="m 3634.6664,-602.47116 0,-37.81098 c 0,-5.12953 1.5516,-9.07192 4.6547,-11.82716 3.103,-2.75511 7.1247,-4.1327 12.0649,-4.13277 l 15.5801,0 c 8.106,7e-5 13.1728,3.26164 15.2003,9.7847 0.5702,1.8362 0.8552,3.83083 0.8553,5.98389 l 0,38.00232 c -10e-5,5.3828 -1.4095,9.35659 -4.2284,11.92139 -2.819,2.5648 -6.7933,3.84719 -11.9229,3.84719 l -15.5801,0 c -4.9402,0 -8.9459,-1.28239 -12.0171,-3.84719 -3.0712,-2.5648 -4.6068,-6.53859 -4.6068,-11.92139 z m 8.741,-0.66681 c 0,2.85086 0.8389,4.89381 2.5165,6.12885 1.6777,1.23505 3.7515,1.85257 6.2216,1.85256 l 13.8697,0 c 5.5103,10e-6 8.2655,-2.62856 8.2655,-7.88574 l 0,-36.86004 c 0,-5.25711 -2.7233,-7.88568 -8.1699,-7.88575 l -14.0609,0 c -2.9765,7e-5 -5.1611,0.76013 -6.5536,2.2802 -1.3926,1.52019 -2.0889,3.3887 -2.0889,5.60555 z"
         id="path3092"
         style="font-size:95px;font-weight:normal;text-align:start;line-height:50%;writing-mode:lr-tb;text-anchor:start;font-family:Exo;-inkscape-font-specification:Exo" />
    </g>
    <g
       id="text3185"
       style="font-size:144px;font-style:normal;font-variant:normal;font-weight:bold;font-stretch:normal;line-height:50%;letter-spacing:0px;word-spacing:0px;fill:#ffffff;fill-opacity:1;stroke:none;font-family:Exo;-inkscape-font-specification:Sans Bold">
      <path
         d="m 3360.202,-369.81262 0,-9.12079 24.8894,-11.39954 -24.8894,-10.44861 0,-8.93234 35.625,15.0119 0,8.83377 z"
         id="path3098"
         style="font-size:95px;font-weight:normal;text-align:start;line-height:50%;writing-mode:lr-tb;text-anchor:start;fill:#ffffff;font-family:Exo;-inkscape-font-specification:Exo" />
      <path
         d="m 3430.6693,-371.71158 0,-8.64532 c -1e-4,-5.32092 2.6285,-8.77286 7.8857,-10.35584 -1.9637,-0.69576 -3.5476,-1.80421 -4.7517,-3.32535 -2.0894,-2.59568 -3.1341,-5.95195 -3.134,-10.06881 l 0,-6.17524 c -1e-4,-6.01668 1.4882,-10.26009 4.4647,-12.73025 2.9764,-2.47002 7.1561,-3.70507 12.5389,-3.70514 l 14.061,0 c 5.2571,7e-5 9.184,1.29841 11.7807,3.89504 2.5967,2.59675 3.895,6.77686 3.8951,12.54035 l 0,5.88822 c 0.062,1.64677 -0.1924,3.32539 -0.7625,5.03586 -1.1385,3.35728 -3.2597,5.35287 -6.3637,5.98678 1.2041,0.25323 2.2966,0.85481 3.2775,1.80474 0.9809,0.94999 1.7564,2.05796 2.3266,3.32389 1.0147,2.59769 1.522,5.09967 1.5221,7.50596 l 0,8.92944 c -1e-4,6.77633 -2.4702,11.27294 -7.4103,13.48984 -2.4701,1.07656 -5.2572,1.61483 -8.3612,1.61483 l -13.9653,0 c -3.1659,0 -5.8733,-0.41168 -8.122,-1.23504 -2.2488,-0.82336 -3.9275,-1.75738 -5.0359,-2.80205 -1.1085,-1.04466 -1.9787,-2.35943 -2.6107,-3.94432 -0.8234,-2.08933 -1.2351,-4.43185 -1.235,-7.02759 z m 8.738,-0.19134 c 0,4.55943 2.9775,6.83915 8.9324,6.83914 l 12.4432,0 c 2.2169,1e-5 4.0854,-0.58563 5.6056,-1.7569 1.5201,-1.17125 2.2801,-2.86533 2.2802,-5.08224 l 0,-9.02512 c -1e-4,-2.3425 -0.7282,-4.13129 -2.1846,-5.36636 -1.4563,-1.23502 -3.2611,-1.85254 -5.4142,-1.85257 l -13.6811,0 c -2.3426,3e-5 -4.2585,0.56972 -5.7476,1.70906 -1.4893,1.1394 -2.2339,2.97602 -2.2339,5.50987 z m 0,-31.72852 c 0,1.83619 0.4755,3.35535 1.4264,4.5575 1.5192,1.90189 3.7042,2.85282 6.5551,2.85278 l 13.5855,0 c 5.1295,4e-5 7.6943,-2.47005 7.6944,-7.41028 l 0,-5.89111 c -1e-4,-3.22962 -0.6335,-5.52528 -1.9004,-6.88698 -1.267,-1.36158 -3.2302,-2.0424 -5.8897,-2.04247 l -12.5389,0 c -3.1679,7e-5 -5.4485,0.56975 -6.842,1.70906 -1.3936,1.13944 -2.0904,3.54623 -2.0904,7.22039 z"
         id="path3100"
         style="font-size:95px;font-weight:normal;text-align:start;line-height:50%;writing-mode:lr-tb;text-anchor:start;fill:#ffffff;font-family:Exo;-inkscape-font-specification:Exo" />
      <path
         d="m 3490.1254,-372.47116 0,-37.81098 c 0,-5.12953 1.5516,-9.07192 4.6546,-11.82716 3.1031,-2.75511 7.1247,-4.1327 12.0649,-4.13277 l 15.5802,0 c 8.106,7e-5 13.1728,3.26164 15.2003,9.7847 0.5701,1.8362 0.8552,3.83083 0.8553,5.98389 l 0,38.00232 c -1e-4,5.3828 -1.4096,9.35659 -4.2285,11.92139 -2.819,2.5648 -6.7932,3.84719 -11.9228,3.84719 l -15.5801,0 c -4.9402,0 -8.9459,-1.28239 -12.0171,-3.84719 -3.0712,-2.5648 -4.6068,-6.53859 -4.6068,-11.92139 z m 8.741,-0.66681 c 0,2.85086 0.8388,4.89381 2.5165,6.12885 1.6776,1.23505 3.7515,1.85257 6.2216,1.85256 l 13.8697,0 c 5.5103,1e-5 8.2654,-2.62856 8.2655,-7.88574 l 0,-36.86004 c -1e-4,-5.25711 -2.7233,-7.88568 -8.1699,-7.88575 l -14.0609,0 c -2.9766,7e-5 -5.1611,0.76013 -6.5536,2.2802 -1.3926,1.52019 -2.0889,3.3887 -2.0889,5.60555 z"
         id="path3102"
         style="font-size:95px;font-weight:normal;text-align:start;line-height:50%;writing-mode:lr-tb;text-anchor:start;fill:#ffffff;font-family:Exo;-inkscape-font-specification:Exo" />
    </g>
  </g>
</svg>
