<?xml version="1.0" encoding="UTF-8" standalone="no"?>
<!-- Created with Inkscape (http://www.inkscape.org/) -->

<svg
   xmlns:dc="http://purl.org/dc/elements/1.1/"
   xmlns:cc="http://creativecommons.org/ns#"
   xmlns:rdf="http://www.w3.org/1999/02/22-rdf-syntax-ns#"
   xmlns:svg="http://www.w3.org/2000/svg"
   xmlns="http://www.w3.org/2000/svg"
   xmlns:sodipodi="http://sodipodi.sourceforge.net/DTD/sodipodi-0.dtd"
   xmlns:inkscape="http://www.inkscape.org/namespaces/inkscape"
   version="1.1"
   width="90.703049"
   height="100"
   id="svg3123"
   inkscape:version="0.48.5 r10040"
   sodipodi:docname="ges.svg">
  <metadata
     id="metadata66">
    <rdf:RDF>
      <cc:Work
         rdf:about="">
        <dc:format>image/svg+xml</dc:format>
        <dc:type
           rdf:resource="http://purl.org/dc/dcmitype/StillImage" />
      </cc:Work>
    </rdf:RDF>
  </metadata>
  <defs
     id="defs64" />
  <sodipodi:namedview
     pagecolor="#ffffff"
     bordercolor="#666666"
     borderopacity="1"
     objecttolerance="10"
     gridtolerance="10"
     guidetolerance="10"
     inkscape:pageopacity="0"
     inkscape:pageshadow="2"
     inkscape:window-width="1362"
     inkscape:window-height="723"
     id="namedview62"
     showgrid="false"
     inkscape:zoom="3.1786133"
     inkscape:cx="129.64811"
     inkscape:cy="79.547265"
     inkscape:window-x="4"
     inkscape:window-y="0"
     inkscape:window-maximized="1"
     inkscape:current-layer="svg3123"
     fit-margin-top="0"
     fit-margin-left="0"
     fit-margin-right="0"
     fit-margin-bottom="0" />
  <g
     id="g3287"
     transform="matrix(0.52697867,0,0,0.52697867,-5.2384267,-5.3327607)">
    <path
       d="m 9.940491,10.1195 0,24.828766 48.628047,0 c 0,0 0.009,-24.785602 0,-24.828766 z"
       id="path3113"
       style="fill:#cccccc;fill-opacity:1;fill-rule:nonzero;stroke:none"
       inkscape:connector-curvature="0" />
    <path
       d="m 9.940491,37.608215 0,24.828767 68.502925,0 c 0.02101,-0.0039 0,-24.828767 0,-24.828767 z"
       id="path3115"
       style="fill:#b3b3b3;fill-opacity:1;fill-rule:nonzero;stroke:none"
       inkscape:connector-curvature="0" />
    <path
       d="m 9.940491,65.096919 0,24.828766 88.844167,0 c 0,0 -0.0012,-24.785483 0,-24.828766 z"
       id="path3117"
       style="fill:#999999;fill-opacity:1;fill-rule:nonzero;stroke:none"
       inkscape:connector-curvature="0" />
    <path
       d="m 9.940491,92.585622 0,24.828758 111.043079,0 c 0,0 0.0383,-24.824688 0,-24.828758 z"
       id="path3119"
       style="fill:#808080;fill-opacity:1;fill-rule:nonzero;stroke:none"
       inkscape:connector-curvature="0" />
    <path
       d="m 9.940491,120.07432 0,24.82877 130.783739,0 c -0.0182,-0.004 0,-24.82877 0,-24.82877 z"
       id="path3121"
       style="fill:#666666;fill-opacity:1;fill-rule:nonzero;stroke:none"
       inkscape:connector-curvature="0" />
    <path
       d="m 9.940491,147.56302 0,24.82878 152.535019,0 c -0.0182,-0.0432 0,-24.82878 0,-24.82878 z"
       id="path3123"
       style="fill:#4d4d4d;fill-opacity:1;fill-rule:nonzero;stroke:none"
       inkscape:connector-curvature="0" />
    <path
       d="m 9.940491,175.05173 0,24.82877 172.119019,0 c -0.009,-0.015 0,-24.82877 0,-24.82877 z"
       id="path3125"
       style="fill:#333333;fill-opacity:1;fill-rule:nonzero;stroke:none"
       inkscape:connector-curvature="0" />
    <path
       id="path3159"
       d="m 45.5,15.875 -4.0625,12.53125 3.6875,0 0.65625,-2.34375 4.03125,0 0.625,2.34375 3.6875,0 L 50,15.875 l -4.5,0 z m 2.28125,2.0625 c 0.05688,0.312899 0.167387,0.840019 0.34375,1.5625 0.182038,0.722499 0.343587,1.294895 0.46875,1.75 l 0.53125,2.0625 -2.65625,0 c 0.517684,-1.956976 0.852083,-3.27189 1,-3.9375 0.153595,-0.665592 0.26129,-1.147356 0.3125,-1.4375 z m -23.1875,0.46875 -0.3125,4.15625 0.6875,0.375 c 0.148423,-0.04452 0.356269,-0.08789 0.59375,-0.125 0.237477,-0.04082 0.459585,-0.0625 0.65625,-0.0625 1.087206,4e-6 1.624996,0.398708 1.625,1.21875 -4e-6,0.860864 -0.54365,1.281252 -1.59375,1.28125 -0.3488,2e-6 -0.704138,-0.02852 -1.09375,-0.125 -0.389616,-0.100185 -0.738113,-0.250403 -1.03125,-0.40625 l 0,1.5 c 0.55659,0.293139 1.282109,0.4375 2.1875,0.4375 1.042679,0 1.845943,-0.22895 2.40625,-0.71875 0.560297,-0.4898 0.843744,-1.215898 0.84375,-2.125 C 29.562494,23.044407 29.342531,22.441567 28.875,22 28.411169,21.558442 27.786645,21.343755 27,21.34375 c -0.333959,0 -0.617405,0.04181 -0.84375,0.09375 l -0.1875,0.03125 0.125,-1.59375 2.90625,0 0,-1.46875 -4.40625,0 z m -4.46875,0.6875 -5.53125,2.75 0,0.78125 5.53125,2.4375 0,-1.3125 -3.8125,-1.5625 3.8125,-1.78125 0,-1.3125 z m -5.53125,6.21875 0,1.25 5.53125,0 0,-1.25 -5.53125,0 z"
       style="font-size:11.39900017px;font-style:normal;font-variant:normal;font-weight:bold;font-stretch:normal;text-align:center;line-height:125%;letter-spacing:0px;word-spacing:0px;text-anchor:middle;fill:#000000;fill-opacity:1;stroke:none;font-family:Open Sans;-inkscape-font-specification:Open Sans Bold"
       inkscape:connector-curvature="0" />
    <path
       id="path3164"
       d="m 61.40625,43.78125 0,12.46875 4.84375,0 c 1.467729,0 2.621094,-0.320215 3.46875,-0.96875 C 70.572075,54.627027 70.999989,53.725844 71,52.59375 70.999989,51.831441 70.847013,51.227873 70.5,50.75 70.152967,50.272138 69.586182,49.923557 68.8125,49.71875 l 0,-0.09375 c 0.585948,-0.142216 1.047839,-0.442558 1.40625,-0.9375 0.358391,-0.494926 0.531239,-1.112757 0.53125,-1.8125 -1.1e-5,-1.063815 -0.393869,-1.843116 -1.21875,-2.34375 -0.819211,-0.506301 -2.085964,-0.749988 -3.78125,-0.75 l -4.34375,0 z m -36.4375,1.625 0,0.125 c 0.25232,0.244909 0.609803,0.570158 1.0625,0.9375 0.452692,0.363648 0.797478,0.61799 1.03125,0.78125 l 1.125,0 0,-0.15625 c -0.638229,-0.742115 -1.078735,-1.31272 -1.3125,-1.6875 l -1.90625,0 z M 43.25,45.875 c -0.964762,8e-6 -1.692425,0.348505 -2.15625,1.03125 -0.463827,0.679048 -0.6875,1.751499 -0.6875,3.1875 0,1.37664 0.243791,2.419985 0.71875,3.125 0.478667,0.705016 1.186212,1.03125 2.125,1.03125 0.968465,0 1.692419,-0.317247 2.15625,-1 0.467531,-0.682751 0.687494,-1.735083 0.6875,-3.15625 -6e-6,-1.372921 -0.236376,-2.412556 -0.71875,-3.125 C 44.896326,46.25632 44.18878,45.875008 43.25,45.875 z m -24.59375,0.03125 c -1.358087,8e-6 -2.379749,0.400858 -3.0625,1.1875 -0.679043,0.786656 -1,1.983349 -1,3.59375 0,0.753257 0.102559,1.403174 0.34375,1.9375 0.244899,0.53433 0.617226,0.940454 1.0625,1.21875 0.448982,0.278295 0.961378,0.40625 1.5625,0.40625 0.868279,0 1.541445,-0.245357 2.03125,-0.75 0.489795,-0.508353 0.749994,-1.194215 0.75,-2.0625 -6e-6,-0.805199 -0.213128,-1.418591 -0.625,-1.875 C 19.306867,49.1061 18.727275,48.875005 18,48.875 c -0.808917,5e-6 -1.382652,0.306701 -1.75,0.9375 l -0.09375,0 c 0.03339,-0.641931 0.158217,-1.151197 0.34375,-1.5 0.185528,-0.348792 0.472686,-0.603134 0.84375,-0.78125 0.374768,-0.178104 0.847509,-0.249993 1.4375,-0.25 0.322819,7e-6 0.6385,0.01954 0.96875,0.09375 l 0,-1.375 c -0.263459,-0.05565 -0.629928,-0.09374 -1.09375,-0.09375 z m 18.125,0.125 -2.625,2.0625 L 35,49.125 l 0.9375,-0.75 c 0.111316,-0.08905 0.30803,-0.276777 0.59375,-0.5625 L 36.5,48.65625 l -0.03125,0.78125 0,4.71875 1.71875,0 0,-8.125 -1.40625,0 z m 28,0.3125 0.9375,0 c 1.05813,1e-5 1.593742,0.331525 1.59375,1.03125 -8e-6,0.392543 -0.138879,0.707147 -0.40625,0.90625 -0.261696,0.199118 -0.641449,0.281257 -1.125,0.28125 l -1,0 0,-2.21875 z M 43.25,47.28125 c 0.397031,7e-6 0.665637,0.218404 0.84375,0.65625 0.18182,0.434147 0.281245,1.1581 0.28125,2.15625 -5e-6,0.987026 -0.07189,1.687151 -0.25,2.125 -0.178114,0.437854 -0.474258,0.656251 -0.875,0.65625 -0.408171,10e-7 -0.700603,-0.225817 -0.875,-0.65625 -0.170692,-0.434139 -0.250002,-1.126842 -0.25,-2.125 -2e-6,-0.99815 0.0756,-1.722103 0.25,-2.15625 0.174397,-0.437846 0.47054,-0.656243 0.875,-0.65625 z M 27.09375,47.8125 c -0.871996,6e-6 -1.658853,0.187735 -2.375,0.5625 l 0.5625,1.125 c 0.671619,-0.300554 1.252775,-0.437495 1.75,-0.4375 0.645643,5e-6 0.968746,0.306701 0.96875,0.9375 l 0,0.28125 -1.09375,0.03125 c -0.931366,0.0334 -1.629925,0.215851 -2.09375,0.53125 -0.460117,0.311694 -0.687501,0.777014 -0.6875,1.4375 -1e-6,0.630806 0.189873,1.127374 0.53125,1.46875 0.345086,0.341376 0.80884,0.5 1.40625,0.5 0.486088,0 0.886937,-0.05021 1.1875,-0.1875 0.304266,-0.141003 0.589279,-0.39007 0.875,-0.75 l 0.03125,0 0.34375,0.84375 1.1875,0 0,-4.15625 C 29.687494,49.257883 29.445268,48.707396 29,48.34375 28.554722,47.980117 27.928634,47.812506 27.09375,47.8125 z m -9.53125,2.375 c 0.371058,4e-6 0.661926,0.113696 0.84375,0.34375 0.185526,0.226351 0.249996,0.540467 0.25,0.9375 -4e-6,0.456407 -0.08459,0.813891 -0.28125,1.0625 -0.196666,0.244902 -0.476403,0.343751 -0.84375,0.34375 -0.356222,10e-7 -0.641234,-0.133228 -0.875,-0.4375 -0.23006,-0.304268 -0.343752,-0.683435 -0.34375,-1.125 -2e-6,-0.300557 0.09885,-0.554899 0.34375,-0.78125 0.248609,-0.226343 0.55745,-0.343746 0.90625,-0.34375 z m 47.21875,0.84375 1.09375,0 c 0.534751,6e-6 0.939987,0.121888 1.21875,0.34375 0.284438,0.221872 0.437493,0.522215 0.4375,0.9375 -7e-6,0.887472 -0.510059,1.343752 -1.5625,1.34375 l -1.1875,0 0,-2.625 z m -37.4375,0.25 0.65625,0 0,0.5 c -4e-6,0.374774 -0.137525,0.679904 -0.375,0.90625 -0.233772,0.226348 -0.544178,0.343751 -0.9375,0.34375 -0.549173,10e-7 -0.812502,-0.240079 -0.8125,-0.71875 -2e-6,-0.333953 0.133808,-0.58673 0.375,-0.75 0.241187,-0.163264 0.600235,-0.2664 1.09375,-0.28125 z"
       style="font-size:11.39900017px;font-style:normal;font-variant:normal;font-weight:bold;font-stretch:normal;text-align:start;line-height:125%;letter-spacing:0px;word-spacing:0px;text-anchor:start;fill:#000000;fill-opacity:1;stroke:none;font-family:Open Sans;-inkscape-font-specification:Open Sans Bold"
       inkscape:connector-curvature="0" />
    <path
       id="path3173"
       d="m 87.8125,71 c -1.234497,1.2e-5 -2.302841,0.252194 -3.21875,0.78125 -0.910227,0.52339 -1.604506,1.271519 -2.09375,2.25 -0.483557,0.9785 -0.718751,2.114876 -0.71875,3.40625 -10e-7,2.065076 0.498751,3.657733 1.5,4.75 1.006932,1.09227 2.429468,1.625 4.3125,1.625 1.314128,0 2.490171,-0.226699 3.53125,-0.6875 l 0,-2.84375 c -0.523389,0.216181 -1.044819,0.408902 -1.5625,0.5625 -0.517699,0.153601 -1.041934,0.218752 -1.59375,0.21875 -1.826144,2e-6 -2.750005,-1.193028 -2.75,-3.59375 -5e-6,-1.15484 0.238072,-2.064518 0.6875,-2.71875 0.449418,-0.659903 1.072859,-0.99999 1.875,-1 0.529061,1e-5 1.039191,0.07085 1.5,0.21875 0.460792,0.147921 0.914189,0.346331 1.375,0.5625 L 91.6875,71.875 C 90.458687,71.289056 89.160762,71.000012 87.8125,71 z m -56.65625,1.75 0,0.09375 c 0.25232,0.244908 0.609803,0.570158 1.0625,0.9375 0.452692,0.363647 0.797478,0.617991 1.03125,0.78125 l 1.125,0 0,-0.15625 C 33.736771,73.664135 33.296265,73.12478 33.0625,72.75 l -1.90625,0 z m 18.28125,0.4375 c -0.964762,9e-6 -1.692425,0.348506 -2.15625,1.03125 -0.463827,0.679049 -0.6875,1.751498 -0.6875,3.1875 0,1.376639 0.243791,2.419985 0.71875,3.125 0.478667,0.705016 1.186212,1.0625 2.125,1.0625 0.968465,0 1.692418,-0.348497 2.15625,-1.03125 0.467531,-0.682751 0.687494,-1.735083 0.6875,-3.15625 -6e-6,-1.372921 -0.236376,-2.412556 -0.71875,-3.125 -0.478674,-0.71243 -1.18622,-1.093741 -2.125,-1.09375 z m -6.40625,0.03125 c -0.385906,9e-6 -0.750811,0.04709 -1.0625,0.125 -0.311694,0.07422 -0.611549,0.171504 -0.875,0.3125 -0.263455,0.141011 -0.568005,0.377381 -0.96875,0.71875 l 0.9375,1.125 c 0.322822,-0.267158 0.609399,-0.48028 0.90625,-0.625 0.296846,-0.144711 0.622095,-0.218743 0.9375,-0.21875 0.300556,7e-6 0.540637,0.0592 0.71875,0.21875 0.18182,0.159562 0.249995,0.423472 0.25,0.75 -5e-6,0.218932 -0.04337,0.420921 -0.125,0.625 -0.08164,0.204088 -0.189473,0.415065 -0.375,0.65625 -0.185534,0.237483 -0.582674,0.692831 -1.1875,1.3125 l -2.0625,2.0625 0,1.1875 5.6875,0 0,-1.4375 -3.53125,0 0,-0.09375 1.03125,-0.96875 c 0.697591,-0.638222 1.19416,-1.154909 1.46875,-1.5 0.278291,-0.345082 0.495123,-0.673461 0.625,-1 0.133573,-0.330239 0.187495,-0.687723 0.1875,-1.0625 -5e-6,-0.430425 -0.09729,-0.791038 -0.3125,-1.125 C 45.066029,73.947302 44.764609,73.685539 44.375,73.5 43.985381,73.314474 43.5396,73.218759 43.03125,73.21875 z m -25.875,0.125 -2.59375,2.0625 0.8125,1.0625 0.9375,-0.78125 c 0.111316,-0.08905 0.308031,-0.276777 0.59375,-0.5625 L 16.875,76 l 0,0.75 0,4.71875 1.71875,0 0,-8.125 -1.4375,0 z m 6.5,0 -2.59375,2.0625 0.8125,1.0625 0.9375,-0.78125 c 0.111315,-0.08905 0.30803,-0.276777 0.59375,-0.5625 L 23.375,76 l 0,0.75 0,4.71875 1.71875,0 0,-8.125 -1.4375,0 z m 25.78125,1.25 c 0.397031,7e-6 0.665637,0.218405 0.84375,0.65625 0.18182,0.434148 0.281245,1.1581 0.28125,2.15625 -5e-6,0.987026 -0.07189,1.68715 -0.25,2.125 -0.178114,0.437854 -0.474258,0.656252 -0.875,0.65625 -0.408171,2e-6 -0.700603,-0.194568 -0.875,-0.625 -0.170692,-0.434139 -0.250002,-1.158093 -0.25,-2.15625 -2e-6,-0.99815 0.0756,-1.722102 0.25,-2.15625 0.174397,-0.437845 0.47054,-0.656243 0.875,-0.65625 z M 33.28125,75.125 c -0.871996,7e-6 -1.658853,0.187734 -2.375,0.5625 l 0.5625,1.125 c 0.671618,-0.300555 1.252775,-0.437495 1.75,-0.4375 0.645643,5e-6 0.968746,0.306701 0.96875,0.9375 l 0,0.28125 -1.09375,0.03125 C 32.162384,77.6584 31.463825,77.840851 31,78.15625 c -0.460117,0.311694 -0.687501,0.777014 -0.6875,1.4375 -1e-6,0.630805 0.189873,1.127374 0.53125,1.46875 0.345086,0.341376 0.80884,0.53125 1.40625,0.53125 0.486088,0 0.886937,-0.08146 1.1875,-0.21875 0.304266,-0.141003 0.589279,-0.39007 0.875,-0.75 l 0.03125,0 0.34375,0.84375 1.1875,0 0,-4.15625 c -6e-6,-0.742118 -0.242232,-1.292604 -0.6875,-1.65625 -0.445278,-0.363634 -1.071366,-0.531243 -1.90625,-0.53125 z m 0.25,3.46875 0.65625,0 0,0.5 c -4e-6,0.374773 -0.137525,0.679905 -0.375,0.90625 -0.233772,0.226349 -0.544179,0.343751 -0.9375,0.34375 -0.549173,10e-7 -0.812502,-0.24008 -0.8125,-0.71875 -2e-6,-0.333953 0.102558,-0.586731 0.34375,-0.75 0.241187,-0.163264 0.631485,-0.26641 1.125,-0.28125 z"
       style="font-size:11.39900017px;font-style:normal;font-variant:normal;font-weight:bold;font-stretch:normal;text-align:start;line-height:125%;letter-spacing:0px;word-spacing:0px;text-anchor:start;fill:#000000;fill-opacity:1;stroke:none;font-family:Open Sans;-inkscape-font-specification:Open Sans Bold"
       inkscape:connector-curvature="0" />
    <path
       id="path3184"
       d="m 102.96875,98.71875 0,12.46875 4.03125,0 c 2.07644,0 3.70028,-0.5611 4.84375,-1.6875 1.14915,-1.1264 1.71874,-2.73036 1.71875,-4.8125 -1e-5,-1.93422 -0.56399,-3.41349 -1.65625,-4.4375 -1.08659,-1.023991 -2.62252,-1.531237 -4.625,-1.53125 l -4.3125,0 z m -71.8125,1.625 0,0.125 c 0.25232,0.24491 0.609803,0.53891 1.0625,0.90625 0.452692,0.36364 0.797478,0.61799 1.03125,0.78125 l 1.125,0 0,-0.125 c -0.638229,-0.74212 -1.078735,-1.31272 -1.3125,-1.6875 l -1.90625,0 z m -13.9375,0.46875 c -0.385907,0 -0.750811,0.0471 -1.0625,0.125 -0.311693,0.0742 -0.580298,0.17151 -0.84375,0.3125 -0.263455,0.14101 -0.599255,0.37738 -1,0.71875 l 0.9375,1.125 c 0.322822,-0.26716 0.640649,-0.48028 0.9375,-0.625 0.296847,-0.14467 0.590845,-0.21874 0.90625,-0.21875 0.300556,1e-5 0.540637,0.0905 0.71875,0.25 0.18182,0.15956 0.281246,0.39222 0.28125,0.71875 -4e-6,0.21893 -0.04337,0.45217 -0.125,0.65625 -0.08164,0.20409 -0.220723,0.41506 -0.40625,0.65625 -0.185534,0.23748 -0.582673,0.66159 -1.1875,1.28125 l -2.03125,2.0625 0,1.1875 5.6875,0 0,-1.4375 -3.5625,0 0,-0.0625 1.0625,-1 c 0.697591,-0.63822 1.16291,-1.12365 1.4375,-1.46875 0.27829,-0.34508 0.495123,-0.67346 0.625,-1 0.133573,-0.33024 0.187494,-0.68772 0.1875,-1.0625 -6e-6,-0.43043 -0.09729,-0.82229 -0.3125,-1.15625 -0.215221,-0.33395 -0.516641,-0.59571 -0.90625,-0.78125 -0.389618,-0.18549 -0.8354,-0.28125 -1.34375,-0.28125 z m 25.5625,0 c -1.027842,0 -1.914129,0.27818 -2.65625,0.8125 l 0.78125,1.1875 c 0.337664,-0.21892 0.662913,-0.37965 0.9375,-0.46875 0.278293,-0.0891 0.545333,-0.125 0.8125,-0.125 0.771803,0 1.156246,0.29029 1.15625,0.90625 -4e-6,0.40075 -0.144365,0.70803 -0.4375,0.875 -0.289431,0.1633 -0.744199,0.21876 -1.375,0.21875 l -0.625,0 0,1.34375 0.59375,0 c 0.682749,0 1.188305,0.0592 1.5,0.21875 0.311687,0.15956 0.468746,0.43031 0.46875,0.8125 -4e-6,0.42673 -0.13538,0.74455 -0.40625,0.9375 -0.270878,0.19293 -0.682279,0.28125 -1.25,0.28125 -0.371063,0 -0.74652,-0.0248 -1.125,-0.125 -0.378484,-0.10018 -0.715849,-0.2467 -1.03125,-0.40625 l 0,1.46875 c 0.682752,0.29314 1.460622,0.4375 2.34375,0.4375 1.05381,0 1.869772,-0.22211 2.4375,-0.65625 0.567718,-0.43785 0.843744,-1.02956 0.84375,-1.8125 -6e-6,-0.53803 -0.16234,-0.96584 -0.5,-1.28125 -0.337671,-0.31911 -0.843227,-0.5434 -1.5,-0.625 l 0,-0.0312 c 0.556587,-0.13358 0.973264,-0.36252 1.28125,-0.71875 0.307975,-0.35621 0.468744,-0.80415 0.46875,-1.3125 -6e-6,-0.60854 -0.228955,-1.06487 -0.71875,-1.40625 -0.486095,-0.34137 -1.157695,-0.53125 -2,-0.53125 z m -19.125,0.125 -2.59375,2.09375 0.8125,1.03125 0.9375,-0.75 c 0.111315,-0.0891 0.30803,-0.27677 0.59375,-0.5625 l -0.03125,0.84375 0,0.78125 0,4.6875 1.71875,0 0,-8.125 -1.4375,0 z m 23.5625,0 -0.3125,4.15625 0.6875,0.34375 c 0.148423,-0.0446 0.325019,-0.0567 0.5625,-0.0937 0.237477,-0.0408 0.459585,-0.0625 0.65625,-0.0625 1.087205,1e-5 1.624995,0.39871 1.625,1.21875 -5e-6,0.86087 -0.512401,1.28125 -1.5625,1.28125 -0.3488,0 -0.735388,-0.0285 -1.125,-0.125 -0.389615,-0.10018 -0.706862,-0.2504 -1,-0.40625 l 0,1.5 c 0.556591,0.29314 1.282109,0.4375 2.1875,0.4375 1.042678,0 1.845943,-0.2602 2.40625,-0.75 0.560296,-0.4898 0.843744,-1.18465 0.84375,-2.09375 -6e-6,-0.76809 -0.251218,-1.37093 -0.71875,-1.8125 -0.463831,-0.44156 -1.088354,-0.65624 -1.875,-0.65625 -0.333958,0 -0.617405,0.0418 -0.84375,0.0937 L 48.5625,104 l 0.15625,-1.59375 2.90625,0 0,-1.46875 -4.40625,0 z m 59.125,0.5 0.96875,0 c 0.9216,1e-5 1.61307,0.29194 2.0625,0.84375 0.4551,0.55183 0.68749,1.38779 0.6875,2.53125 -1e-5,1.22312 -0.24089,2.12142 -0.71875,2.71875 -0.47787,0.59165 -1.22601,0.90625 -2.25,0.90625 l -0.75,0 0,-7 z m -73.0625,1.28125 c -0.871996,1e-5 -1.658853,0.18773 -2.375,0.5625 l 0.5625,1.15625 c 0.671618,-0.30056 1.252775,-0.46875 1.75,-0.46875 0.645643,0 0.968746,0.33795 0.96875,0.96875 l 0,0.25 -1.09375,0.0625 c -0.931366,0.0334 -1.629925,0.1846 -2.09375,0.5 -0.460117,0.31169 -0.687501,0.80826 -0.6875,1.46875 -1e-6,0.6308 0.189873,1.12737 0.53125,1.46875 0.345086,0.34137 0.80884,0.5 1.40625,0.5 0.486088,0 0.886937,-0.0815 1.1875,-0.21875 0.304266,-0.141 0.589279,-0.39007 0.875,-0.75 l 0.03125,0 0.34375,0.84375 1.1875,0 0,-4.125 c -6e-6,-0.74211 -0.242232,-1.2926 -0.6875,-1.65625 -0.445278,-0.36363 -1.071366,-0.56249 -1.90625,-0.5625 z m 0.90625,3.46875 0,0.53125 c -4e-6,0.37477 -0.137525,0.64865 -0.375,0.875 -0.233772,0.22635 -0.544179,0.34375 -0.9375,0.34375 -0.549173,0 -0.812502,-0.24008 -0.8125,-0.71875 -2e-6,-0.33396 0.102558,-0.58673 0.34375,-0.75 0.241187,-0.16326 0.631485,-0.2351 1.125,-0.25 l 0.65625,-0.0312 z"
       style="font-size:11.39900017px;font-style:normal;font-variant:normal;font-weight:bold;font-stretch:normal;text-align:start;line-height:125%;letter-spacing:0px;word-spacing:0px;text-anchor:start;fill:#000000;fill-opacity:1;stroke:none;font-family:Open Sans;-inkscape-font-specification:Open Sans Bold"
       inkscape:connector-curvature="0" />
    <path
       id="path3195"
       d="m 124.5,126.25 0,12.46875 7.40625,0 0,-2.75 -4.03125,0 0,-2.34375 3.75,0 0,-2.71875 -3.75,0 0,-1.9375 4.03125,0 0,-2.71875 -7.40625,0 z m -93.34375,1.5625 0,0.125 c 0.25232,0.24491 0.609803,0.53891 1.0625,0.90625 0.452692,0.36365 0.797478,0.61799 1.03125,0.78125 l 1.125,0 0,-0.125 c -0.638229,-0.74211 -1.078735,-1.31272 -1.3125,-1.6875 l -1.90625,0 z m -14.1875,0.46875 c -1.027841,1e-5 -1.914129,0.27818 -2.65625,0.8125 l 0.8125,1.1875 c 0.337664,-0.21892 0.631663,-0.37965 0.90625,-0.46875 0.278294,-0.0891 0.545333,-0.125 0.8125,-0.125 0.771804,0 1.156246,0.2903 1.15625,0.90625 -4e-6,0.40075 -0.144366,0.70802 -0.4375,0.875 -0.289431,0.1633 -0.744199,0.25 -1.375,0.25 l -0.625,0 0,1.3125 0.625,0 c 0.68275,0 1.157055,0.0592 1.46875,0.21875 0.311688,0.15956 0.468746,0.43031 0.46875,0.8125 -4e-6,0.42672 -0.135379,0.74455 -0.40625,0.9375 -0.270878,0.19292 -0.68228,0.28125 -1.25,0.28125 -0.371064,0 -0.746519,-0.0248 -1.125,-0.125 -0.378483,-0.10018 -0.715849,-0.24669 -1.03125,-0.40625 l 0,1.46875 c 0.682751,0.29313 1.460623,0.4375 2.34375,0.4375 1.05381,0 1.869772,-0.22211 2.4375,-0.65625 0.567718,-0.43785 0.843744,-1.02956 0.84375,-1.8125 -6e-6,-0.53803 -0.16234,-0.96584 -0.5,-1.28125 -0.337671,-0.31911 -0.843226,-0.5434 -1.5,-0.625 l 0,-0.0312 c 0.556587,-0.13358 1.004514,-0.36253 1.3125,-0.71875 0.307975,-0.35622 0.437494,-0.80414 0.4375,-1.3125 -6e-6,-0.60854 -0.228955,-1.06486 -0.71875,-1.40625 -0.486095,-0.34137 -1.157695,-0.53124 -2,-0.53125 z m 7.875,0.0312 c -1.358087,10e-6 -2.37975,0.40085 -3.0625,1.1875 -0.679043,0.78665 -1.000001,1.98335 -1,3.59375 -1e-6,0.75326 0.10256,1.40318 0.34375,1.9375 0.2449,0.53433 0.617225,0.94045 1.0625,1.21875 0.448982,0.2783 0.961378,0.40625 1.5625,0.40625 0.868279,0 1.541444,-0.24536 2.03125,-0.75 0.489795,-0.50835 0.749994,-1.19421 0.75,-2.0625 -6e-6,-0.8052 -0.213128,-1.44984 -0.625,-1.90625 -0.411883,-0.4564 -0.991474,-0.68749 -1.71875,-0.6875 -0.808916,10e-6 -1.382652,0.33795 -1.75,0.96875 l -0.09375,0 c 0.03339,-0.64193 0.158218,-1.1512 0.34375,-1.5 0.185529,-0.34879 0.472686,-0.60314 0.84375,-0.78125 0.374768,-0.17807 0.847508,-0.28124 1.4375,-0.28125 0.322818,10e-6 0.638501,0.0508 0.96875,0.125 l 0,-1.375 c -0.263458,-0.0557 -0.629928,-0.0937 -1.09375,-0.0937 z m 15.84375,0.0937 -0.28125,4.15625 0.6875,0.375 c 0.148423,-0.0445 0.32502,-0.0879 0.5625,-0.125 0.237477,-0.0408 0.459585,-0.0625 0.65625,-0.0625 1.087205,0 1.624996,0.39871 1.625,1.21875 -4e-6,0.86087 -0.512401,1.28125 -1.5625,1.28125 -0.3488,0 -0.735387,-0.0285 -1.125,-0.125 -0.389615,-0.10018 -0.706862,-0.25041 -1,-0.40625 l 0,1.5 c 0.556591,0.29313 1.282109,0.4375 2.1875,0.4375 1.042678,0 1.845943,-0.22895 2.40625,-0.71875 0.560296,-0.4898 0.843744,-1.2159 0.84375,-2.125 -6e-6,-0.76809 -0.251219,-1.37093 -0.71875,-1.8125 -0.463832,-0.44156 -1.088354,-0.65625 -1.875,-0.65625 -0.333958,0 -0.617406,0.0419 -0.84375,0.0937 l -0.1875,0.0312 0.15625,-1.59375 2.90625,0 0,-1.46875 -4.4375,0 z m 6.53125,0 -0.3125,4.15625 0.6875,0.375 c 0.148423,-0.0445 0.325019,-0.0879 0.5625,-0.125 0.237477,-0.0408 0.459585,-0.0625 0.65625,-0.0625 1.087205,0 1.624995,0.39871 1.625,1.21875 -5e-6,0.86087 -0.512401,1.28125 -1.5625,1.28125 -0.3488,0 -0.735388,-0.0285 -1.125,-0.125 -0.389615,-0.10018 -0.706862,-0.25041 -1,-0.40625 l 0,1.5 c 0.556591,0.29313 1.282109,0.4375 2.1875,0.4375 1.042678,0 1.845943,-0.22895 2.40625,-0.71875 0.560296,-0.4898 0.843744,-1.2159 0.84375,-2.125 -6e-6,-0.76809 -0.251218,-1.37093 -0.71875,-1.8125 -0.463831,-0.44156 -1.088354,-0.65625 -1.875,-0.65625 -0.333958,0 -0.617405,0.0419 -0.84375,0.0937 l -0.1875,0.0312 0.15625,-1.59375 2.90625,0 0,-1.46875 -4.40625,0 z m -13.9375,1.78125 c -0.871996,1e-5 -1.658853,0.18773 -2.375,0.5625 l 0.5625,1.15625 c 0.671618,-0.30056 1.252775,-0.43749 1.75,-0.4375 0.645643,1e-5 0.968746,0.3067 0.96875,0.9375 l 0,0.28125 -1.09375,0.0312 c -0.931366,0.0334 -1.629925,0.1846 -2.09375,0.5 -0.460117,0.31169 -0.687501,0.80826 -0.6875,1.46875 -1e-6,0.6308 0.189873,1.12737 0.53125,1.46875 0.345086,0.34138 0.80884,0.5 1.40625,0.5 0.486088,0 0.886937,-0.0814 1.1875,-0.21875 0.304266,-0.141 0.589279,-0.39007 0.875,-0.75 l 0.03125,0 0.34375,0.84375 1.1875,0 0,-4.125 c -6e-6,-0.74212 -0.242232,-1.2926 -0.6875,-1.65625 -0.445278,-0.36363 -1.071366,-0.56249 -1.90625,-0.5625 z M 23.75,132.59375 c 0.371057,0 0.661926,0.1137 0.84375,0.34375 0.185525,0.22635 0.249996,0.50921 0.25,0.90625 -4e-6,0.4564 -0.08459,0.81389 -0.28125,1.0625 -0.196667,0.2449 -0.476403,0.375 -0.84375,0.375 -0.356221,0 -0.641234,-0.16448 -0.875,-0.46875 -0.23006,-0.30427 -0.343752,-0.65219 -0.34375,-1.09375 -2e-6,-0.30056 0.09885,-0.58615 0.34375,-0.8125 0.248608,-0.22635 0.557449,-0.3125 0.90625,-0.3125 z m 10.4375,1.0625 0,0.53125 c -4e-6,0.37478 -0.137525,0.64866 -0.375,0.875 -0.233772,0.22635 -0.544179,0.34375 -0.9375,0.34375 -0.549173,0 -0.812502,-0.24008 -0.8125,-0.71875 -2e-6,-0.33395 0.102558,-0.55548 0.34375,-0.71875 0.241187,-0.16327 0.631485,-0.26645 1.125,-0.28125 l 0.65625,-0.0312 z"
       style="font-size:11.39900017px;font-style:normal;font-variant:normal;font-weight:bold;font-stretch:normal;text-align:start;line-height:125%;letter-spacing:0px;word-spacing:0px;text-anchor:start;fill:#000000;fill-opacity:1;stroke:none;font-family:Open Sans;-inkscape-font-specification:Open Sans Bold"
       inkscape:connector-curvature="0" />
    <path
       id="path3206"
       d="m 146.875,153.78125 0,12.46875 3.3125,0 0,-4.6875 3.75,0 0,-2.6875 -3.75,0 0,-2.40625 4.0625,0 0,-2.6875 -7.375,0 z M 31.15625,155.25 l 0,0.125 c 0.25232,0.24491 0.609803,0.57016 1.0625,0.9375 0.452692,0.36365 0.797478,0.61799 1.03125,0.78125 l 1.125,0 0,-0.15625 c -0.638229,-0.74211 -1.078735,-1.31272 -1.3125,-1.6875 l -1.90625,0 z m 18.28125,0.46875 c -0.964762,1e-5 -1.692425,0.3485 -2.15625,1.03125 -0.463827,0.67905 -0.6875,1.7515 -0.6875,3.1875 0,1.37664 0.243791,2.41999 0.71875,3.125 0.478667,0.70502 1.186212,1.03125 2.125,1.03125 0.968465,0 1.692418,-0.31725 2.15625,-1 0.467531,-0.68275 0.687494,-1.73508 0.6875,-3.15625 -6e-6,-1.37292 -0.236376,-2.41256 -0.71875,-3.125 -0.478674,-0.71243 -1.18622,-1.09374 -2.125,-1.09375 z M 24.84375,155.75 c -1.358087,0 -2.37975,0.40086 -3.0625,1.1875 -0.679043,0.78666 -1.000001,1.98335 -1,3.59375 -1e-6,0.75326 0.10256,1.40317 0.34375,1.9375 0.2449,0.53433 0.617225,0.94046 1.0625,1.21875 0.448982,0.2783 0.961378,0.40625 1.5625,0.40625 0.868279,0 1.541444,-0.24535 2.03125,-0.75 0.489795,-0.50835 0.749994,-1.19422 0.75,-2.0625 -6e-6,-0.8052 -0.213128,-1.41859 -0.625,-1.875 -0.411883,-0.4564 -0.991474,-0.6875 -1.71875,-0.6875 -0.808916,0 -1.382652,0.3067 -1.75,0.9375 l -0.09375,0 c 0.03339,-0.64193 0.158218,-1.15119 0.34375,-1.5 0.185529,-0.34879 0.472686,-0.60313 0.84375,-0.78125 0.374768,-0.17806 0.847508,-0.25 1.4375,-0.25 0.322818,0 0.638501,0.0196 0.96875,0.0937 l 0,-1.375 C 25.674042,155.788 25.307572,155.75 24.84375,155.75 z m 18.09375,0 c -0.775521,1e-5 -1.392622,0.17133 -1.875,0.53125 -0.48238,0.35993 -0.718751,0.85494 -0.71875,1.4375 -10e-7,0.39704 0.07717,0.7598 0.28125,1.09375 0.204082,0.33396 0.536172,0.64436 1,0.9375 -0.545462,0.27459 -0.93889,0.57757 -1.1875,0.9375 -0.244901,0.35993 -0.343751,0.78618 -0.34375,1.25 -10e-7,0.69389 0.241646,1.21527 0.75,1.59375 0.508353,0.37849 1.2032,0.5625 2.09375,0.5625 0.853436,0 1.539299,-0.18929 2.0625,-0.59375 0.523191,-0.40816 0.781244,-0.95709 0.78125,-1.625 -6e-6,-0.42301 -0.139092,-0.80374 -0.40625,-1.15625 -0.263459,-0.35622 -0.672715,-0.70471 -1.28125,-1.03125 0.512059,-0.25603 0.863687,-0.52093 1.09375,-0.84375 0.230053,-0.32653 0.343744,-0.7094 0.34375,-1.125 -6e-6,-0.60111 -0.240087,-1.08498 -0.71875,-1.4375 -0.474963,-0.35621 -1.095776,-0.53124 -1.875,-0.53125 z m -28.03125,0.0937 -0.3125,4.15625 0.6875,0.375 c 0.148423,-0.0445 0.325019,-0.0879 0.5625,-0.125 0.237477,-0.0408 0.459585,-0.0625 0.65625,-0.0625 1.087206,0 1.624996,0.39871 1.625,1.21875 -4e-6,0.86086 -0.512401,1.3125 -1.5625,1.3125 -0.3488,0 -0.704138,-0.0598 -1.09375,-0.15625 -0.389616,-0.10019 -0.738113,-0.21915 -1.03125,-0.375 l 0,1.46875 c 0.556591,0.29314 1.282108,0.4375 2.1875,0.4375 1.042678,0 1.845943,-0.22895 2.40625,-0.71875 0.560297,-0.4898 0.843744,-1.18464 0.84375,-2.09375 -6e-6,-0.76809 -0.251218,-1.37094 -0.71875,-1.8125 -0.463831,-0.44156 -1.088355,-0.65624 -1.875,-0.65625 -0.333958,0 -0.617405,0.0106 -0.84375,0.0625 l -0.1875,0.0312 0.15625,-1.59375 2.90625,0 0,-1.46875 -4.40625,0 z M 42.9375,157 c 0.289424,1e-5 0.533216,0.0703 0.71875,0.21875 0.185526,0.14843 0.249996,0.36898 0.25,0.625 -4e-6,0.23378 -0.07404,0.4469 -0.21875,0.625 -0.144717,0.17811 -0.386364,0.32931 -0.75,0.5 -0.374775,-0.18553 -0.636539,-0.35684 -0.78125,-0.53125 -0.141005,-0.1781 -0.218752,-0.3711 -0.21875,-0.59375 -2e-6,-0.25231 0.103139,-0.44532 0.28125,-0.59375 0.181818,-0.1521 0.425608,-0.24999 0.71875,-0.25 z m 6.5,0.125 c 0.397031,1e-5 0.665637,0.2184 0.84375,0.65625 0.18182,0.43415 0.281245,1.1581 0.28125,2.15625 -5e-6,0.98703 -0.07189,1.68715 -0.25,2.125 -0.178114,0.43786 -0.474258,0.65625 -0.875,0.65625 -0.408171,0 -0.700603,-0.22582 -0.875,-0.65625 -0.170692,-0.43414 -0.250002,-1.12684 -0.25,-2.125 -2e-6,-0.99815 0.0756,-1.7221 0.25,-2.15625 0.174397,-0.43785 0.47054,-0.65624 0.875,-0.65625 z m -16.15625,0.53125 c -0.871996,0 -1.658853,0.18774 -2.375,0.5625 l 0.5625,1.125 c 0.671618,-0.30055 1.252775,-0.43749 1.75,-0.4375 0.645643,1e-5 0.968746,0.3067 0.96875,0.9375 l 0,0.28125 -1.09375,0.0312 c -0.931366,0.0334 -1.629925,0.21585 -2.09375,0.53125 -0.460117,0.3117 -0.687501,0.77702 -0.6875,1.4375 -1e-6,0.63081 0.189873,1.12738 0.53125,1.46875 0.345086,0.34138 0.80884,0.5 1.40625,0.5 0.486088,0 0.886937,-0.0502 1.1875,-0.1875 0.304266,-0.14101 0.589279,-0.39007 0.875,-0.75 l 0.03125,0 0.34375,0.84375 1.1875,0 0,-4.15625 c -6e-6,-0.74212 -0.242232,-1.29261 -0.6875,-1.65625 -0.445278,-0.36364 -1.071366,-0.53125 -1.90625,-0.53125 z m -9.53125,2.375 c 0.371057,0 0.661926,0.11369 0.84375,0.34375 0.185525,0.22635 0.249996,0.54047 0.25,0.9375 -4e-6,0.45641 -0.08459,0.8139 -0.28125,1.0625 -0.196667,0.24491 -0.476403,0.34375 -0.84375,0.34375 -0.356221,0 -0.641234,-0.13323 -0.875,-0.4375 -0.23006,-0.30427 -0.343752,-0.68343 -0.34375,-1.125 -2e-6,-0.30056 0.09885,-0.5549 0.34375,-0.78125 0.248608,-0.22634 0.557449,-0.34375 0.90625,-0.34375 z m 19.09375,0.40625 c 0.471244,0.2449 0.823452,0.49983 1.03125,0.71875 0.2115,0.21522 0.312496,0.43889 0.3125,0.6875 -4e-6,0.30056 -0.101,0.53322 -0.3125,0.71875 -0.211509,0.18183 -0.542033,0.28125 -0.96875,0.28125 -0.385907,0 -0.683615,-0.10314 -0.90625,-0.28125 -0.222638,-0.17811 -0.343752,-0.39964 -0.34375,-0.71875 -2e-6,-0.55659 0.397137,-1.04261 1.1875,-1.40625 z m -9.3125,0.6875 0.65625,0 0,0.5 c -4e-6,0.37477 -0.137525,0.6799 -0.375,0.90625 -0.233772,0.22634 -0.544179,0.34375 -0.9375,0.34375 -0.549173,0 -0.812502,-0.24008 -0.8125,-0.71875 -2e-6,-0.33395 0.102558,-0.58673 0.34375,-0.75 0.241187,-0.16326 0.631485,-0.26645 1.125,-0.28125 z"
       style="font-size:11.39900017px;font-style:normal;font-variant:normal;font-weight:bold;font-stretch:normal;text-align:start;line-height:125%;letter-spacing:0px;word-spacing:0px;text-anchor:start;fill:#000000;fill-opacity:1;stroke:none;font-family:Open Sans;-inkscape-font-specification:Open Sans Bold"
       inkscape:connector-curvature="0" />
    <path
       id="path3217"
       d="m 170.84375,180.90625 c -2.07077,2e-5 -3.6946,0.5668 -4.84375,1.6875 -1.14916,1.12073 -1.71875,2.67364 -1.71875,4.6875 0,2.06508 0.51574,3.66623 1.5625,4.78125 1.05244,1.11502 2.5459,1.6875 4.46875,1.6875 1.75218,0 3.38169,-0.24938 4.84375,-0.75 l 0,-6.75 -5.40625,0 0,2.625 2.25,0 0,1.9375 c -0.42099,0.0967 -0.90563,0.15625 -1.40625,0.15625 -0.91592,0 -1.60451,-0.29754 -2.09375,-0.90625 -0.48357,-0.6144 -0.71875,-1.52127 -0.71875,-2.6875 0,-1.18898 0.24648,-2.08159 0.78125,-2.71875 0.54044,-0.64284 1.32832,-0.96874 2.3125,-0.96875 1.0752,1e-5 2.03864,0.21253 2.9375,0.65625 l 1.0625,-2.65625 c -0.5177,-0.22754 -1.11277,-0.41458 -1.8125,-0.5625 -0.69405,-0.14787 -1.43369,-0.21873 -2.21875,-0.21875 z m -137.75,2.375 c -0.964761,1e-5 -1.692426,0.34851 -2.15625,1.03125 -0.463828,0.67905 -0.687501,1.72024 -0.6875,3.15625 -1e-6,1.37664 0.243791,2.41998 0.71875,3.125 0.478668,0.70501 1.186213,1.0625 2.125,1.0625 0.968466,0 1.692419,-0.3485 2.15625,-1.03125 0.467532,-0.68275 0.687494,-1.73509 0.6875,-3.15625 -6e-6,-1.37293 -0.236377,-2.41256 -0.71875,-3.125 -0.478674,-0.71243 -1.186219,-1.06249 -2.125,-1.0625 z m -6.5,0.0312 c -0.77552,10e-6 -1.392622,0.17133 -1.875,0.53125 C 24.236369,184.20369 24,184.66745 24,185.25 c 0,0.39705 0.07717,0.7598 0.28125,1.09375 0.204082,0.33396 0.536172,0.64437 1,0.9375 -0.545461,0.27459 -0.93889,0.60883 -1.1875,0.96875 -0.244901,0.35993 -0.34375,0.75492 -0.34375,1.21875 0,0.69388 0.241645,1.24651 0.75,1.625 0.508352,0.37848 1.203201,0.5625 2.09375,0.5625 0.853437,0 1.539299,-0.1893 2.0625,-0.59375 0.52319,-0.40817 0.781244,-0.95709 0.78125,-1.625 -6e-6,-0.42301 -0.107842,-0.80374 -0.375,-1.15625 -0.263459,-0.35621 -0.703964,-0.70471 -1.3125,-1.03125 0.51206,-0.25602 0.863687,-0.55217 1.09375,-0.875 0.230052,-0.32653 0.343744,-0.70941 0.34375,-1.125 -6e-6,-0.60112 -0.240086,-1.05374 -0.71875,-1.40625 -0.474963,-0.35622 -1.095775,-0.53124 -1.875,-0.53125 z m -12.21875,1.09375 0,1.34375 3.8125,1.78125 -3.8125,1.5625 0,1.3125 5.53125,-2.4375 0,-0.78125 -5.53125,-2.78125 z m 12.21875,0.15625 c 0.289424,10e-6 0.533215,0.0703 0.71875,0.21875 0.185526,0.14843 0.281245,0.33772 0.28125,0.59375 -5e-6,0.23377 -0.07404,0.4469 -0.21875,0.625 -0.144718,0.17812 -0.417614,0.36057 -0.78125,0.53125 -0.374775,-0.18548 -0.636538,-0.3568 -0.78125,-0.5312 -0.141004,-0.17811 -0.218753,-0.40236 -0.21875,-0.625 -3e-6,-0.25232 0.103138,-0.44532 0.28125,-0.59375 0.181817,-0.15211 0.425609,-0.21874 0.71875,-0.21875 z m 6.5,0.0937 c 0.397032,1e-5 0.665637,0.21841 0.84375,0.65625 0.18182,0.43415 0.281246,1.1581 0.28125,2.15625 -4e-6,0.98702 -0.07189,1.7184 -0.25,2.15625 -0.178113,0.43785 -0.474258,0.65625 -0.875,0.65625 -0.40817,0 -0.700604,-0.22582 -0.875,-0.65625 -0.170692,-0.43414 -0.250002,-1.1581 -0.25,-2.15625 -2e-6,-0.99815 0.0756,-1.7221 0.25,-2.15625 0.174396,-0.43784 0.47054,-0.65624 0.875,-0.65625 z M 26.5,188 c 0.471244,0.24491 0.823452,0.46858 1.03125,0.6875 0.211501,0.21522 0.312495,0.43889 0.3125,0.6875 -5e-6,0.30056 -0.100999,0.56447 -0.3125,0.75 -0.211509,0.18183 -0.542033,0.28125 -0.96875,0.28125 -0.385906,0 -0.683616,-0.10314 -0.90625,-0.28125 -0.222639,-0.17811 -0.312502,-0.43089 -0.3125,-0.75 -2e-6,-0.55659 0.365887,-1.01135 1.15625,-1.375 z"
       style="font-size:11.39900017px;font-style:normal;font-variant:normal;font-weight:bold;font-stretch:normal;text-align:start;line-height:125%;letter-spacing:0px;word-spacing:0px;text-anchor:start;fill:#ffffff;fill-opacity:1;stroke:none;font-family:Open Sans;-inkscape-font-specification:Open Sans Bold"
       inkscape:connector-curvature="0" />
  </g>
</svg>
